<?xml version="1.0" encoding="UTF-8" standalone="no"?>
<!-- Created with Inkscape (http://www.inkscape.org/) -->

<svg
   xmlns:dc="http://purl.org/dc/elements/1.1/"
   xmlns:cc="http://creativecommons.org/ns#"
   xmlns:rdf="http://www.w3.org/1999/02/22-rdf-syntax-ns#"
   xmlns:svg="http://www.w3.org/2000/svg"
   xmlns="http://www.w3.org/2000/svg"
   xmlns:sodipodi="http://sodipodi.sourceforge.net/DTD/sodipodi-0.dtd"
   xmlns:inkscape="http://www.inkscape.org/namespaces/inkscape"
   width="150"
   height="150"
   id="svg4601"
   version="1.1"
   inkscape:version="0.48.5 r10040"
   sodipodi:docname="1.svg">
  <defs
     id="defs4603" />
  <sodipodi:namedview
     id="base"
     pagecolor="#ffffff"
     bordercolor="#666666"
     borderopacity="1.0"
     inkscape:pageopacity="0.0"
     inkscape:pageshadow="2"
     inkscape:zoom="3.959798"
     inkscape:cx="136.32463"
     inkscape:cy="88.21801"
     inkscape:document-units="px"
     inkscape:current-layer="layer1"
     showgrid="false"
     fit-margin-top="0"
     fit-margin-left="0"
     fit-margin-right="0"
     fit-margin-bottom="0"
     inkscape:window-width="1440"
     inkscape:window-height="878"
     inkscape:window-x="0"
     inkscape:window-y="0"
     inkscape:window-maximized="1" />
  <metadata
     id="metadata4606">
    <rdf:RDF>
      <cc:Work
         rdf:about="">
        <dc:format>image/svg+xml</dc:format>
        <dc:type
           rdf:resource="http://purl.org/dc/dcmitype/StillImage" />
        <dc:title />
      </cc:Work>
    </rdf:RDF>
  </metadata>
  <g
     inkscape:label="Layer 1"
     inkscape:groupmode="layer"
     id="layer1"
     transform="translate(-325.50691,-303.70437)">
    <g
       id="g3064"
       transform="matrix(0.6087332,0,0,0.6087332,127.36005,177.51946)">
      <path
         id="path14"
         style="fill:#000000;fill-opacity:1;fill-rule:nonzero;stroke:none"
         d="m 397.2591,231.33393 0,2.0625 1.5625,-5.56125 c -0.75,-8.87125 -3.49875,-13.86875 -8.185,-14.99375 -1.81125,-0.4375 -3.4975,-0.81125 -5.185,-1.12375 l 5.31,6.74625 -12.4325,2 c 0.625,0.125 1.3125,0.31125 2.0625,0.62375 5.4975,1.9375 9.18375,1.9375 10.995,0 4.37375,1.375 6.31,4.81125 5.8725,10.24625"
         inkscape:connector-curvature="0" />
      <path
         id="path16"
         style="fill:#a56e44;fill-opacity:1;fill-rule:nonzero;stroke:none"
         d="m 397.2591,233.39643 0,-2.0625 c 0.4375,-5.435 -1.49875,-8.87125 -5.8725,-10.24625 -1.81125,1.9375 -5.4975,1.9375 -10.995,0 -0.75,-0.3125 -1.4375,-0.5 -2.0625,-0.62375 -2.43625,-0.5 -4.31,-0.0625 -5.56,1.24875 -0.5,0.5625 -0.9375,1.25 -1.24875,2.1875 l 0,8.80875 -3,7.1225 5.12375,-5.81125 0,-8.24625 c 0.74875,-2.99875 3.68625,-3.81125 8.80875,-2.49875 3.43625,1.49875 6.935,1.49875 10.37125,0 l 2.49875,6.8725 0,15.86875 c -1.1875,9.8075 -6.56,13.05625 -16.11875,9.745 -0.625,-0.5625 -1.3125,-1.12375 -1.99875,-1.74875 l -7.56,-4.87375 0,1.5625 1.3125,0.875 1.37375,0.99875 9.55875,6.6225 7.935,2.4375 -1.25,1.06125 c 1,0.375 1.99875,0.75 2.99875,1.1875 l 0.3125,-1.1875 0.1875,-0.93625 1.25,-5.49875 c 2.7475,-3.31125 4.06,-8.05875 3.935,-14.24375 l 0,-8.62125"
         inkscape:connector-curvature="0" />
      <path
         id="path18"
         style="fill:#dca56d;fill-opacity:1;fill-rule:nonzero;stroke:none"
         d="m 402.25785,252.51268 c -0.5625,0.4375 -0.8125,1.5625 -0.6875,3.43625 l 3.56125,9.93375 c -0.1875,0.8125 -0.375,1.6875 -0.5,2.56125 -0.1875,1.1875 -0.25,2.37375 -0.1875,3.62375 0,1.8125 0.25,3.68625 0.6875,5.6225 1.06125,-0.3125 1.99875,-0.5 2.93625,-0.5625 1.3125,-0.125 2.49875,0 3.56125,0.375 1.18625,0.4375 2.31125,1.125 3.24875,2.125 l 1.62375,-13.62 -4.31125,-13.80625 c -0.18625,0 -0.37375,0.0625 -0.56125,0.1875 l 3.31125,14.61875 -2.4375,-2.31125 -3.56,-14.9325 c -0.8125,-0.375 -1.4375,0 -1.875,1.0625 l 4.56125,15.05625 -1.75,-0.5 -4.4975,-15.11875 c -0.6875,0.125 -1.25,0.9375 -1.625,2.37375 l 4.68625,13.37 -2,-1.31125 -4.185,-12.18375 z m 3.37375,14.0575 1.31125,-0.6875 c -0.8125,3.31125 -0.5,6.56 1.0625,9.80875 l -2.37375,0.5625 c -0.9375,-3.18625 -0.9375,-6.435 0,-9.68375"
         inkscape:connector-curvature="0" />
      <path
         id="path20"
         style="fill:#f3ddcf;fill-opacity:1;fill-rule:nonzero;stroke:none"
         d="m 406.94285,265.88268 -1.31125,0.6875 c -0.9375,3.24875 -0.9375,6.4975 0,9.68375 l 2.37375,-0.5625 c -1.5625,-3.24875 -1.875,-6.4975 -1.0625,-9.80875"
         inkscape:connector-curvature="0" />
      <path
         id="path22"
         style="fill:#a56e44;fill-opacity:1;fill-rule:nonzero;stroke:none"
         d="m 403.7566,252.63768 c -0.62375,-0.31125 -1.12375,-0.37375 -1.49875,-0.125 l 4.185,12.1825 2,1.3125 -4.68625,-13.37"
         inkscape:connector-curvature="0" />
      <path
         id="path24"
         style="fill:#dca56d;fill-opacity:1;fill-rule:nonzero;stroke:none"
         d="m 414.25285,254.01268 c 0.3125,0.5 0.6875,1.12375 1,1.93625 l 3.435,8.685 c 0.375,7.05875 0.0625,12.49375 -0.99875,16.18 l 5.935,4.12375 c 0.3125,0 0.56125,0 0.87375,-0.0625 1.375,-0.25 2.625,-0.6875 3.68625,-1.375 0.625,-0.375 1.1875,-0.81125 1.75,-1.31125 l -6.4975,-7.1225 -2.12375,-9.55875 -5.9975,-11.37 c -0.3125,-0.0625 -0.6875,-0.125 -1.0625,-0.125"
         inkscape:connector-curvature="0" />
      <path
         id="path26"
         style="fill:#a56e44;fill-opacity:1;fill-rule:nonzero;stroke:none"
         d="m 415.25285,255.94893 c -0.3125,-0.8125 -0.6875,-1.43625 -1,-1.93625 -0.75,-1.1875 -1.4375,-1.81125 -2.0625,-1.81125 l 4.31125,13.80625 -1.62375,13.62 c 0.5625,0.5625 1.06125,1.24875 1.49875,2.06125 0.1875,0.3125 0.375,0.6875 0.5625,1.12375 0.3125,-0.62375 0.5625,-1.31125 0.75,-1.99875 1.06125,-3.68625 1.37375,-9.12125 0.99875,-16.18125 l -3.435,-8.68375"
         inkscape:connector-curvature="0" />
      <path
         id="path28"
         style="fill:#a56e44;fill-opacity:1;fill-rule:nonzero;stroke:none"
         d="m 407.06785,250.82643 c -0.625,-0.5 -1.1875,-0.6875 -1.68625,-0.5625 l 4.4975,15.11875 1.75,0.5 -4.56125,-15.05625"
         inkscape:connector-curvature="0" />
      <path
         id="path30"
         style="fill:#a56e44;fill-opacity:1;fill-rule:nonzero;stroke:none"
         d="m 411.6291,252.38768 c -1.0625,-1.43625 -1.9375,-2.31125 -2.68625,-2.62375 l 3.56,14.93125 2.4375,2.3125 -3.31125,-14.62"
         inkscape:connector-curvature="0" />
      <path
         id="path32"
         style="fill:#dca56d;fill-opacity:1;fill-rule:nonzero;stroke:none"
         d="m 395.32285,246.01643 0,-15.86875 -2.49875,-6.8725 c -3.43625,1.49875 -6.935,1.49875 -10.37125,0 -5.1225,-1.3125 -8.06,-0.5 -8.80875,2.49875 l 0,8.2475 -5.12375,5.81 c -1.12375,-1.25 -2.06125,-2.125 -2.81125,-2.5625 -0.99875,-0.625 -1.62375,-0.5625 -1.87375,0.1875 -0.1875,4.74875 1.74875,8.6225 5.81,11.6825 l 7.56,4.87375 c 0.68625,0.625 1.37375,1.18625 1.99875,1.74875 9.55875,3.31125 14.93125,0.0625 16.11875,-9.745 z m -17.11875,6.74625 -8.80875,-5.6225 c -3.74875,-2.56125 -5.185,-5.6225 -4.31,-9.05875 l 1.99875,2 c -0.1875,1.18625 -0.125,2.31125 0.25,3.4975 l 3.74875,1.3125 c 4.1225,4.185 8.80875,7.4975 14.05625,9.87125 l -6.935,-2"
         inkscape:connector-curvature="0" />
      <path
         id="path34"
         style="fill:#f3ddcf;fill-opacity:1;fill-rule:nonzero;stroke:none"
         d="m 369.39535,247.14018 8.80875,5.6225 6.935,2 c -5.2475,-2.375 -9.93375,-5.68625 -14.05625,-9.87125 l -3.74875,-1.3125 c -0.375,-1.18625 -0.4375,-2.31125 -0.25,-3.4975 l -1.99875,-2 c -0.875,3.43625 0.5625,6.4975 4.31,9.05875"
         inkscape:connector-curvature="0" />
      <path
         id="path36"
         style="fill:#860202;fill-opacity:1;fill-rule:nonzero;stroke:none"
         d="m 396.5091,270.25643 0,-2.49875 -3.6225,-3.31125 -1.25,1.62375 4.06125,3.74875 -0.1875,3.12375 6.8725,8.74625 0.5,-0.6875 2.24875,-3.31125 -8.6225,-7.43375"
         inkscape:connector-curvature="0" />
      <path
         id="path38"
         style="fill:#bbbbbb;fill-opacity:1;fill-rule:nonzero;stroke:none"
         d="m 396.5091,267.75768 0,2.49875 8.6225,7.43375 -8.6225,-9.9325"
         inkscape:connector-curvature="0" />
      <path
         id="path40"
         style="fill:#c10202;fill-opacity:1;fill-rule:nonzero;stroke:none"
         d="m 395.51035,272.94268 0.1875,-3.12375 -4.06125,-3.74875 -1.25,1.75 4.06125,4.06 -0.87375,3.68625 c 2.81,2.62375 5.185,5.56 6.99625,8.74625 l 1.8125,-2.62375 -6.8725,-8.74625"
         inkscape:connector-curvature="0" />
      <path
         id="path42"
         style="fill:#e1e1e1;fill-opacity:1;fill-rule:nonzero;stroke:none"
         d="m 392.8866,264.44643 3.6225,3.31125 8.6225,9.9325 c -0.4375,-1.93625 -0.6875,-3.81 -0.6875,-5.6225 l -11.5575,-7.62125"
         inkscape:connector-curvature="0" />
      <path
         id="path44"
         style="fill:#333333;fill-opacity:1;fill-rule:nonzero;stroke:none"
         d="m 404.4441,272.06768 c -0.0625,-1.24875 0,-2.43625 0.1875,-3.62375 -4.06125,-2.81125 -8.31,-4.7475 -12.745,-5.7475 l -0.3125,1.1875 c 0.4375,0.1875 0.875,0.375 1.3125,0.5625 l 11.5575,7.62125"
         inkscape:connector-curvature="0" />
      <path
         id="path46"
         style="fill:#000000;fill-opacity:1;fill-rule:nonzero;stroke:none"
         d="m 404.6316,268.44393 c 0.125,-0.87375 0.3125,-1.74875 0.5,-2.56125 -4.81125,-2.93625 -9.12125,-4.31 -13.0575,-4.1225 l -0.1875,0.93625 c 4.435,1 8.68375,2.93625 12.745,5.7475"
         inkscape:connector-curvature="0" />
      <path
         id="path48"
         style="fill:#333333;fill-opacity:1;fill-rule:nonzero;stroke:none"
         d="m 402.88285,281.00143 -0.5,0.6875 -1.8125,2.62375 c -1.81125,-3.18625 -4.18625,-6.1225 -6.99625,-8.74625 -1.6875,-1.56125 -3.56125,-3.06125 -5.56125,-4.37375 -3.06125,-2.06125 -6.49625,-3.81 -10.3075,-5.3725 -1.1875,-0.4375 -2.375,-0.9375 -3.56125,-1.37375 -1.0625,-0.375 -2.1875,-0.75 -3.37375,-1.0625 -0.875,-0.3125 -1.75,-0.5625 -2.68625,-0.8125 -0.6875,0.4375 -1.375,0.8125 -2,1.25 3.68625,4.435 7.56,8.24625 11.68375,11.4325 l 7.68375,0 -2.37375,3.81125 c 3.93625,2.68625 6.31,4.06 7.12125,4.2475 1,0.1875 2.6875,1.0625 4.99875,2.625 l -21.99125,16.9925 c 5.935,-10.995 -0.25,-20.74125 -18.555,-29.175 -3.56125,4.9975 -4.68625,10.8075 -3.37375,17.4925 0.5625,3.06125 1.6875,6.3725 3.37375,9.80875 1.93625,3.935 4.12375,7.43375 6.685,10.62125 7.24625,3.685 14.80625,4.435 22.74,2.24875 l 27.74,-26.49 c -1.1875,-1.37375 -2.62375,-2.62375 -4.24875,-3.74875 -0.9375,-0.6875 -1.99875,-1.31125 -3.06125,-1.87375 -0.5625,-0.25 -1.06125,-0.5 -1.62375,-0.8125 z m 1.37375,1.99875 -1.87375,3.4375 -4.74875,1.12375 -23.49125,15.68125 22.24125,-17.055 4.87375,-1.125 1.625,-2.93625 1.37375,0.87375 z m -50.0425,-6.2475 2.74875,0.25 c -4.685,9.06 -2.43625,18.93125 6.6225,29.55125 l 4.935,6.3725 -6.31,-2.99875 c -9.62,-12.1825 -12.30625,-23.24125 -7.99625,-33.175 z m 23.865,-2.685 -9.87125,-9.80875 1.375,0 8.74625,8.30875 5.12375,1.5 -5.37375,0"
         inkscape:connector-curvature="0" />
      <path
         id="path50"
         style="fill:#999999;fill-opacity:1;fill-rule:nonzero;stroke:none"
         d="m 402.38285,286.43768 1.87375,-3.43625 -1.37375,-0.875 -1.625,2.93625 -4.87375,1.125 -22.24,17.055 23.49,-15.68125 4.74875,-1.12375"
         inkscape:connector-curvature="0" />
      <path
         id="path52"
         style="fill:#999999;fill-opacity:1;fill-rule:nonzero;stroke:none"
         d="m 356.96285,277.00268 -2.74875,-0.24875 c -4.31125,9.93375 -1.62375,20.99125 7.99625,33.17375 l 6.31,2.99875 -4.935,-6.3725 c -9.05875,-10.62 -11.3075,-20.49125 -6.6225,-29.55125"
         inkscape:connector-curvature="0" />
      <path
         id="path54"
         style="fill:#999999;fill-opacity:1;fill-rule:nonzero;stroke:none"
         d="m 368.2091,264.25893 9.87,9.80875 5.37375,0 -5.12375,-1.5 -8.74625,-8.30875 -1.37375,0"
         inkscape:connector-curvature="0" />
      <path
         id="path56"
         style="fill:#e1e1e1;fill-opacity:1;fill-rule:nonzero;stroke:none"
         d="m 405.1316,277.69018 -2.24875,3.31125 c 0.56125,0.3125 1.06125,0.5625 1.62375,0.8125 l 3.56125,-4.68625 c -0.9375,0.0625 -1.875,0.25 -2.93625,0.5625"
         inkscape:connector-curvature="0" />
      <path
         id="path58"
         style="fill:#e1e1e1;fill-opacity:1;fill-rule:nonzero;stroke:none"
         d="m 414.87785,279.62768 c -0.9375,-1 -2.0625,-1.6875 -3.24875,-2.125 l -4.06125,6.185 c 1.625,1.125 3.06125,2.375 4.24875,3.74875 l 4.56,-5.7475 c -0.4375,-0.8125 -0.93625,-1.49875 -1.49875,-2.06125"
         inkscape:connector-curvature="0" />
      <path
         id="path60"
         style="fill:#ffffff;fill-opacity:1;fill-rule:nonzero;stroke:none"
         d="m 407.56785,283.68768 4.06125,-6.185 c -1.0625,-0.375 -2.24875,-0.5 -3.56125,-0.375 l -3.56125,4.68625 c 1.0625,0.5625 2.12375,1.1875 3.06125,1.87375"
         inkscape:connector-curvature="0" />
      <path
         id="path62"
         style="fill:#bbbbbb;fill-opacity:1;fill-rule:nonzero;stroke:none"
         d="m 416.9391,282.81268 c -0.1875,-0.43625 -0.375,-0.81125 -0.5625,-1.12375 l -4.56,5.7475 c 1.49875,1.6875 2.68625,3.49875 3.56125,5.4975 l 3.31,-4.3725 c -0.4375,-2.24875 -0.99875,-4.18625 -1.74875,-5.74875"
         inkscape:connector-curvature="0" />
      <path
         id="path64"
         style="fill:#000000;fill-opacity:1;fill-rule:nonzero;stroke:none"
         d="m 417.6891,280.81393 c -0.1875,0.6875 -0.4375,1.375 -0.75,2 0.75,1.56125 1.31125,3.49875 1.74875,5.7475 l 10.62125,9.24625 8.24625,12.4325 -7.24625,3.31125 1.49875,1.87375 12.87,-6.4975 -7.99625,-4.7475 -1.1875,-1 -10.12125,-12.745 -2.87375,-3.12375 1.125,-2.37375 -5.935,-4.12375"
         inkscape:connector-curvature="0" />
      <path
         id="path66"
         style="fill:#e1e1e1;fill-opacity:1;fill-rule:nonzero;stroke:none"
         d="m 393.5741,275.56643 0.87375,-3.68625 -4.06125,-4.06 -2.37375,3.3725 c 1.99875,1.3125 3.87375,2.8125 5.56125,4.37375"
         inkscape:connector-curvature="0" />
      <path
         id="path68"
         style="fill:#e1e1e1;fill-opacity:1;fill-rule:nonzero;stroke:none"
         d="m 423.6241,284.93768 -1.125,2.37375 2.87375,3.12375 c 1.1875,-0.56125 2.375,-1.12375 3.49875,-1.74875 l -4.37375,-3.81125 c -0.31125,0.0625 -0.56125,0.0625 -0.87375,0.0625"
         inkscape:connector-curvature="0" />
      <path
         id="path70"
         style="fill:#ffffff;fill-opacity:1;fill-rule:nonzero;stroke:none"
         d="m 428.1841,283.50018 c -1.06125,0.6875 -2.31125,1.125 -3.68625,1.375 l 4.37375,3.81125 c 1.0625,-0.6875 2,-1.375 2.87375,-2.0625 l -3.56125,-3.12375"
         inkscape:connector-curvature="0" />
      <path
         id="path72"
         style="fill:#e1e1e1;fill-opacity:1;fill-rule:nonzero;stroke:none"
         d="m 429.9341,282.18893 c -0.5625,0.5 -1.125,0.93625 -1.75,1.31125 l 3.56125,3.12375 c 0.8125,-0.68625 1.5,-1.43625 2.18625,-2.18625 0.25,-0.25 0.5,-0.5 0.6875,-0.75 l -3.81,-2.43625 c -0.3125,0.3125 -0.5625,0.625 -0.875,0.9375"
         inkscape:connector-curvature="0" />
      <path
         id="path74"
         style="fill:#a56e44;fill-opacity:1;fill-rule:nonzero;stroke:none"
         d="m 423.4366,275.06643 6.4975,7.1225 c 0.3125,-0.3125 0.5625,-0.625 0.875,-0.9375 0.81125,-1.06125 1.56125,-2.43625 2.12375,-3.99875 l -10.55875,-12.495 c -2.18625,-6.30875 -4.56,-9.87 -7.05875,-10.62 l 5.9975,11.37 2.12375,9.55875"
         inkscape:connector-curvature="0" />
      <path
         id="path76"
         style="fill:#bbbbbb;fill-opacity:1;fill-rule:nonzero;stroke:none"
         d="m 430.8091,281.25143 3.81,2.43625 c 1.1875,-1.43625 2.0625,-3.06 2.75,-4.7475 l -4.43625,-1.6875 c -0.5625,1.5625 -1.3125,2.9375 -2.12375,3.99875"
         inkscape:connector-curvature="0" />
      <path
         id="path78"
         style="fill:#000000;fill-opacity:1;fill-rule:nonzero;stroke:none"
         d="m 437.3691,278.94018 c -0.6875,1.68625 -1.5625,3.31125 -2.75,4.7475 -0.1875,0.25 -0.4375,0.5 -0.6875,0.75 l 16.68125,14.49375 -5.935,9.99625 12.4325,-6.31 c 2.1875,-2.43625 4.56125,-4.185 6.9975,-5.185 -7.81,-6.685 -16.74375,-13.495 -26.73875,-20.4925 l 0,2"
         inkscape:connector-curvature="0" />
      <path
         id="path80"
         style="fill:#333333;fill-opacity:1;fill-rule:nonzero;stroke:none"
         d="m 433.93285,284.43768 c -0.6875,0.75 -1.375,1.5 -2.1875,2.18625 -0.87375,0.6875 -1.81125,1.375 -2.87375,2.0625 -1.12375,0.625 -2.31125,1.1875 -3.49875,1.74875 l 10.12125,12.745 1.1875,1 7.99625,4.7475 5.935,-9.99625 -16.68,-14.49375 z m 2.49875,18.305 -8.74625,-11.745 1.99875,-0.93625 7.3725,11.12 6.3725,5.685 -6.9975,-4.12375"
         inkscape:connector-curvature="0" />
      <path
         id="path82"
         style="fill:#999999;fill-opacity:1;fill-rule:nonzero;stroke:none"
         d="m 427.68535,290.99768 8.74625,11.745 6.9975,4.12375 -6.3725,-5.685 -7.3725,-11.12 -1.99875,0.93625"
         inkscape:connector-curvature="0" />
      <path
         id="path84"
         style="fill:#333333;fill-opacity:1;fill-rule:nonzero;stroke:none"
         d="m 464.10785,297.43268 c -2.43625,1 -4.81,2.74875 -6.9975,5.185 l -12.4325,6.31 -12.87,6.4975 -2.37375,1.1875 -7.74625,3.93625 -5.56125,2.74875 c 0.25,0.3125 0.5,0.5625 0.75,0.875 2.87375,3.8725 3.24875,8.745 1.18625,14.61875 -0.37375,0.9375 -0.68625,1.93625 -0.99875,2.93625 l 54.35375,-11.8075 11.245,-8.4975 0,13.5575 30.2975,0 c 4.8125,2.43625 8.625,3.31125 11.4375,2.74875 2.4375,-0.5625 4.125,-2.31125 5,-5.2475 l -41.3,-30.175 c -9.68375,-5.68625 -17.68,-7.31 -23.99,-4.87375 z m -9.99625,8.24625 7.31,-4.4975 c 7.49625,-4.935 16.8675,-3.31125 28.05125,4.9975 l 21.9875,16.30625 -25.73625,-14.55625 c -7.685,-7.31 -16.11875,-8.06 -25.24,-2.25 l -40.79625,20.7425 -0.75,-2.49875 35.17375,-18.24375"
         inkscape:connector-curvature="0" />
      <path
         id="path86"
         style="fill:#999999;fill-opacity:1;fill-rule:nonzero;stroke:none"
         d="m 461.4216,301.18143 -7.31,4.4975 -35.17375,18.24375 0.75,2.49875 40.79625,-20.7425 c 9.12125,-5.81 17.555,-5.06 25.24,2.25 l 25.73625,14.55625 -21.9875,-16.30625 c -11.18375,-8.30875 -20.555,-9.9325 -28.05125,-4.9975"
         inkscape:connector-curvature="0" />
      <path
         id="path88"
         style="fill:#000000;fill-opacity:1;fill-rule:nonzero;stroke:none"
         d="m 482.66285,321.42268 -11.245,8.4975 -54.35375,11.8075 c -0.8125,2.49875 -1.3125,4.935 -1.62375,7.30875 l 21.74125,-5.4975 23.6775,2.99875 17.68,-9.37125 33.54625,3.56125 11.25,86.715 c -5.375,2.0625 -11.25,3.24875 -17.5625,3.68625 -3.425,5.935 -5.3625,12.245 -5.925,18.8675 l 19.55,1.625 0,-4.31125 3,3.18625 c 7.4375,2.56125 15.425,3.62375 23.8625,3.06125 3.4375,-0.1875 6.875,-0.6875 10.375,-1.37375 0.75,-4.99875 -2.6875,-8.3725 -10.375,-10.18375 -1.875,-0.4375 -4,-0.75 -6.375,-1 l -14.1125,-14.55625 c 4.25,-1.875 8.1875,-4.31125 11.8,-7.2475 l -10.6125,-65.59875 c 3.5,1.62375 6.625,1.62375 9.3625,0 12.25,8.06 22.8125,8.06 31.675,0 6.25,-8.12125 4.4375,-13.12 -5.3625,-14.99375 l -14.8125,0 c -5.4375,-2.99875 -11.5625,-5.06125 -18.425,-6.1225 -0.875,2.93625 -2.5625,4.685 -5,5.2475 -2.8125,0.5625 -6.625,-0.3125 -11.4375,-2.74875 l -30.2975,0 0,-13.5575"
         inkscape:connector-curvature="0" />
      <path
         id="path90"
         style="fill:#333333;fill-opacity:1;fill-rule:nonzero;stroke:none"
         d="m 460.8591,346.53768 23.6775,2.99875 1.875,6.4975 1.74875,6.435 6.1875,22.36625 8.8125,46.41875 c 0.875,-0.0625 1.7375,-0.0625 2.6125,-0.125 6.3125,-0.43625 12.1875,-1.62375 17.5625,-3.68625 l -11.25,-86.715 -33.54625,-3.56125 -17.68,9.37125 z m 26.3025,1.125 3.4975,0 18.42625,80.3425 -3.8125,0 -5.3625,-25.73875 -12.74875,-54.60375"
         inkscape:connector-curvature="0" />
      <path
         id="path92"
         style="fill:#999999;fill-opacity:1;fill-rule:nonzero;stroke:none"
         d="m 490.6591,347.66268 -3.4975,0 12.74875,54.60375 5.3625,25.73875 3.8125,0 -18.42625,-80.3425"
         inkscape:connector-curvature="0" />
      <path
         id="path94"
         style="fill:#4b0101;fill-opacity:1;fill-rule:nonzero;stroke:none"
         d="m 484.5366,349.53643 -23.6775,-2.99875 -23.6775,-2.99875 -21.74125,5.4975 c -0.25,1.9375 -0.3125,3.74875 -0.25,5.56125 l 21.11625,-6.9975 50.105,8.43375 -1.875,-6.4975"
         inkscape:connector-curvature="0" />
      <path
         id="path96"
         style="fill:#c10202;fill-opacity:1;fill-rule:nonzero;stroke:none"
         d="m 429.4341,316.61268 2.37375,-1.1875 -1.49875,-1.87375 -13.9325,-17.8675 c -1.43625,2.43625 -2.87375,4.685 -4.31125,6.81 l 17.36875,14.11875"
         inkscape:connector-curvature="0" />
      <path
         id="path98"
         style="fill:#333333;fill-opacity:1;fill-rule:nonzero;stroke:none"
         d="m 437.5566,310.24018 -8.2475,-12.4325 -10.62125,-9.24625 -3.31,4.3725 c 0.37375,0.875 0.68625,1.8125 0.99875,2.75 l 13.9325,17.8675 7.2475,-3.31125"
         inkscape:connector-curvature="0" />
      <path
         id="path100"
         style="fill:#e1e1e1;fill-opacity:1;fill-rule:nonzero;stroke:none"
         d="m 421.68785,320.54893 7.74625,-3.93625 -17.36875,-14.11875 c 4.81125,6.55875 8.06,12.61875 9.6225,18.055"
         inkscape:connector-curvature="0" />
      <path
         id="path102"
         style="fill:#000000;fill-opacity:1;fill-rule:nonzero;stroke:none"
         d="m 416.3766,295.68393 c -0.3125,-0.9375 -0.62375,-1.875 -0.99875,-2.75 -0.875,-1.99875 -2.0625,-3.81 -3.56125,-5.4975 l -27.74,26.49 c -7.93375,2.18625 -15.49375,1.43625 -22.74,-2.24875 2.56125,3.185 5.435,6.06 8.62125,8.49625 11.05875,-3.43625 21.05375,-4.68625 30.05,-3.81125 3.62375,-3.31125 7.06,-7.1225 10.30875,-11.43375 l 3.81125,9.3725 -2.62375,5.31 c 1.93625,1.0625 3.43625,2.31125 4.6225,3.68625 l 5.56125,-2.74875 c -1.5625,-5.43625 -4.81125,-11.49625 -9.62125,-18.05625 1.43625,-2.12375 2.87375,-4.3725 4.31,-6.80875"
         inkscape:connector-curvature="0" />
      <path
         id="path104"
         style="fill:#fc2525;fill-opacity:1;fill-rule:nonzero;stroke:none"
         d="m 407.81785,317.80018 c -2.56125,-0.6875 -5.1225,-1.125 -7.81,-1.4375 -8.99625,-0.875 -18.99125,0.375 -30.05,3.81125 -4.12375,1.24875 -8.37125,2.81125 -12.745,4.6225 -1.43625,0.625 -2.93625,1.25 -4.435,1.9375 -2.6875,1.49875 -3.24875,4.185 -1.5625,8.12125 l 29.92625,-11.245 c 7.37125,-2.5625 14.30625,-2.93625 20.86625,-1.125 l 3.31125,1.6875 c 0.3125,0.0625 0.5625,0.1875 0.87375,0.3125 1.375,0.56125 2.4375,1.43625 3.1875,2.56 1.06125,1.625 1.43625,3.74875 1.12375,6.31 -0.8125,3.99875 -1.37375,7.685 -1.74875,10.99625 -0.3125,2.56125 -0.4375,4.935 -0.5,7.1225 -0.0625,2.49875 0.125,4.7475 0.4375,6.7475 0.375,2.43625 0.99875,4.4975 1.81125,6.31 3.18625,2.12375 5.18625,1.31125 5.9975,-2.37375 -0.1875,-0.5 -0.3125,-1 -0.4375,-1.5 l -1.68625,4.185 c -2.37375,-7.05875 -2.43625,-15.24375 -0.1875,-24.61375 0.0625,-0.1875 0.125,-0.4375 0.1875,-0.625 2.06125,-5.31125 2.87375,-10.49625 2.49875,-15.43125 -0.25,-0.3125 -0.5,-0.5625 -0.75,-0.875 -1.18625,-1.375 -2.68625,-2.62375 -4.6225,-3.68625 -1.0625,-0.6875 -2.31125,-1.24875 -3.68625,-1.81125 z m 8.18375,6.435 c -7.30875,-2.3125 -14.55625,-3.62375 -21.80375,-4.06125 -7.55875,-0.5625 -14.99375,0.375 -22.30375,2.93625 -8.05875,2.24875 -14.74375,5.1225 -20.05375,8.62125 l 1.37375,-4.06125 18.8675,-6.87125 c 8.185,-2.43625 16.86875,-3.68625 25.99,-3.62375 7.435,0.375 13.37,2.74875 17.93,7.06"
         inkscape:connector-curvature="0" />
      <path
         id="path106"
         style="fill:#fd6868;fill-opacity:1;fill-rule:nonzero;stroke:none"
         d="m 394.19785,320.17393 c 7.2475,0.4375 14.495,1.74875 21.80375,4.06125 -4.56,-4.31125 -10.495,-6.685 -17.93,-7.06 -9.12125,-0.0625 -17.805,1.18625 -25.99,3.6225 l -18.86625,6.8725 -1.375,4.06125 c 5.31,-3.49875 11.995,-6.3725 20.05375,-8.62125 7.31,-2.56125 14.745,-3.49875 22.30375,-2.93625"
         inkscape:connector-curvature="0" />
      <path
         id="path108"
         style="fill:#333333;fill-opacity:1;fill-rule:nonzero;stroke:none"
         d="m 400.00785,316.36268 c 2.6875,0.3125 5.24875,0.75 7.81,1.4375 1.375,0.56125 2.62375,1.12375 3.68625,1.81125 l 2.62375,-5.31 -3.81125,-9.3725 c -3.24875,4.31125 -6.685,8.1225 -10.30875,11.43375"
         inkscape:connector-curvature="0" />
      <path
         id="path110"
         style="fill:#000000;fill-opacity:1;fill-rule:nonzero;stroke:none"
         d="m 409.38035,327.04518 c -0.75,-1.12375 -1.8125,-1.99875 -3.1875,-2.56 -4.1225,9.87 -10.6825,16.805 -19.61625,20.74125 0.5625,1.1875 0.99875,2.37375 1.43625,3.62375 9.93375,-0.0625 17.05625,-7.31 21.3675,-21.805"
         inkscape:connector-curvature="0" />
      <path
         id="path112"
         style="fill:#333333;fill-opacity:1;fill-rule:nonzero;stroke:none"
         d="m 410.5041,333.35518 c 0.3125,-2.56125 -0.0625,-4.685 -1.12375,-6.31 -4.31125,14.495 -11.43375,21.7425 -21.3675,21.805 0.5625,1.93625 1.3125,3.56125 2.31125,4.7475 l 18.43125,-9.24625 c 0.375,-3.31125 0.93625,-6.9975 1.74875,-10.99625"
         inkscape:connector-curvature="0" />
      <path
         id="path114"
         style="fill:#333333;fill-opacity:1;fill-rule:nonzero;stroke:none"
         d="m 406.19285,324.48393 c -0.31125,-0.12375 -0.56125,-0.24875 -0.87375,-0.31125 -3.93625,-1.3125 -9.99625,-1 -18.305,0.99875 l -13.245,4.74875 c 5.935,4.56 10.245,9.62125 12.8075,15.30625 8.93375,-3.93625 15.49375,-10.87125 19.61625,-20.7425 z m -18.61625,17.49375 -8.6225,-11.9325 2.93625,-1.625 8.62125,10.80875 -2.935,2.74875"
         inkscape:connector-curvature="0" />
      <path
         id="path116"
         style="fill:#999999;fill-opacity:1;fill-rule:nonzero;stroke:none"
         d="m 378.9541,330.04518 8.62125,11.9325 2.93625,-2.74875 -8.62125,-10.80875 -2.93625,1.625"
         inkscape:connector-curvature="0" />
      <path
         id="path118"
         style="fill:#860202;fill-opacity:1;fill-rule:nonzero;stroke:none"
         d="m 415.44035,349.03643 c 0.31125,-2.37375 0.81125,-4.81 1.62375,-7.30875 0.3125,-1 0.625,-1.99875 0.99875,-2.93625 2.0625,-5.87375 1.6875,-10.74625 -1.18625,-14.61875 0.375,4.935 -0.4375,10.12 -2.49875,15.43125 -0.0625,0.1875 -0.125,0.4375 -0.1875,0.62375 -2.25,9.37125 -2.1875,17.55625 0.1875,24.615 l 1.68625,-4.185 c 0.125,0.5 0.25,1 0.4375,1.49875 5.685,-2.37375 12.3075,-4.2475 19.805,-5.685 l 0,-8.87125 -21.11625,6.9975 c -0.0625,-1.8125 0,-3.62375 0.25,-5.56125"
         inkscape:connector-curvature="0" />
      <path
         id="path120"
         style="fill:#000000;fill-opacity:1;fill-rule:nonzero;stroke:none"
         d="m 408.25535,351.47393 c 0.0625,-2.1875 0.1875,-4.56125 0.5,-7.1225 l -18.43125,9.24625 c 1.3125,1.62375 3.0625,2.49875 5.18625,2.68625 0.99875,-0.5 2.06125,-1 3.18625,-1.4375 l 9.55875,-3.3725"
         inkscape:connector-curvature="0" />
      <path
         id="path122"
         style="fill:#860202;fill-opacity:1;fill-rule:nonzero;stroke:none"
         d="m 405.3191,324.17268 -3.31125,-1.6875 c -6.56,-1.81125 -13.495,-1.4375 -20.86625,1.125 l -29.92625,11.245 c 1.6875,1.1875 3.49875,1.625 5.4975,1.3125 l 6.685,24.0525 c 2.99875,13.3075 9.12125,19.305 18.43,18.1175 3.06125,-0.4375 6.4975,-1.62375 10.24625,-3.62375 l 18.43,-10.1825 c -0.8125,-1.8125 -1.43625,-3.87375 -1.81125,-6.31 l -18.49375,8.30875 c -3.435,2.12375 -6.55875,3.37375 -9.3075,3.81125 -6.43625,0.93625 -10.68375,-2.93625 -12.8075,-11.68375 l -7.6225,-23.99 13.3075,-4.7475 13.245,-4.74875 c 8.30875,-1.99875 14.36875,-2.31125 18.305,-0.99875"
         inkscape:connector-curvature="0" />
      <path
         id="path124"
         style="fill:#4b0101;fill-opacity:1;fill-rule:nonzero;stroke:none"
         d="m 398.6966,354.84643 c -1.125,0.4375 -2.1875,0.9375 -3.18625,1.4375 -7.80875,3.68625 -12.6825,8.37125 -14.61875,14.0575 2.74875,-0.4375 5.8725,-1.6875 9.3075,-3.81125 l 18.49375,-8.30875 c -0.3125,-2 -0.5,-4.24875 -0.4375,-6.7475 l -9.55875,3.3725"
         inkscape:connector-curvature="0" />
      <path
         id="path126"
         style="fill:#320101;fill-opacity:1;fill-rule:nonzero;stroke:none"
         d="m 416.5016,362.15643 c -0.8125,3.68625 -2.81125,4.49875 -5.9975,2.375 l -18.43,10.1825 c -3.74875,2 -7.185,3.18625 -10.24625,3.62375 12.37,1 24.24,1.5 35.54875,1.5625 l 29.55,-12.12 18.11875,2.43625 0,4.685 23.115,-12.4325 -51.85375,-5.9975 c -7.4975,1.4375 -14.12,3.31125 -19.805,5.685"
         inkscape:connector-curvature="0" />
      <path
         id="path128"
         style="fill:#000000;fill-opacity:1;fill-rule:nonzero;stroke:none"
         d="m 427.74785,387.39643 5.6225,0 0,32.55 54.16625,10.55875 -6.49875,3.56 -3.3725,-0.4375 c -0.0625,0.4375 -0.125,0.8125 -0.125,1.25 0,2.12375 0.74875,3.93625 2.31125,5.435 1.49875,1.5625 3.31125,2.3125 5.4975,2.3125 2.125,0 3.93625,-0.75 5.3725,-2.3125 1.5625,-1.49875 2.31375,-3.31125 2.31375,-5.435 0,-2.12375 -0.75125,-3.93625 -2.31375,-5.4975 -0.125,-0.125 -0.25,-0.25 -0.4375,-0.375 l 2.75125,-1.5625 -55.85375,-9.4325 -0.125,-30.61375 9.245,0 18.74375,-12.495 -18.11875,-0.125 -29.925,12.62 10.74625,0"
         inkscape:connector-curvature="0" />
      <path
         id="path130"
         style="fill:#333333;fill-opacity:1;fill-rule:nonzero;stroke:none"
         d="m 433.37035,387.39643 -5.6225,0 0,31.2375 -48.29375,7.56 0.0625,0.25 3.49875,2.37375 28.05125,-4.6225 -4.87375,3.2475 1.125,-0.1875 -21.86625,7.185 -5.685,1.875 1.3125,1.93625 0.3125,0.4375 0.0625,0 0.99875,1.43625 42.17,-15.36875 4.37375,3.37375 15.99375,10.18375 3.24875,2.06125 5.1225,0 -17.055,-15.11875 10.3075,4.12375 31.05125,4.2475 3.3725,0.4375 6.49875,-3.56 -54.16625,-10.55875 0,-32.55"
         inkscape:connector-curvature="0" />
      <path
         id="path132"
         style="fill:#333333;fill-opacity:1;fill-rule:nonzero;stroke:none"
         d="m 417.3766,379.90018 -0.375,7.49625 29.925,-12.62 18.11875,0.125 0,-4.685 -18.11875,-2.43625 -29.55,12.12"
         inkscape:connector-curvature="0" />
      <path
         id="path134"
         style="fill:#c10202;fill-opacity:1;fill-rule:nonzero;stroke:none"
         d="m 488.16035,362.46893 -1.74875,-6.435 -50.105,-8.43375 0,8.87125 51.85375,5.9975"
         inkscape:connector-curvature="0" />
      <path
         id="path136"
         style="fill:#000000;fill-opacity:1;fill-rule:nonzero;stroke:none"
         d="m 448.2391,440.37518 -3.24875,-2.06125 c -0.3125,0.1875 -0.5625,0.4375 -0.8125,0.6875 -1.49875,1.49875 -2.24875,3.31125 -2.24875,5.4975 0,2.12375 0.75,3.93625 2.24875,5.435 1.5,1.5 3.31125,2.25 5.49875,2.25 2.12375,0 3.935,-0.75 5.435,-2.25 1.49875,-1.49875 2.24875,-3.31125 2.24875,-5.435 0,-1.5625 -0.375,-2.93625 -1.125,-4.12375 l 5.24875,0 -14.87,-10.995 -10.3075,-4.12375 17.055,15.11875 -5.1225,0"
         inkscape:connector-curvature="0" />
      <path
         id="path138"
         style="fill:#000000;fill-opacity:1;fill-rule:nonzero;stroke:none"
         d="m 428.9966,428.13018 -4.37375,-3.37375 -42.17,15.36875 -1,-1.43625 -0.43625,0.3125 c -0.6875,0.68625 -1.1875,1.37375 -1.5625,2.18625 -0.4375,1 -0.6875,2.12375 -0.6875,3.31125 0,2.12375 0.75,3.93625 2.25,5.435 1.56125,1.5 3.3725,2.25 5.4975,2.25 2.12375,0 3.935,-0.75 5.435,-2.25 1.5625,-1.49875 2.31125,-3.31125 2.31125,-5.435 0,-1.5625 -0.375,-2.93625 -1.12375,-4.12375 -0.125,-0.1875 -0.25,-0.375 -0.4375,-0.5625 l 36.2975,-11.6825"
         inkscape:connector-curvature="0" />
      <path
         id="path140"
         style="fill:#000000;fill-opacity:1;fill-rule:nonzero;stroke:none"
         d="m 406.19285,427.44268 4.87375,-3.2475 -28.05125,4.6225 -3.49875,-2.37375 c -1.25,0.0625 -2.37375,0.49875 -3.37375,1.18625 -0.0625,0.0625 -0.1875,0.1875 -0.3125,0.3125 -0.0625,0.0625 -0.1875,0.1875 -0.3125,0.25 -1.125,1.1875 -1.68625,2.56125 -1.68625,4.18625 0,1.68625 0.56125,3.06125 1.68625,4.2475 1.1875,1.1875 2.62375,1.75 4.24875,1.75 0.4375,0 0.875,-0.0625 1.3125,-0.125 l -1.3125,-1.93625 5.685,-1.875 c 0.1875,-0.625 0.3125,-1.3125 0.3125,-2.06125 0,-0.6875 -0.125,-1.375 -0.3125,-1.93625 l 0.3125,0.18625 20.42875,-3.18625"
         inkscape:connector-curvature="0" />
      <path
         id="path142"
         style="fill:#333333;fill-opacity:1;fill-rule:nonzero;stroke:none"
         d="m 368.45785,224.27393 4.31125,-2.56125 c 1.24875,-1.31125 3.12375,-1.74875 5.56,-1.24875 l 12.4325,-2 -5.31,-6.74625 c -13.37,-2.3125 -21.11625,1.12375 -23.24125,10.3075 -0.62375,4.31125 -0.0625,9.49625 1.625,15.43125 0.25,-0.75 0.875,-0.8125 1.87375,-0.1875 l 2.74875,-8.93375 0,-4.06125 z m 14.62,-11.9325 c -11.05875,0.75 -17.05625,4.43625 -17.8675,11.12125 l -1.5,9.80875 c -1.3125,-3.74875 -1.3125,-7.4975 0,-11.30875 1.125,-7.3725 7.56,-10.5575 19.3675,-9.62125"
         inkscape:connector-curvature="0" />
      <path
         id="path144"
         style="fill:#999999;fill-opacity:1;fill-rule:nonzero;stroke:none"
         d="m 365.21035,223.46268 c 0.81125,-6.685 6.80875,-10.37125 17.8675,-11.12125 -11.8075,-0.93625 -18.2425,2.25 -19.3675,9.62125 -1.3125,3.81125 -1.3125,7.56 0,11.30875 l 1.5,-9.80875"
         inkscape:connector-curvature="0" />
      <path
         id="path146"
         style="fill:#000000;fill-opacity:1;fill-rule:nonzero;stroke:none"
         d="m 372.7691,221.71268 -4.31125,2.5625 0,4.06 -2.74875,8.93375 c 0.75,0.4375 1.6875,1.3125 2.81125,2.5625 l 3,-7.1225 0,-8.80875 c 0.31125,-0.9375 0.74875,-1.625 1.24875,-2.1875"
         inkscape:connector-curvature="0" />
      <path
         id="path148"
         style="fill:#dca56d;fill-opacity:1;fill-rule:nonzero;stroke:none"
         d="m 369.64535,258.94768 c 0.375,0 0.75,0 1.125,0.0625 l 0.1875,-7.43375 -1.3125,-0.875 0,8.24625"
         inkscape:connector-curvature="0" />
      <path
         id="path150"
         style="fill:#e1e1e1;fill-opacity:1;fill-rule:nonzero;stroke:none"
         d="m 370.77035,259.01018 c -0.375,-0.0625 -0.75,-0.0625 -1.125,-0.0625 l -1.5625,0 0,3.62375 c 0.9375,0.25 1.8125,0.5 2.6875,0.8125 l 0,-4.37375"
         inkscape:connector-curvature="0" />
      <path
         id="path152"
         style="fill:#f3ddcf;fill-opacity:1;fill-rule:nonzero;stroke:none"
         d="m 372.5191,259.13518 -0.1875,-6.56 -1.37375,-0.99875 -0.1875,7.43375 c 0.5625,0.0625 1.18625,0.0625 1.74875,0.125"
         inkscape:connector-curvature="0" />
      <path
         id="path154"
         style="fill:#dca56d;fill-opacity:1;fill-rule:nonzero;stroke:none"
         d="m 372.3316,252.57518 0.1875,6.56 c 0.4375,0.0625 0.8125,0.0625 1.1875,0.125 2.81125,0.3125 5.56,0.75 8.24625,1.375 2.31125,0.5625 4.49875,1.25 6.6225,2.06125 l 1.25,-1.06125 -7.935,-2.4375 -9.55875,-6.6225"
         inkscape:connector-curvature="0" />
      <path
         id="path156"
         style="fill:#ffffff;fill-opacity:1;fill-rule:nonzero;stroke:none"
         d="m 372.5191,259.13518 c -0.5625,-0.0625 -1.18625,-0.0625 -1.74875,-0.125 l 0,4.37375 c 1.18625,0.3125 2.31125,0.6875 3.37375,1.0625 l -0.4375,-5.18625 c -0.375,-0.0625 -0.75,-0.0625 -1.1875,-0.125"
         inkscape:connector-curvature="0" />
      <path
         id="path158"
         style="fill:#000000;fill-opacity:1;fill-rule:nonzero;stroke:none"
         d="m 366.0841,263.82143 c -0.375,0.1875 -0.74875,0.4375 -1.06125,0.625 l 11.87,13.11875 4.8725,-1.06125 -1.62375,3.37375 12.1825,6.185 -8.1225,6.685 c -7.55875,-10.43375 -17.43,-16.74375 -29.55,-18.9925 18.305,8.43375 24.49,18.18 18.555,29.175 l 21.99125,-16.9925 c -2.31125,-1.5625 -3.99875,-2.4375 -4.99875,-2.625 -0.81125,-0.1875 -3.185,-1.56125 -7.12125,-4.2475 l 2.37375,-3.81125 -7.685,0 c -4.1225,-3.18625 -7.99625,-6.99625 -11.6825,-11.4325"
         inkscape:connector-curvature="0" />
      <path
         id="path160"
         style="fill:#860202;fill-opacity:1;fill-rule:nonzero;stroke:none"
         d="m 365.02285,264.44643 c 0.3125,-0.1875 0.68625,-0.4375 1.06125,-0.625 0.625,-0.4375 1.3125,-0.8125 1.99875,-1.25 l -35.36,2.99875 c 5.8725,0.8125 12.0575,9.37125 18.555,25.6775 -1.3125,-6.685 -0.1875,-12.495 3.37375,-17.4925 2.68625,-3.56125 6.185,-6.6225 10.37125,-9.30875"
         inkscape:connector-curvature="0" />
      <path
         id="path162"
         style="fill:#333333;fill-opacity:1;fill-rule:nonzero;stroke:none"
         d="m 365.02285,264.44643 c -4.18625,2.68625 -7.685,5.7475 -10.37125,9.30875 12.12,2.24875 21.99125,8.55875 29.55,18.9925 l 8.1225,-6.685 -12.1825,-6.185 1.62375,-3.37375 -4.8725,1.06125 -11.87,-13.11875 z m 1.62375,2.56125 -7.49625,6.3725 -2.75,-0.5625 8.6225,-7.06 1.62375,1.25"
         inkscape:connector-curvature="0" />
      <path
         id="path164"
         style="fill:#999999;fill-opacity:1;fill-rule:nonzero;stroke:none"
         d="m 359.15035,273.38018 7.49625,-6.3725 -1.62375,-1.25 -8.6225,7.06 2.75,0.5625"
         inkscape:connector-curvature="0" />
      <path
         id="path166"
         style="fill:#bbbbbb;fill-opacity:1;fill-rule:nonzero;stroke:none"
         d="m 391.5741,263.88393 c -1,-0.4375 -1.99875,-0.8125 -2.99875,-1.1875 l -2.49875,3.49875 -8.37125,-0.375 c 3.81,1.5625 7.24625,3.31125 10.3075,5.3725 l 2.37375,-3.3725 1.25,-1.75 1.25,-1.62375 c -0.4375,-0.1875 -0.875,-0.375 -1.3125,-0.5625"
         inkscape:connector-curvature="0" />
      <path
         id="path168"
         style="fill:#e1e1e1;fill-opacity:1;fill-rule:nonzero;stroke:none"
         d="m 388.57535,262.69643 c -2.12375,-0.81125 -4.31125,-1.49875 -6.6225,-2.06125 -2.68625,-0.625 -5.435,-1.0625 -8.24625,-1.375 l 0.43625,5.18625 c 1.1875,0.43625 2.375,0.93625 3.56125,1.37375 l 8.3725,0.375 2.49875,-3.49875"
         inkscape:connector-curvature="0" />
      <path
         id="path170"
         style="fill:#c10202;fill-opacity:1;fill-rule:nonzero;stroke:none"
         d="m 361.3366,311.67768 c -2.56125,-3.18625 -4.74875,-6.68625 -6.685,-10.62125 -1.68625,-3.43625 -2.81125,-6.7475 -3.37375,-9.80875 -6.4975,-16.30625 -12.6825,-24.865 -18.555,-25.6775 -5.1225,7.935 -1.62375,20.305 10.49625,37.1725 l 13.99375,22.05375 c 4.37375,-1.81125 8.62125,-3.37375 12.745,-4.6225 -3.18625,-2.43625 -6.06,-5.31125 -8.62125,-8.49625 z m -29.55125,-37.29875 2.31125,-6.18375 c 6.31,3.685 11.55875,12.0575 15.74375,25.23875 -6.37125,-13.18125 -12.36875,-19.49125 -18.055,-19.055"
         inkscape:connector-curvature="0" />
      <path
         id="path172"
         style="fill:#fc2525;fill-opacity:1;fill-rule:nonzero;stroke:none"
         d="m 334.0966,268.19393 -2.31125,6.185 c 5.685,-0.43625 11.68375,5.87375 18.055,19.055 -4.185,-13.18125 -9.43375,-21.55375 -15.74375,-25.24"
         inkscape:connector-curvature="0" />
      <path
         id="path174"
         style="fill:#860202;fill-opacity:1;fill-rule:nonzero;stroke:none"
         d="m 352.77785,326.73268 c 1.49875,-0.68625 2.99875,-1.31125 4.435,-1.93625 L 343.2191,302.74268 c -12.12,-16.8675 -15.61875,-29.2375 -10.49625,-37.1725 -9.62125,4.18625 -9.62125,15.36875 0,33.42375 l 20.055,27.73875"
         inkscape:connector-curvature="0" />
      <path
         id="path176"
         style="fill:#c10202;fill-opacity:1;fill-rule:nonzero;stroke:none"
         d="m 388.01285,348.84893 c -0.4375,-1.24875 -0.87375,-2.43625 -1.43625,-3.6225 -2.5625,-5.685 -6.8725,-10.74625 -12.8075,-15.30625 l -13.3075,4.7475 7.62125,23.99 c 2.125,8.7475 6.3725,12.62 12.80875,11.68375 1.93625,-5.685 6.80875,-10.37125 14.61875,-14.0575 -2.12375,-0.1875 -3.87375,-1.0625 -5.18625,-2.68625 -0.99875,-1.18625 -1.74875,-2.81125 -2.31125,-4.74875"
         inkscape:connector-curvature="0" />
    </g>
  </g>
</svg>
