<?xml version="1.0" encoding="UTF-8" standalone="no"?>
<!-- Created with Inkscape (http://www.inkscape.org/) -->

<svg
   xmlns:dc="http://purl.org/dc/elements/1.1/"
   xmlns:cc="http://creativecommons.org/ns#"
   xmlns:rdf="http://www.w3.org/1999/02/22-rdf-syntax-ns#"
   xmlns:svg="http://www.w3.org/2000/svg"
   xmlns="http://www.w3.org/2000/svg"
   xmlns:sodipodi="http://sodipodi.sourceforge.net/DTD/sodipodi-0.dtd"
   xmlns:inkscape="http://www.inkscape.org/namespaces/inkscape"
   width="150"
   height="150"
   id="svg4896"
   version="1.1"
   inkscape:version="0.48.5 r10040"
   sodipodi:docname="2.svg">
  <defs
     id="defs4898" />
  <sodipodi:namedview
     id="base"
     pagecolor="#ffffff"
     bordercolor="#666666"
     borderopacity="1.0"
     inkscape:pageopacity="0.0"
     inkscape:pageshadow="2"
     inkscape:zoom="1.4"
     inkscape:cx="178.35621"
     inkscape:cy="118.68864"
     inkscape:document-units="px"
     inkscape:current-layer="layer1"
     showgrid="false"
     fit-margin-top="0"
     fit-margin-left="0"
     fit-margin-right="0"
     fit-margin-bottom="0"
     inkscape:window-width="1440"
     inkscape:window-height="878"
     inkscape:window-x="0"
     inkscape:window-y="0"
     inkscape:window-maximized="1" />
  <metadata
     id="metadata4901">
    <rdf:RDF>
      <cc:Work
         rdf:about="">
        <dc:format>image/svg+xml</dc:format>
        <dc:type
           rdf:resource="http://purl.org/dc/dcmitype/StillImage" />
        <dc:title />
      </cc:Work>
    </rdf:RDF>
  </metadata>
  <g
     inkscape:label="Layer 1"
     inkscape:groupmode="layer"
     id="layer1"
     transform="translate(-164.34571,-274.85082)">
    <g
       id="g3071"
       transform="matrix(0.49857859,0,0,0.49857859,82.406458,203.74358)">
      <path
         id="path610"
         style="fill:#1a1a1a;fill-opacity:1;fill-rule:nonzero;stroke:none"
         d="m 362.64196,242.17331 -2.6875,-0.9375 -15.3675,39.5475 0.125,2.37375 1.74875,0 16.18125,-40.98375"
         inkscape:connector-curvature="0" />
      <path
         id="path612"
         style="fill:#484848;fill-opacity:1;fill-rule:nonzero;stroke:none"
         d="m 344.71196,283.15706 -0.125,-2.37375 -58.4775,0 0,2.37375 58.6025,0"
         inkscape:connector-curvature="0" />
      <path
         id="path614"
         style="fill:#c10202;fill-opacity:1;fill-rule:nonzero;stroke:none"
         d="m 346.46071,283.15706 -68.3475,0 0,7.1225 c 1,0 1.99875,0 3.06125,0 l 4.4975,0 174.11875,-3.06125 2.56125,-4.06125 -115.89125,0 z m -66.91125,5.18625 0,-3.99875 170.1825,0 -170.1825,3.99875"
         inkscape:connector-curvature="0" />
      <path
         id="path616"
         style="fill:#fb1515;fill-opacity:1;fill-rule:nonzero;stroke:none"
         d="m 279.54946,284.34456 0,3.99875 170.1825,-3.99875 -170.1825,0"
         inkscape:connector-curvature="0" />
      <path
         id="path618"
         style="fill:#dca56d;fill-opacity:1;fill-rule:nonzero;stroke:none"
         d="m 337.08946,272.78581 -1.56125,-2.12375 -11.49625,-3.37375 -0.1875,0 -6.93375,-2.43625 -11.12125,5.56 0,3.24875 -0.125,2.68625 c 4.18625,0 8.18375,-1.37375 12.0575,-4.1225 l 16.61875,6.99625 c 0.4375,-0.1875 0.75,-0.37375 1,-0.68625 l -2.8125,-1.5 -13.05625,-5.8725 16.68,5.81 0.875,0 0.0625,-2.12375 -16.55625,-5.62375 16.55625,4.62375 0,-1.0625 z m -14.61875,-4.685 -5.7475,0 -10.12125,3.18625 10.30875,-5.2475 5.56,2.06125"
         inkscape:connector-curvature="0" />
      <path
         id="path620"
         style="fill:#f3ddcf;fill-opacity:1;fill-rule:nonzero;stroke:none"
         d="m 316.72321,268.10081 5.7475,0 -5.56,-2.06125 -10.30875,5.2475 10.12125,-3.18625"
         inkscape:connector-curvature="0" />
      <path
         id="path622"
         style="fill:#a56e44;fill-opacity:1;fill-rule:nonzero;stroke:none"
         d="m 335.52821,270.66206 1.56125,2.125 c 0.5625,0.18625 1.12375,0.31125 1.62375,0.31125 l -3.185,-4.06 -9.2475,-1.75 -2.24875,0 11.49625,3.37375"
         inkscape:connector-curvature="0" />
      <path
         id="path624"
         style="fill:#dca56d;fill-opacity:1;fill-rule:nonzero;stroke:none"
         d="m 335.52821,269.03706 3.185,4.06125 c 0.6875,-0.0625 1.3125,-0.25 1.875,-0.62375 l -5.8725,-5.18625 -8.435,0 9.2475,1.74875"
         inkscape:connector-curvature="0" />
      <path
         id="path626"
         style="fill:#a56e44;fill-opacity:1;fill-rule:nonzero;stroke:none"
         d="m 332.52821,277.03456 3.62375,-0.0625 -16.68,-5.81 13.05625,5.8725"
         inkscape:connector-curvature="0" />
      <path
         id="path628"
         style="fill:#a56e44;fill-opacity:1;fill-rule:nonzero;stroke:none"
         d="m 337.08946,274.84831 0,-1 -16.55625,-4.62375 16.55625,5.62375"
         inkscape:connector-curvature="0" />
      <path
         id="path630"
         style="fill:#a56e44;fill-opacity:1;fill-rule:nonzero;stroke:none"
         d="m 328.53071,278.53456 c 2.56125,0.87375 4.4975,1.12375 5.81,0.68625 l -16.61875,-6.99625 c -3.87375,2.74875 -7.87125,4.1225 -12.0575,4.1225 l 0,0.1875 -0.0625,4.24875 6.8725,0 c 2.87375,-0.6875 5.3725,-2.56125 7.43375,-5.6225 l 8.6225,3.37375"
         inkscape:connector-curvature="0" />
      <path
         id="path632"
         style="fill:#000000;fill-opacity:1;fill-rule:nonzero;stroke:none"
         d="m 327.71821,303.64831 c -1.9375,-4.935 -5.31,-9.4325 -10.18375,-13.36875 l -17.1175,0 0,3.93625 11.87,2.43625 24.49,52.04125 c -1.74875,1.125 -3.62375,2.125 -5.56,3.06125 l 12.0575,-2.37375 11.245,17.93 c -3.435,3.68625 -8.80875,4.24875 -15.99375,1.625 -0.81125,1.74875 -1.37375,3.81125 -1.74875,6.1225 l -8.80875,-21.86625 c -3.74875,1.43625 -7.8725,2.49875 -12.3075,3.18625 l -15.24375,-24.74125 0,10.87125 12.1825,19.055 10.87,0 8.37125,21.55375 c 1.5625,-0.9375 3.0625,-1.99875 4.49875,-3.06125 -0.0625,1.74875 0,3.62375 0.125,5.56 l 15.24375,0 0,-3.43625 20.3675,0 c 6.7475,-1.18625 12.87,-3.81 18.43,-7.80875 -0.0625,-3.31125 -2.93625,-5.6225 -8.6225,-6.81 l -13.61875,0 -10.49625,-6.2475 -14.24375,-18.305 c 1.4375,-1.4375 2.74875,-2.99875 3.93625,-4.685 -7.6225,-10.68375 -14.1825,-22.24125 -19.7425,-34.675"
         inkscape:connector-curvature="0" />
      <path
         id="path634"
         style="fill:#333333;fill-opacity:1;fill-rule:nonzero;stroke:none"
         d="m 315.66071,356.37831 c 4.435,-0.6875 8.55875,-1.75 12.3075,-3.18625 1.125,-0.4375 2.18625,-0.9375 3.24875,-1.4375 1.93625,-0.93625 3.81125,-1.93625 5.56,-3.06125 l -24.49,-52.04125 -11.87,-2.43625 0,37.42125 15.24375,24.74125 z m 4.31,-3.74875 -3.81,0.81125 -12.995,-22.99 -1.0625,-7.31 17.8675,29.48875"
         inkscape:connector-curvature="0" />
      <path
         id="path636"
         style="fill:#999999;fill-opacity:1;fill-rule:nonzero;stroke:none"
         d="m 316.16071,353.44081 3.81,-0.81125 -17.8675,-29.48875 1.0625,7.31 12.995,22.99"
         inkscape:connector-curvature="0" />
      <path
         id="path638"
         style="fill:#000000;fill-opacity:1;fill-rule:nonzero;stroke:none"
         d="m 329.09321,384.67956 c -3.81125,2.06125 -7.935,3.6225 -12.3075,4.81 l 0.125,2.06125 9.745,1.875 2.81125,9.12125 c -3.49875,1.18625 -6.99625,1.18625 -10.495,0 -0.5625,-0.1875 -1.1875,-0.4375 -1.75,-0.6875 l -0.0613,-1.56125 -2.4375,2.18625 0,17.055 14.3075,0 0,-4.185 9.1825,1.93625 2.6875,3.12375 c 10.6825,-0.1875 20.11625,-1.87375 28.30125,-5.06 -1.1875,-3.18625 -4.37375,-4.68625 -9.68375,-4.56125 -6.685,-0.5625 -11.995,-3.12375 -15.93125,-7.80875 -2.56125,-2.81125 -5.56125,-4.68625 -8.93375,-5.49875 l -5.56,-12.80625"
         inkscape:connector-curvature="0" />
      <path
         id="path640"
         style="fill:#333333;fill-opacity:1;fill-rule:nonzero;stroke:none"
         d="m 316.78571,389.48956 c 4.3725,-1.1875 8.49625,-2.74875 12.3075,-4.81 0.0625,-0.0625 0.0625,-0.0625 0.125,-0.0625 0.87375,-0.5 1.74875,-1 2.6225,-1.5 l -8.37125,-21.55375 -10.87,0 -12.1825,-19.055 0,11.37 5.06,16.05625 6.4975,20.6175 c 1.62375,-0.3125 3.24875,-0.625 4.81125,-1.0625 z m -14.9325,-35.79875 0,-4.31 15.12,36.5475 -4.06125,1.62375 -11.05875,-33.86125"
         inkscape:connector-curvature="0" />
      <path
         id="path642"
         style="fill:#999999;fill-opacity:1;fill-rule:nonzero;stroke:none"
         d="m 301.85321,349.38081 0,4.31 11.05875,33.86125 4.06125,-1.62375 -15.12,-36.5475"
         inkscape:connector-curvature="0" />
      <path
         id="path644"
         style="fill:#333333;fill-opacity:1;fill-rule:nonzero;stroke:none"
         d="m 338.52571,368.93581 c 7.185,2.62375 12.55875,2.06125 15.99375,-1.625 l -11.245,-17.93 -12.0575,2.37375 7.30875,17.18125"
         inkscape:connector-curvature="0" />
      <path
         id="path646"
         style="fill:#7d0202;fill-opacity:1;fill-rule:nonzero;stroke:none"
         d="m 445.17196,290.27956 19.05375,0 0,-7.1225 -1.87375,0 -2.56125,4.06125 -174.11875,3.06125 159.5,0"
         inkscape:connector-curvature="0" />
      <path
         id="path648"
         style="fill:#cccccc;fill-opacity:1;fill-rule:nonzero;stroke:none"
         d="m 445.17196,423.60081 1.24951,0 0,-133.32125 -1.24951,0 0,133.32125 z"
         inkscape:connector-curvature="0" />
      <path
         id="path650"
         style="fill:#ffffff;fill-opacity:1;fill-rule:nonzero;stroke:none"
         d="m 446.42071,423.60081 1.81152,0 0,-133.32125 -1.81152,0 0,133.32125 z"
         inkscape:connector-curvature="0" />
      <path
         id="path652"
         style="fill:#cccccc;fill-opacity:1;fill-rule:nonzero;stroke:none"
         d="m 448.23196,423.60081 3.68604,0 0,-133.32125 -3.68604,0 0,133.32125 z"
         inkscape:connector-curvature="0" />
      <path
         id="path654"
         style="fill:#999999;fill-opacity:1;fill-rule:nonzero;stroke:none"
         d="m 451.91821,423.60081 2.43653,0 0,-133.32125 -2.43653,0 0,133.32125 z"
         inkscape:connector-curvature="0" />
      <path
         id="path656"
         style="fill:#333333;fill-opacity:1;fill-rule:nonzero;stroke:none"
         d="m 329.46821,402.54706 -2.8125,-9.12125 -9.745,-1.875 0.25,8.7475 0.0625,1.56125 c 0.56125,0.25 1.18625,0.5 1.74875,0.6875 3.49875,1.18625 6.99625,1.18625 10.49625,0"
         inkscape:connector-curvature="0" />
      <path
         id="path658"
         style="fill:#333333;fill-opacity:1;fill-rule:nonzero;stroke:none"
         d="m 277.42571,171.88956 c -2.81125,-2.1875 -6.8725,-3.49875 -12.1825,-3.93625 -12.8075,-5.31 -20.61625,-1.68625 -23.49125,10.93375 -3.81,7.93375 -3.81,15.49375 0,22.74 l 1.875,-1.56125 c 1.81125,-3.93625 2.18625,-7.9975 1.1875,-12.245 l 3.8725,-3.24875 c 0.0625,-0.0625 0.0625,-0.0625 0.125,-0.125 0.6875,-0.8125 1.5,-0.875 2.56125,-0.3125 l 5.43625,0 5.7475,-7.31 c 7.68375,0.1875 12.62,-1.5 14.86875,-4.935 z m -36.1725,25.55125 c -2.18625,-4.185 -1.8125,-10.0575 1.18625,-17.6175 1.0625,-5.06 3.12375,-8.55875 6.1225,-10.49625 4.18625,-3.6225 9.43375,-3.6225 15.86875,0 -5.935,-0.31125 -10.62125,0.5 -13.99375,2.5 -3.31125,2.43625 -5.4975,5.4975 -6.435,9.05875 -2.3125,5.56 -3.24875,11.0575 -2.74875,16.555"
         inkscape:connector-curvature="0" />
      <path
         id="path660"
         style="fill:#666666;fill-opacity:1;fill-rule:nonzero;stroke:none"
         d="m 242.43946,179.82331 c -2.99875,7.56 -3.3725,13.4325 -1.18625,17.6175 -0.5,-5.4975 0.43625,-10.995 2.74875,-16.555 0.9375,-3.56125 3.12375,-6.6225 6.435,-9.05875 3.3725,-2 8.05875,-2.81125 13.99375,-2.5 -6.435,-3.6225 -11.6825,-3.6225 -15.86875,0 -2.99875,1.9375 -5.06,5.43625 -6.1225,10.49625"
         inkscape:connector-curvature="0" />
      <path
         id="path662"
         style="fill:#000000;fill-opacity:1;fill-rule:nonzero;stroke:none"
         d="m 276.05071,179.07331 c 2.6875,-0.25 4.12375,-1.49875 4.31125,-3.81125 -0.75,-1.31125 -1.74875,-2.43625 -2.93625,-3.3725 -2.24875,3.435 -7.185,5.1225 -14.86875,4.935 l -5.7475,7.31 -5.43625,0 c 1.1875,0.6875 2.56125,2.18625 4.18625,4.6225 l 3.81125,0 5.3725,-8.05875 c 2.68625,-2.68625 6.4975,-3.24875 11.3075,-1.625"
         inkscape:connector-curvature="0" />
      <path
         id="path664"
         style="fill:#a56e44;fill-opacity:1;fill-rule:nonzero;stroke:none"
         d="m 278.11321,183.19706 -2.0625,-4.12375 c -4.81,-1.62375 -8.62125,-1.06125 -11.3075,1.625 l -5.3725,8.05875 2.12375,0.875 6.3725,-6.3725 c 2.37375,-2.68625 4.74875,-2.68625 7.06,0 l -1.93625,9.87125 1.62375,7.06 -4.18625,0 c -0.99875,6.87125 -4.4975,10.62 -10.495,11.245 -0.6875,-0.75 -1.375,-1.68625 -2,-2.81125 -4.685,-5.06125 -7.24625,-9.68375 -7.74625,-13.99375 l -1.4375,1.18625 7.6225,15.55625 -3.37375,3.68625 c 0.1875,0.25 0.4375,0.5 0.625,0.8125 0.93625,1.06125 1.74875,2.12375 2.56125,3.24875 l 4.935,-6.7475 c 2.1875,1.31125 4.87375,0.81125 7.935,-1.375 l 3.37375,-8.43375 3.81,0 c 1.0625,-2.81125 1.0625,-5.9975 0,-9.49625 l 1.875,-9.87125"
         inkscape:connector-curvature="0" />
      <path
         id="path666"
         style="fill:#dca56d;fill-opacity:1;fill-rule:nonzero;stroke:none"
         d="m 274.92696,183.25956 c -2.31125,-2.68625 -4.68625,-2.68625 -7.06,0 l -6.3725,6.3725 -2.12375,-0.875 -3.81125,0 c -1.625,-2.43625 -2.99875,-3.93625 -4.18625,-4.6225 -1.06125,-0.5625 -1.87375,-0.5 -2.56125,0.3125 -0.0625,0.0625 -0.0625,0.0625 -0.125,0.125 -0.0625,0.0625 -0.1875,0.1875 -0.25,0.37375 -1.18625,3.4375 -0.625,6.6225 1.75,9.68375 0.5,4.31125 3.06125,8.93375 7.74625,13.995 0.625,1.125 1.3125,2.06125 2,2.81125 5.9975,-0.625 9.49625,-4.37375 10.495,-11.245 l 4.18625,0 -1.62375,-7.06 1.93625,-9.87125 z m -24.3025,1.93625 c 1.06125,-0.37375 2.31125,0.8125 3.81,3.62375 -1.56125,-1.74875 -2.87375,-2.06125 -3.81,-0.99875 -1.3125,1.12375 -1.3125,3.12375 0,6.06 -2.8125,-4.56125 -2.8125,-7.435 0,-8.685"
         inkscape:connector-curvature="0" />
      <path
         id="path668"
         style="fill:#f3ddcf;fill-opacity:1;fill-rule:nonzero;stroke:none"
         d="m 254.43446,188.81956 c -1.49875,-2.81125 -2.74875,-3.9975 -3.81,-3.62375 -2.8125,1.25 -2.8125,4.12375 0,8.685 -1.3125,-2.93625 -1.3125,-4.93625 0,-6.06 0.93625,-1.0625 2.24875,-0.75 3.81,0.99875"
         inkscape:connector-curvature="0" />
      <path
         id="path670"
         style="fill:#000000;fill-opacity:1;fill-rule:nonzero;stroke:none"
         d="m 248.68696,184.57206 -3.8725,3.24875 c 0.99875,4.2475 0.62375,8.30875 -1.1875,12.245 l 5.1225,-4.24875 1.4375,-1.18625 c -2.375,-3.0625 -2.93625,-6.2475 -1.75,-9.685 0.0625,-0.18625 0.1875,-0.31125 0.25,-0.37375"
         inkscape:connector-curvature="0" />
      <path
         id="path672"
         style="fill:#dca56d;fill-opacity:1;fill-rule:nonzero;stroke:none"
         d="m 243.62696,200.06581 -1.875,1.56125 -0.93625,2.74875 c 0.375,0.25 0.74875,0.5 1.18625,0.75 1.1875,0.8125 2.3125,1.68625 3.43625,2.62375 2.68625,2.1875 5.24875,4.62375 7.56,7.31 l 3.37375,-3.68625 -7.6225,-15.55625 -5.1225,4.24875 z m -1.0625,1.87375 5.6225,-4.24875 0.125,1 -4.81,6.435 -1.625,-1.1875 0.6875,-1.99875"
         inkscape:connector-curvature="0" />
      <path
         id="path674"
         style="fill:#f3ddcf;fill-opacity:1;fill-rule:nonzero;stroke:none"
         d="m 248.18696,197.69081 -5.6225,4.24875 -0.6875,1.99875 1.625,1.1875 4.81,-6.435 -0.125,-1"
         inkscape:connector-curvature="0" />
      <path
         id="path676"
         style="fill:#e1e1e1;fill-opacity:1;fill-rule:nonzero;stroke:none"
         d="m 240.81571,204.37581 c -0.5625,-0.3125 -1.0625,-0.6875 -1.625,-1 l -0.93625,3.3125 c 0.6875,0.62375 1.43625,1.24875 2.12375,1.81125 l 1.62375,-3.37375 c -0.4375,-0.25 -0.81125,-0.5 -1.18625,-0.75"
         inkscape:connector-curvature="0" />
      <path
         id="path678"
         style="fill:#999999;fill-opacity:1;fill-rule:nonzero;stroke:none"
         d="m 256.18446,219.11956 c -0.8125,-1.12375 -1.625,-2.18625 -2.56125,-3.2475 l -1.75,4.56 c 1.5625,1.9375 2.93625,3.93625 4.18625,5.8725 l 3.49875,-2.12375 c -1.0625,-1.81125 -2.18625,-3.49875 -3.37375,-5.06125"
         inkscape:connector-curvature="0" />
      <path
         id="path680"
         style="fill:#e1e1e1;fill-opacity:1;fill-rule:nonzero;stroke:none"
         d="m 253.62321,215.87206 c -0.1875,-0.3125 -0.4375,-0.5625 -0.625,-0.8125 -2.31125,-2.68625 -4.87375,-5.1225 -7.56,-7.31 l -2.43625,3.12375 c 3.31125,3.18625 6.31,6.3725 8.87125,9.55875 l 1.75,-4.56"
         inkscape:connector-curvature="0" />
      <path
         id="path682"
         style="fill:#ffffff;fill-opacity:1;fill-rule:nonzero;stroke:none"
         d="m 240.37821,208.49956 c 0.875,0.8125 1.74875,1.5625 2.62375,2.37375 l 2.43625,-3.12375 c -1.12375,-0.93625 -2.24875,-1.81125 -3.43625,-2.62375 l -1.62375,3.37375"
         inkscape:connector-curvature="0" />
      <path
         id="path684"
         style="fill:#333333;fill-opacity:1;fill-rule:nonzero;stroke:none"
         d="m 243.00196,210.87331 c -0.875,-0.81125 -1.74875,-1.56125 -2.62375,-2.37375 -0.6875,-0.5625 -1.43625,-1.1875 -2.12375,-1.81125 -0.625,-0.5625 -1.25,-1.0625 -1.9375,-1.5625 l -3.18625,6.31 c 7.4975,6.81 13.6825,13.93125 18.6175,21.30375 l 2.56125,-3.43625 0.3125,8.06 c 1.6875,2.81125 3.12375,5.685 4.43625,8.62125 l 4.435,14.93125 -0.12375,2.81125 c -0.0625,-0.1875 -0.125,-0.375 -0.125,-0.625 -2.0625,-8.05875 -5.62375,-16.18 -10.68375,-24.24 l 0,-4.81 -1.62375,2.24875 -19.305,-23.5525 -8.49625,7.24625 c 10.5575,-0.125 19.86625,7.2475 27.98875,22.17875 l 9.68375,16.49375 1.99875,6.685 4.12375,-3.87375 -3.81125,-10.745 -0.375,-10.18375 c -0.1875,-0.5625 -0.3125,-1.0625 -0.5,-1.625 -0.9375,-2.93625 -2.18625,-5.81 -3.74875,-8.62125 -0.75,-1.3125 -1.56125,-2.68625 -2.43625,-3.99875 -1.25,-1.93625 -2.62375,-3.935 -4.18625,-5.8725 -2.56125,-3.18625 -5.56,-6.3725 -8.87125,-9.55875 z m -8.24625,0.4375 1.68625,-4.31125 8.2475,8.06 c -3.93625,-3.68625 -7.2475,-4.935 -9.93375,-3.74875 z m -1.625,4.24875 -5.1225,3.4975 -2.74875,0 6.185,-4.685 1.68625,1.1875"
         inkscape:connector-curvature="0" />
      <path
         id="path686"
         style="fill:#999999;fill-opacity:1;fill-rule:nonzero;stroke:none"
         d="m 236.44196,206.99956 -1.68625,4.31125 c 2.68625,-1.18625 5.9975,0.0625 9.93375,3.74875 l -8.2475,-8.06"
         inkscape:connector-curvature="0" />
      <path
         id="path688"
         style="fill:#999999;fill-opacity:1;fill-rule:nonzero;stroke:none"
         d="m 228.00821,219.05706 5.1225,-3.4975 -1.68625,-1.1875 -6.185,4.685 2.74875,0"
         inkscape:connector-curvature="0" />
      <path
         id="path690"
         style="fill:#c10202;fill-opacity:1;fill-rule:nonzero;stroke:none"
         d="m 259.55821,224.18081 -3.49875,2.12375 c 0.875,1.3125 1.68625,2.68625 2.43625,3.99875 1.5625,2.81125 2.81125,5.685 3.74875,8.62125 0.375,-2.87375 -0.5,-5.81 -2.68625,-8.87125 l 0,-5.8725"
         inkscape:connector-curvature="0" />
      <path
         id="path692"
         style="fill:#000000;fill-opacity:1;fill-rule:nonzero;stroke:none"
         d="m 254.30946,229.30331 -2.56125,3.43625 c -4.935,-7.3725 -11.12,-14.49375 -18.6175,-21.30375 l -1.49875,1.3125 19.305,23.5525 1.62375,-2.24875 0,4.81 c 5.06,8.06 8.62125,16.18125 10.68375,24.24 0,0.25 0.0625,0.4375 0.125,0.625 l 0.12375,-2.81125 -4.435,-14.93125 c -1.3125,-2.93625 -2.74875,-5.81 -4.43625,-8.62125 l -0.3125,-8.06"
         inkscape:connector-curvature="0" />
      <path
         id="path694"
         style="fill:#000000;fill-opacity:1;fill-rule:nonzero;stroke:none"
         d="m 223.13571,219.99456 c -0.5625,0.6875 -1.125,1.375 -1.5625,2.125 14.43125,5.935 26.61375,20.30375 36.4225,43.2325 l 5.18625,1.25 0,-0.0625 10.6825,1.18625 -10.745,-16.9925 3.81125,10.745 -4.12375,3.87375 -1.99875,-6.685 -9.68375,-16.49375 c -8.1225,-14.93125 -17.43125,-22.30375 -27.98875,-22.17875"
         inkscape:connector-curvature="0" />
      <path
         id="path696"
         style="fill:#333333;fill-opacity:1;fill-rule:nonzero;stroke:none"
         d="m 215.57571,255.54331 c 0,0.6875 0,1.31125 0.0625,1.99875 0.3125,11.87 -0.4375,22.80375 -2.24875,32.8 12.30625,0.375 24.4275,2.87375 36.36,7.49625 0.875,0.3125 1.74875,0.6875 2.62375,1.0625 0.4375,0.1875 0.875,0.375 1.25,0.625 l 3.12375,-7.685 -3,-7.55875 c -10.1825,-3.68625 -20.30375,-15.86875 -30.3,-36.54875 10.87125,12.5575 22.05375,22.17875 33.55,28.80125 l 42.7325,0 0,-6.1225 -25.865,-2.68625 -10.6825,-1.1875 0,0.0625 -5.18625,-1.24875 c -9.80875,-22.92875 -21.99125,-37.2975 -36.4225,-43.2325 -5.06,7.43375 -7.06,18.555 -5.9975,33.42375 z m 6.3725,-31.05 3.18625,1.37375 c -5.8725,7.935 -7.56,19.18 -5.06125,33.86125 l -1.62375,17.80625 0.25,10.99625 -3.37375,0 2.18625,-35.42375 c -2.18625,-9.30875 -0.74875,-18.8675 4.43625,-28.61375 z m 28.80125,34.23625 c -5.43625,-10.49625 -11.87,-19.93 -19.43,-28.23875 7.31,5.31 14.18125,13.6825 20.61625,25.24 l 5.37375,11.37 40.4825,4.18625 0.375,1.87375 -41.8575,-3.43625 -5.56,-10.995"
         inkscape:connector-curvature="0" />
      <path
         id="path698"
         style="fill:#999999;fill-opacity:1;fill-rule:nonzero;stroke:none"
         d="m 225.13446,225.86706 -3.18625,-1.37375 c -5.185,9.74625 -6.6225,19.305 -4.43625,28.61375 l -2.18625,35.42375 3.37375,0 -0.25,-10.99625 1.62375,-17.80625 c -2.49875,-14.68125 -0.81125,-25.92625 5.06125,-33.86125"
         inkscape:connector-curvature="0" />
      <path
         id="path700"
         style="fill:#999999;fill-opacity:1;fill-rule:nonzero;stroke:none"
         d="m 231.31946,230.49081 c 7.56,8.30875 13.99375,17.7425 19.43,28.23875 l 5.56,10.995 41.8575,3.43625 -0.375,-1.87375 -40.4825,-4.18625 -5.37375,-11.37 c -6.435,-11.5575 -13.30625,-19.93 -20.61625,-25.24"
         inkscape:connector-curvature="0" />
      <path
         id="path702"
         style="fill:#c10202;fill-opacity:1;fill-rule:nonzero;stroke:none"
         d="m 173.96696,213.87206 5.31125,1.25 c 4.81,5.435 7.80875,11.745 9.05875,18.93 -0.5625,-9.30875 -3.68625,-16.18125 -9.37125,-20.68 l -8.2475,-2.74875 c 0.8125,0.6875 1.5625,1.625 2.25,2.87375 3.31,8.06 4.6225,16.99375 3.81,26.74 -1.49875,7.43375 -1,14.93125 1.5625,22.42875 5.9975,11.5575 9.18375,22.9275 9.55875,34.17375 0.4375,13.05625 -1.1875,27.23875 -4.81125,42.545 l 5.87375,-5.185 c 0.0625,-0.125 0.0625,-0.1875 0.0625,-0.25 l 5.81,-4.99875 c 0.125,-0.43625 0.25,-0.81125 0.3125,-1.18625 2.24875,-9.24625 3.6225,-19.18 4.1225,-29.73875 l 1.625,1.625 3.3725,0 -4.06,-7.685 3.7475,0.875 c 2.875,0.0625 5.68625,0.125 8.435,0.25 13.49375,0.875 25.9275,3.62375 37.2975,8.30875 0.5,0.25 1,0.5625 1.4375,0.875 0.0625,0.0625 0.18625,0.1875 0.31125,0.3125 l 3.74875,2.24875 c 0.9375,3.06125 0.625,7.1225 -0.9375,12.12 l -18.555,29.42625 5.24875,0 1.43625,-2.68625 2.3125,-4.37375 3.7475,-6.9975 6.81,-12.8075 c 1.5,-3.81 2.37375,-7.05875 2.68625,-9.87125 0.4375,-4.8725 -0.99875,-8.24625 -4.31,-10.12 -0.375,-0.25 -0.8125,-0.4375 -1.25,-0.625 -0.875,-0.375 -1.74875,-0.75 -2.62375,-1.0625 l -2.43625,0.4375 -16.93125,-4.4975 c -9.99625,-2.3125 -20.30375,-3.12375 -30.8625,-2.375 l -2.93625,1.625 2.68625,3.62375 -6.31,-3.99875 5.4975,-1.74875 c -0.4375,0.0625 -0.87375,0.125 -1.31125,0.18625 -2.49875,-9.18375 -5.43625,-18.36625 -8.80875,-27.55125 -1.75,-8.93375 -1.75,-18.7425 0,-29.4875 -4.81125,-9.62125 -9.55875,-16.36875 -14.37,-20.18"
         inkscape:connector-curvature="0" />
      <path
         id="path704"
         style="fill:#fb0404;fill-opacity:1;fill-rule:nonzero;stroke:none"
         d="m 179.27821,215.12206 -5.31125,-1.25 c 4.81125,3.81125 9.55875,10.55875 14.37,20.18 -1.25,-7.185 -4.24875,-13.495 -9.05875,-18.93"
         inkscape:connector-curvature="0" />
      <path
         id="path706"
         style="fill:#860202;fill-opacity:1;fill-rule:nonzero;stroke:none"
         d="m 172.96821,213.49706 c -0.6875,-1.24875 -1.4375,-2.18625 -2.25,-2.87375 l -3.18625,-1.06125 c -1.43625,1.24875 -1.62375,3.24875 -0.49875,6.06 2.56125,5.685 4.1225,11.5575 4.6225,17.6175 -0.75,8.80875 -0.1875,17.11875 1.74875,24.9275 4.74875,11.87 7.685,22.92875 8.74625,33.23625 0.4375,16.55625 -1.31125,32.4875 -5.3725,47.79375 -0.8125,7.81 3.24875,10.87125 12.24625,9.24625 l 54.3525,0 26.48875,-0.125 4.12375,-4.6225 -31.6125,0 -1.43625,2.68625 -7.935,0 2.49875,-3.56125 -14.55625,0.0625 -3.06125,1.125 -19.8675,-0.3125 c -7.05875,1.18625 -11.995,-0.25 -14.93125,-4.31125 3.62375,-15.30625 5.24875,-29.48875 4.81125,-42.545 -0.375,-11.24625 -3.56125,-22.61625 -9.55875,-34.17375 -2.5625,-7.4975 -3.06125,-14.995 -1.5625,-22.42875 0.8125,-9.74625 -0.5,-18.68 -3.81,-26.74"
         inkscape:connector-curvature="0" />
      <path
         id="path708"
         style="fill:#860202;fill-opacity:1;fill-rule:nonzero;stroke:none"
         d="m 203.14321,292.84081 c 0.25,0 0.5,0 0.81125,0 l -3.7475,-0.875 4.06,7.685 0.8125,0 -1.93625,-6.81"
         inkscape:connector-curvature="0" />
      <path
         id="path710"
         style="fill:#fb0404;fill-opacity:1;fill-rule:nonzero;stroke:none"
         d="m 198.45696,290.90331 -5.4975,1.75 6.31,3.99875 -2.68625,-3.62375 2.93625,-1.625 c 10.55875,-0.74875 20.86625,0.0625 30.8625,2.375 l 16.93125,4.4975 2.43625,-0.4375 c -11.9325,-4.6225 -24.05375,-7.12125 -36.36,-7.49625 -4.93625,-0.1875 -9.93375,0 -14.9325,0.56125"
         inkscape:connector-curvature="0" />
      <path
         id="path712"
         style="fill:#430101;fill-opacity:1;fill-rule:nonzero;stroke:none"
         d="m 205.07946,299.65081 -1.0625,0 14.12,40.92125 1.87375,-0.1875 -0.74875,-2.06125 -2.49875,-6.74875 -2.9375,-8.05875 -5.56,-15.18125 -3.18625,-8.68375"
         inkscape:connector-curvature="0" />
      <path
         id="path714"
         style="fill:#540101;fill-opacity:1;fill-rule:nonzero;stroke:none"
         d="m 204.01696,299.65081 -3.1225,0 5.4975,14.30625 3.87375,10.12125 3.12375,7.99625 2.87375,7.685 c -0.3125,-0.0625 -0.5625,-0.125 -0.875,-0.1875 -2.18625,-0.6875 -3.99875,-2.74875 -5.4975,-6.31 l -3.49875,1.1875 c -0.625,-1.9375 -1.0625,-3.87375 -1.375,-5.8725 l -10.1825,0.37375 -5.81,4.99875 c 0,0.0625 0,0.125 -0.0625,0.25 l -5.87375,5.185 c 2.93625,4.06125 7.8725,5.4975 14.93125,4.31125 l 19.8675,0.3125 3.06125,-1.125 14.55625,-0.0625 2.4375,-3.49875 -17.93125,1.125 0,-0.0625 -1.87375,0.1875 -14.12,-40.92125"
         inkscape:connector-curvature="0" />
      <path
         id="path716"
         style="fill:#333333;fill-opacity:1;fill-rule:nonzero;stroke:none"
         d="m 204.89196,327.01456 5.37375,-2.93625 -3.87375,-10.12125 c -1.375,4.49875 -1.875,8.87125 -1.5,13.0575"
         inkscape:connector-curvature="0" />
      <path
         id="path718"
         style="fill:#000000;fill-opacity:1;fill-rule:nonzero;stroke:none"
         d="m 210.26571,324.07831 -5.37375,2.93625 c 0,0.5 0.0625,1 0.125,1.5625 0.3125,1.99875 0.75,3.935 1.375,5.8725 l 3.49875,-1.1875 3.49875,-1.1875 -3.12375,-7.99625"
         inkscape:connector-curvature="0" />
      <path
         id="path720"
         style="fill:#333333;fill-opacity:1;fill-rule:nonzero;stroke:none"
         d="m 212.38946,293.09081 c -0.625,6.435 -1.99875,11.5575 -4.12375,15.24375 l 5.56,15.18125 35.86125,-14.36875 2.49875,-5.93625 c -0.25,-0.24875 -0.5,-0.43625 -0.75,-0.62375 -0.125,-0.125 -0.24875,-0.25 -0.31125,-0.3125 -0.4375,-0.3125 -0.9375,-0.625 -1.4375,-0.875 -11.37,-4.685 -23.80375,-7.43375 -37.2975,-8.30875 z m -0.3125,20.30375 -1.56125,-4.2475 3.56,-14.80625 2.25,0.74875 -4.24875,18.305"
         inkscape:connector-curvature="0" />
      <path
         id="path722"
         style="fill:#666666;fill-opacity:1;fill-rule:nonzero;stroke:none"
         d="m 210.51571,309.14706 1.56125,4.2475 4.24875,-18.305 -2.25,-0.74875 -3.56,14.80625"
         inkscape:connector-curvature="0" />
      <path
         id="path724"
         style="fill:#000000;fill-opacity:1;fill-rule:nonzero;stroke:none"
         d="m 206.01696,348.44331 3.37375,1.25 9.24625,3.31125 0,20.24125 4.9975,0 -0.62375,-15.24375 11.3075,-9.55875 -28.30125,0"
         inkscape:connector-curvature="0" />
      <path
         id="path726"
         style="fill:#666666;fill-opacity:1;fill-rule:nonzero;stroke:none"
         d="m 209.39071,349.69331 -3.37375,-1.25 10.18375,9.55875 0,15.24375 1.18625,0 0,-16.68 -7.99625,-6.8725"
         inkscape:connector-curvature="0" />
      <path
         id="path728"
         style="fill:#999999;fill-opacity:1;fill-rule:nonzero;stroke:none"
         d="m 305.60196,280.78331 0.0625,-4.24875 -5.935,0 0,4.24875 5.8725,0"
         inkscape:connector-curvature="0" />
      <path
         id="path730"
         style="fill:#e1e1e1;fill-opacity:1;fill-rule:nonzero;stroke:none"
         d="m 299.72946,272.03706 6.06006,0 0,-1.62451 -6.06006,0 0,1.62451 z"
         inkscape:connector-curvature="0" />
      <path
         id="path732"
         style="fill:#ffffff;fill-opacity:1;fill-rule:nonzero;stroke:none"
         d="m 299.72946,273.66081 6.06006,0 0,-1.62451 -6.06006,0 0,1.62451 z"
         inkscape:connector-curvature="0" />
      <path
         id="path734"
         style="fill:#e1e1e1;fill-opacity:1;fill-rule:nonzero;stroke:none"
         d="m 305.66446,276.34706 0.125,-2.68625 -6.06,0 0,2.87375 5.935,0 0,-0.1875"
         inkscape:connector-curvature="0" />
      <path
         id="path736"
         style="fill:#000000;fill-opacity:1;fill-rule:nonzero;stroke:none"
         d="m 299.72946,280.78331 0,-4.24875 -42.7325,0 c -11.49625,-6.6225 -22.67875,-16.24375 -33.55,-28.80125 9.99625,20.68 20.1175,32.8625 30.3,36.54875 l 3,7.55875 -3.12375,7.685 c 3.31125,1.87375 4.7475,5.2475 4.31,10.12 4.56125,-5.06 9.62125,-8.87 15.30625,-11.37 -4.185,-4.06 -6.43375,-8.30875 -6.68375,-12.745 l 11.5575,0 0,-2.37375 7.99625,0 0,-2.37375 13.62,0"
         inkscape:connector-curvature="0" />
      <path
         id="path738"
         style="fill:#cccccc;fill-opacity:1;fill-rule:nonzero;stroke:none"
         d="m 290.17071,290.27956 0,133.00875 1.1875,0 0,-133.00875 -1.1875,0"
         inkscape:connector-curvature="0" />
      <path
         id="path740"
         style="fill:#999999;fill-opacity:1;fill-rule:nonzero;stroke:none"
         d="m 297.48071,423.28831 2.74854,0 0,-133.00875 -2.74854,0 0,133.00875 z"
         inkscape:connector-curvature="0" />
      <path
         id="path742"
         style="fill:#cccccc;fill-opacity:1;fill-rule:nonzero;stroke:none"
         d="m 294.10696,423.28831 3.37403,0 0,-133.00875 -3.37403,0 0,133.00875 z"
         inkscape:connector-curvature="0" />
      <path
         id="path744"
         style="fill:#ffffff;fill-opacity:1;fill-rule:nonzero;stroke:none"
         d="m 291.35821,423.28831 2.74854,0 0,-133.00875 -2.74854,0 0,133.00875 z"
         inkscape:connector-curvature="0" />
      <path
         id="path746"
         style="fill:#cccccc;fill-opacity:1;fill-rule:nonzero;stroke:none"
         d="m 300.41696,290.27956 -0.1875,0 0,133.00875 0.1875,0 0,-133.00875"
         inkscape:connector-curvature="0" />
      <path
         id="path748"
         style="fill:#000000;fill-opacity:1;fill-rule:nonzero;stroke:none"
         d="m 282.92321,295.08956 2.56125,18.805 -37.0475,18.43 -3.7475,6.9975 c 10.1825,1.3125 21.24125,0.75 33.29875,-1.68625 l 12.1825,-2.99875 0,-41.98375 -7.2475,2.43625"
         inkscape:connector-curvature="0" />
      <path
         id="path750"
         style="fill:#333333;fill-opacity:1;fill-rule:nonzero;stroke:none"
         d="m 285.48571,313.89456 -2.5625,-18.805 -9.6825,3.18625 c -5.68625,2.5 -10.74625,6.31 -15.3075,11.37 -0.3125,2.8125 -1.18625,6.06125 -2.68625,9.87125 l -6.81,12.8075 37.04875,-18.43 z m -4.49875,-16.49375 0.81125,2.1875 -22.99,10.995 13.1825,-10.1825 8.99625,-3"
         inkscape:connector-curvature="0" />
      <path
         id="path752"
         style="fill:#999999;fill-opacity:1;fill-rule:nonzero;stroke:none"
         d="m 281.79946,299.58831 -0.8125,-2.1875 -8.99625,3 -13.1825,10.1825 22.99125,-10.995"
         inkscape:connector-curvature="0" />
      <path
         id="path754"
         style="fill:#fb0404;fill-opacity:1;fill-rule:nonzero;stroke:none"
         d="m 251.43571,302.58706 c 0.25,0.1875 0.5,0.375 0.75,0.62375 2.18625,2.25 2.68625,5.62375 1.62375,10.05875 -0.49875,2 -1.37375,4.24875 -2.56,6.7475 l -6.6225,9.62125 -6.685,9.68375 -2.4375,3.49875 -2.49875,3.56125 2.68625,0 18.555,-29.42625 c 1.5625,-4.9975 1.875,-9.05875 0.9375,-12.12 l -3.74875,-2.24875"
         inkscape:connector-curvature="0" />
      <path
         id="path756"
         style="fill:#333333;fill-opacity:1;fill-rule:nonzero;stroke:none"
         d="m 251.24946,320.01706 c 1.18625,-2.49875 2.06125,-4.7475 2.56,-6.7475 -11.8075,9.55875 -24.115,15.68125 -37.04625,18.305 l 2.49875,6.74875 25.365,-8.685 6.6225,-9.62125"
         inkscape:connector-curvature="0" />
      <path
         id="path758"
         style="fill:#000000;fill-opacity:1;fill-rule:nonzero;stroke:none"
         d="m 253.81071,313.26956 c 1.06125,-4.435 0.56125,-7.80875 -1.625,-10.05875 l -2.49875,5.93625 -35.86125,14.36875 2.9375,8.05875 c 12.93125,-2.62375 25.23875,-8.74625 37.0475,-18.305"
         inkscape:connector-curvature="0" />
      <path
         id="path760"
         style="fill:#000000;fill-opacity:1;fill-rule:nonzero;stroke:none"
         d="m 237.94196,339.32206 6.685,-9.68375 -25.365,8.685 0.74875,2.06125 0,0.0625 17.93125,-1.125"
         inkscape:connector-curvature="0" />
      <path
         id="path762"
         style="fill:#540101;fill-opacity:1;fill-rule:nonzero;stroke:none"
         d="m 244.68946,339.32206 -2.3125,4.37375 31.6125,0 c 1.3125,-1.1875 2.68625,-3.24875 3.99875,-6.06 -12.0575,2.43625 -23.11625,2.99875 -33.29875,1.68625"
         inkscape:connector-curvature="0" />
      <path
         id="path764"
         style="fill:#333333;fill-opacity:1;fill-rule:nonzero;stroke:none"
         d="m 215.38821,339.57206 c 0.3125,0.0625 0.5625,0.125 0.875,0.1875 l -2.87375,-7.685 -3.49875,1.1875 c 1.49875,3.56125 3.31125,5.6225 5.4975,6.31"
         inkscape:connector-curvature="0" />
      <path
         id="path766"
         style="fill:#cccccc;fill-opacity:1;fill-rule:nonzero;stroke:none"
         d="m 217.38696,373.24581 -1.18625,0 0,22.36625 3.6225,0 0,-22.36625 -2.43625,0"
         inkscape:connector-curvature="0" />
      <path
         id="path768"
         style="fill:#333333;fill-opacity:1;fill-rule:nonzero;stroke:none"
         d="m 217.38696,373.24581 1.25,0 0,-20.24125 -9.24625,-3.31125 7.99625,6.8725 0,16.68"
         inkscape:connector-curvature="0" />
      <path
         id="path770"
         style="fill:#999999;fill-opacity:1;fill-rule:nonzero;stroke:none"
         d="m 223.63446,373.24581 -3.81125,0 0,22.36625 3.81125,0 0,-22.36625"
         inkscape:connector-curvature="0" />
      <path
         id="path772"
         style="fill:#666666;fill-opacity:1;fill-rule:nonzero;stroke:none"
         d="m 305.47696,369.93456 -5.06,-16.05625 0,60.35125 5.06,0 0,-44.295"
         inkscape:connector-curvature="0" />
      <path
         id="path774"
         style="fill:#000000;fill-opacity:1;fill-rule:nonzero;stroke:none"
         d="m 267.61696,421.91456 5.12375,-0.0625 -49.10625,-34.3 0,4.87375 43.9825,29.48875"
         inkscape:connector-curvature="0" />
      <path
         id="path776"
         style="fill:#333333;fill-opacity:1;fill-rule:nonzero;stroke:none"
         d="m 223.63446,392.42581 0,3.18625 39.4225,26.365 4.56,-0.0625 -43.9825,-29.48875"
         inkscape:connector-curvature="0" />
      <path
         id="path778"
         style="fill:#000000;fill-opacity:1;fill-rule:nonzero;stroke:none"
         d="m 223.63446,395.61206 -4.685,0 -7.935,29.23875 5.81125,0 6.80875,-29.23875"
         inkscape:connector-curvature="0" />
      <path
         id="path780"
         style="fill:#000000;fill-opacity:1;fill-rule:nonzero;stroke:none"
         d="m 216.20071,395.61206 0,-2.62375 -44.1075,28.11375 6.2475,0 37.86,-25.49"
         inkscape:connector-curvature="0" />
      <path
         id="path782"
         style="fill:#333333;fill-opacity:1;fill-rule:nonzero;stroke:none"
         d="m 218.94946,395.61206 -0.6875,0 -12.12,29.23875 4.87375,0 7.93375,-29.23875"
         inkscape:connector-curvature="0" />
      <path
         id="path784"
         style="fill:#333333;fill-opacity:1;fill-rule:nonzero;stroke:none"
         d="m 164.34571,421.10206 7.7475,0 44.1075,-28.11375 0,-2.93625 -51.855,31.05"
         inkscape:connector-curvature="0" />
      <path
         id="path1532"
         style="fill:none;stroke:#fd2d2d;stroke-width:0.31237501;stroke-linecap:round;stroke-linejoin:round;stroke-miterlimit:10;stroke-opacity:1;stroke-dasharray:none"
         d="m 243.37696,348.44331 26.48875,-0.125 4.12375,-4.6225"
         inkscape:connector-curvature="0" />
    </g>
  </g>
</svg>
