<?xml version="1.0" encoding="UTF-8" standalone="no"?>
<!-- Created with Inkscape (http://www.inkscape.org/) -->

<svg
   xmlns:dc="http://purl.org/dc/elements/1.1/"
   xmlns:cc="http://creativecommons.org/ns#"
   xmlns:rdf="http://www.w3.org/1999/02/22-rdf-syntax-ns#"
   xmlns:svg="http://www.w3.org/2000/svg"
   xmlns="http://www.w3.org/2000/svg"
   xmlns:sodipodi="http://sodipodi.sourceforge.net/DTD/sodipodi-0.dtd"
   xmlns:inkscape="http://www.inkscape.org/namespaces/inkscape"
   width="150"
   height="150"
   id="svg5392"
   version="1.1"
   inkscape:version="0.48.5 r10040"
   sodipodi:docname="3.svg">
  <defs
     id="defs5394" />
  <sodipodi:namedview
     id="base"
     pagecolor="#ffffff"
     bordercolor="#666666"
     borderopacity="1.0"
     inkscape:pageopacity="0.0"
     inkscape:pageshadow="2"
     inkscape:zoom="1.4"
     inkscape:cx="206.05402"
     inkscape:cy="172.70408"
     inkscape:document-units="px"
     inkscape:current-layer="layer1"
     showgrid="false"
     fit-margin-top="0"
     fit-margin-left="0"
     fit-margin-right="0"
     fit-margin-bottom="0"
     inkscape:window-width="1440"
     inkscape:window-height="878"
     inkscape:window-x="0"
     inkscape:window-y="0"
     inkscape:window-maximized="1" />
  <metadata
     id="metadata5397">
    <rdf:RDF>
      <cc:Work
         rdf:about="">
        <dc:format>image/svg+xml</dc:format>
        <dc:type
           rdf:resource="http://purl.org/dc/dcmitype/StillImage" />
        <dc:title />
      </cc:Work>
    </rdf:RDF>
  </metadata>
  <g
     inkscape:label="Layer 1"
     inkscape:groupmode="layer"
     id="layer1"
     transform="translate(-281.96369,-807.38505)">
    <g
       id="g3075"
       transform="matrix(0.34495374,0,0,0.34495374,206.12783,627.84579)">
      <path
         id="path178"
         style="fill:#000000;fill-opacity:1;fill-rule:nonzero;stroke:none"
         d="m 508.29078,549.89194 -0.8125,4.24875 3.375,4.1225 c -2.25,-7.18375 0.24875,-11.995 7.43375,-14.49375 7.1225,-1.06125 13.0575,-3.81125 17.805,-8.30875 5.7475,2.68625 10.24625,10.37 13.495,23.115 0.3125,-9.05875 1.1875,-12.245 2.56125,-9.43375 1.3125,-4.81 1.375,-8.80875 0.1875,-11.995 -2.81125,-7.37249 -7.30875,-11.24499 -13.49375,-11.61999 7.05875,4.6225 9.62,9.24624 7.68375,13.93124 l -10.87125,-7.30874 c -6.99625,5.49749 -14.74375,9.05874 -23.3025,10.68374 l -4.06125,7.05875"
         inkscape:connector-curvature="0" />
      <path
         id="path180"
         style="fill:#333333;fill-opacity:1;fill-rule:nonzero;stroke:none"
         d="m 507.47953,554.14069 0.81125,-4.24875 4.06125,-7.05875 c 8.55875,-1.625 16.30625,-5.18625 23.3025,-10.68374 l 10.87125,7.30874 c 1.93625,-4.685 -0.625,-9.30874 -7.68375,-13.93124 -1.6875,-0.125 -3.56125,0 -5.56125,0.4375 -11.1825,-3.31125 -19.1175,-1.0625 -23.9275,6.6225 -3.87375,5.49749 -4.935,12.18249 -3.12375,20.05374 l 1.25,1.5 z m 5.4975,-23.67874 c 4.81,-5.06 11.4325,-6.1225 19.8675,-3.18625 l 4.7475,1.25 c -8.18375,-1.0625 -15.74375,0.1875 -22.67875,3.87375 -5.4975,3.68624 -8.37125,8.99624 -8.55875,15.80624 -1.31125,-7.56 0.875,-13.4325 6.6225,-17.74374"
         inkscape:connector-curvature="0" />
      <path
         id="path182"
         style="fill:#999999;fill-opacity:1;fill-rule:nonzero;stroke:none"
         d="m 532.84453,527.2757 c -8.435,-2.93625 -15.0575,-1.87375 -19.8675,3.18625 -5.74875,4.31124 -7.935,10.18374 -6.6225,17.74374 0.1875,-6.81 3.06125,-12.12 8.55875,-15.80624 6.935,-3.68625 14.49375,-4.93625 22.67875,-3.87375 l -4.7475,-1.25"
         inkscape:connector-curvature="0" />
      <path
         id="path184"
         style="fill:#dca56d;fill-opacity:1;fill-rule:nonzero;stroke:none"
         d="m 553.08578,551.82819 c -0.3125,-1.18625 -0.625,-2.06125 -0.9375,-2.68625 -1.37375,-2.81125 -2.24875,0.375 -2.56125,9.43375 l 0,4.56125 c 2.49875,-0.0625 3.68625,-3.81125 3.49875,-11.30875"
         inkscape:connector-curvature="0" />
      <path
         id="path186"
         style="fill:#a56e44;fill-opacity:1;fill-rule:nonzero;stroke:none"
         d="m 536.09203,535.46069 c -4.7475,4.4975 -10.6825,7.2475 -17.805,8.30875 -7.185,2.49875 -9.68375,7.31 -7.43375,14.49375 0.43625,-5.6225 4.56,-9.62 12.245,-11.995 6.43375,-1.37375 10.9325,-3.935 13.43125,-7.62125 4.49875,5.8725 7.7475,12.99375 9.80875,21.30375 1.93625,12.3075 0.625,20.80375 -3.93625,25.5525 l -3.935,-8.99625 -4.87375,0 -11.62,6.6225 c 0.375,0.49875 0.75,0.99875 1.1875,1.49875 l 9.87125,-5.8725 1.43625,0 -5.81,5.8725 8.62125,-5.8725 3.81125,6.685 0,3.12375 -3.43625,0.375 1.25,-1.5 -2.625,-0.125 0,-0.625 -2.56125,3.18625 1.75,6.56 2.06125,-1.74875 -1,3.43625 -11.5575,11.5575 1.375,1 1.87375,1.31125 2.81125,-3.12375 2.81125,-3.18625 c 2.37375,-2.43625 3.93625,-5.2475 4.62375,-8.43375 0.4375,-2.12375 0.5,-4.3725 0.25,-6.7475 l 2.37375,0 c 4.185,-3.62375 6.99625,-7.80875 8.49625,-12.5575 l 0,-19.3675 c -3.24875,-12.745 -7.7475,-20.42875 -13.495,-23.115"
         inkscape:connector-curvature="0" />
      <path
         id="path188"
         style="fill:#dca56d;fill-opacity:1;fill-rule:nonzero;stroke:none"
         d="m 536.52953,538.64694 c -2.49875,3.68625 -6.9975,6.2475 -13.43125,7.62125 -7.685,2.375 -11.80875,6.3725 -12.245,11.995 0.24875,4.49875 1.87375,8.56 4.81,12.24625 0.9375,3.935 2.87375,7.93375 5.81,11.995 0.1875,0.1875 0.3125,0.4375 0.5,0.625 l 11.62,-6.6225 4.87375,0 3.935,8.99625 c 4.56125,-4.74875 5.8725,-13.245 3.93625,-25.5525 -2.06125,-8.31 -5.31,-15.43125 -9.80875,-21.30375 z m -22.24125,14.30625 1.6875,-1.4375 c -3.49875,6.3725 -2.49875,11.68375 2.99875,15.86875 l 5.685,11.43375 -2.74875,2.31125 -5.31,-12.245 c -5.12375,-5.31 -5.8725,-10.62125 -2.3125,-15.93125"
         inkscape:connector-curvature="0" />
      <path
         id="path190"
         style="fill:#f3ddcf;fill-opacity:1;fill-rule:nonzero;stroke:none"
         d="m 515.97578,551.51569 -1.6875,1.4375 c -3.56,5.31 -2.81125,10.62125 2.3125,15.93125 l 5.31,12.245 2.74875,-2.31125 -5.685,-11.43375 c -5.4975,-4.185 -6.4975,-9.49625 -2.99875,-15.86875"
         inkscape:connector-curvature="0" />
      <path
         id="path192"
         style="fill:#dca56d;fill-opacity:1;fill-rule:nonzero;stroke:none"
         d="m 541.09078,585.44069 -3.81125,-6.685 -8.62125,5.8725 5.81,-5.8725 -1.43625,0 -9.87125,5.8725 0,12.745 c 0.31125,3.49875 -0.6875,6.435 -3,8.87125 l 4.81125,3.43625 11.5575,-11.5575 1,-3.43625 -2.06125,1.74875 -1.75,-6.56 2.56125,-3.18625 0,0.625 2.625,0.125 -1.25,1.5 3.43625,-0.375 0,-3.12375 z m -9.80875,-4.81125 -5.435,5.185 0.875,13.6825 -1.75,6.2475 -2.81125,0 2.18625,-5.9975 0,-14.68125 6.935,-4.43625"
         inkscape:connector-curvature="0" />
      <path
         id="path194"
         style="fill:#f3ddcf;fill-opacity:1;fill-rule:nonzero;stroke:none"
         d="m 525.84703,585.81444 5.435,-5.185 -6.935,4.43625 0,14.68125 -2.18625,5.9975 2.81125,0 1.75,-6.2475 -0.875,-13.6825"
         inkscape:connector-curvature="0" />
      <path
         id="path196"
         style="fill:#333333;fill-opacity:1;fill-rule:nonzero;stroke:none"
         d="m 559.89578,585.25319 c -2.375,-3.87375 -5.81,-7.3725 -10.30875,-10.49625 l 0,3.18625 3.12375,3.87375 c -4.68625,5.8725 -8.43375,12.245 -11.37,19.055 -1.4375,3.31125 -2.62375,6.80875 -3.62375,10.495 0,0.0625 0,0.0625 -0.0625,0.125 -1.8125,6.3725 -2.93625,13.0575 -3.37375,20.1175 l -1.24875,16.86875 0.0613,0 c 4.12375,-13.495 9.74625,-25.5525 16.93125,-36.11125 l 0,-10.12125 4.24875,4.06125 5.6225,-21.05375 z m -6.4975,-1.6875 1.74875,1.6875 c -9.24625,11.5575 -15.36875,22.865 -18.305,33.92375 2.0625,-11.87 7.6225,-23.74 16.55625,-35.61125"
         inkscape:connector-curvature="0" />
      <path
         id="path198"
         style="fill:#999999;fill-opacity:1;fill-rule:nonzero;stroke:none"
         d="m 555.14828,585.25319 -1.75,-1.6875 c -8.93375,11.87125 -14.49375,23.74125 -16.55625,35.61125 2.93625,-11.05875 9.05875,-22.36625 18.30625,-33.92375"
         inkscape:connector-curvature="0" />
      <path
         id="path200"
         style="fill:#e1e1e1;fill-opacity:1;fill-rule:nonzero;stroke:none"
         d="m 552.71078,581.81694 -3.12375,-3.87375 c -1.5,4.74875 -4.31,8.93375 -8.49625,12.5575 l -2.37375,0 c 0.25,2.375 0.1875,4.62375 -0.25,6.7475 l 2.87375,3.62375 c 2.93625,-6.81 6.68375,-13.1825 11.37,-19.055"
         inkscape:connector-curvature="0" />
      <path
         id="path202"
         style="fill:#333333;fill-opacity:1;fill-rule:nonzero;stroke:none"
         d="m 521.97328,583.12944 c -0.1875,-0.1875 -0.3125,-0.4375 -0.5,-0.625 -1.25,0.6875 -2.49875,1.43625 -3.81125,2.18625 l -3.24875,17.93 4.06125,2.4375 1.68625,1.18625 c 2.3125,-2.43625 3.31125,-5.3725 3,-8.87125 l 0,-12.745 c -0.4375,-0.5 -0.8125,-1 -1.1875,-1.49875"
         inkscape:connector-curvature="0" />
      <path
         id="path204"
         style="fill:#000000;fill-opacity:1;fill-rule:nonzero;stroke:none"
         d="m 517.66203,584.69069 c -0.4375,0.3125 -0.93625,0.5625 -1.43625,0.8125 l -5.435,18.2425 3.7475,2.74875 -10.495,14.37 c -1.4375,-3.3125 -3.06125,-6.43625 -4.87375,-9.3725 -3.06125,-4.81 -6.7475,-9.12125 -10.995,-12.93125 l 10.12125,17.43 -5.12375,22.05375 23.24125,-30.17625 2.06125,-2.81 -4.06125,-2.4375 3.24875,-17.93"
         inkscape:connector-curvature="0" />
      <path
         id="path206"
         style="fill:#e1e1e1;fill-opacity:1;fill-rule:nonzero;stroke:none"
         d="m 516.41328,607.86819 1.24875,1.5625 7.06,4.81 1.625,-3.56 -1.375,-1 -4.81125,-3.43625 -1.68625,-1.18625 -2.06125,2.81"
         inkscape:connector-curvature="0" />
      <path
         id="path208"
         style="fill:#333333;fill-opacity:1;fill-rule:nonzero;stroke:none"
         d="m 517.66203,609.43069 -1.24875,-1.5625 -23.24125,30.17625 5.12375,-22.05375 -10.12125,-17.43 -3.24875,34.36125 c -1.5625,6.68375 -1.75,12.61875 -0.5,17.805 7.30875,9.18375 14.55625,9.80875 21.86625,1.87375 l 16.61875,-36.7975 -5.24875,-6.3725 z m -1.12375,0.6875 2.24875,3.43625 -25.99,29.7375 0.9375,-3.935 22.80375,-29.23875 z m -27.92625,-8.31 2.24875,4.12375 -2.62375,28.11375 c -1.875,6.2475 -2.25,12.245 -1.125,18.055 -2.93625,-2.68625 -3.31125,-9.5575 -1.125,-20.49125 l 2.625,-29.80125"
         inkscape:connector-curvature="0" />
      <path
         id="path210"
         style="fill:#999999;fill-opacity:1;fill-rule:nonzero;stroke:none"
         d="m 518.78703,613.55444 -2.24875,-3.43625 -22.80375,29.23875 -0.9375,3.935 25.99,-29.7375"
         inkscape:connector-curvature="0" />
      <path
         id="path212"
         style="fill:#999999;fill-opacity:1;fill-rule:nonzero;stroke:none"
         d="m 490.86078,605.93194 -2.24875,-4.12375 -2.625,29.80125 c -2.18625,10.93375 -1.81125,17.805 1.125,20.49125 -1.125,-5.81 -0.75,-11.8075 1.125,-18.055 l 2.62375,-28.11375"
         inkscape:connector-curvature="0" />
      <path
         id="path214"
         style="fill:#999999;fill-opacity:1;fill-rule:nonzero;stroke:none"
         d="m 517.66203,609.43069 5.24875,6.3725 3.43625,4.18625 4.4975,-6.06125 -2.62375,-1.93625 -1.87375,-1.31125 -1.625,3.56 -7.06,-4.81"
         inkscape:connector-curvature="0" />
      <path
         id="path216"
         style="fill:#333333;fill-opacity:1;fill-rule:nonzero;stroke:none"
         d="m 514.53828,606.49444 -3.7475,-2.74875 5.435,-18.2425 c -8.935,4.935 -18.2425,9.30875 -28.05125,13.0575 4.2475,3.81 7.93375,8.12125 10.995,12.93125 1.8125,2.93625 3.43625,6.06 4.87375,9.3725 l 10.495,-14.37 z m -0.87375,-18.43 -0.5625,2.06125 -19.7425,11.12125 -3.06125,-2.24875 23.36625,-10.93375"
         inkscape:connector-curvature="0" />
      <path
         id="path218"
         style="fill:#999999;fill-opacity:1;fill-rule:nonzero;stroke:none"
         d="m 513.10203,590.12569 0.5625,-2.06125 -23.36625,10.93375 3.06125,2.24875 19.7425,-11.12125"
         inkscape:connector-curvature="0" />
      <path
         id="path220"
         style="fill:#333333;fill-opacity:1;fill-rule:nonzero;stroke:none"
         d="m 531.78203,613.80319 -0.9375,0.125 -4.4975,6.06125 1.62375,2.06125 -1.62375,3.56125 5.1225,17.555 1.99875,-17.3675 -1.68625,-11.99625"
         inkscape:connector-curvature="0" />
      <path
         id="path222"
         style="fill:#e1e1e1;fill-opacity:1;fill-rule:nonzero;stroke:none"
         d="m 530.84453,613.92819 0.9375,-0.125 -0.75,-4.935 -2.81125,3.12375 2.62375,1.93625"
         inkscape:connector-curvature="0" />
      <path
         id="path224"
         style="fill:#d20202;fill-opacity:1;fill-rule:nonzero;stroke:none"
         d="m 531.03203,608.86819 0.75,4.935 1.68625,11.99625 0.8125,5.81 c 0.4375,-7.06 1.56125,-13.745 3.37375,-20.1175 0.0625,-0.0625 0.0625,-0.0625 0.0625,-0.125 l -1.625,-4.06 5.24875,-6.435 -2.87375,-3.62375 c -0.6875,3.18625 -2.25,5.9975 -4.62375,8.43375 l -2.81125,3.18625"
         inkscape:connector-curvature="0" />
      <path
         id="path226"
         style="fill:#999999;fill-opacity:1;fill-rule:nonzero;stroke:none"
         d="m 536.09203,607.30694 1.625,4.06 c 1,-3.68625 2.18625,-7.18375 3.62375,-10.495 l -5.24875,6.435"
         inkscape:connector-curvature="0" />
      <path
         id="path228"
         style="fill:#000000;fill-opacity:1;fill-rule:nonzero;stroke:none"
         d="m 554.27328,606.30694 -4.24875,-4.06125 0,10.12125 c -7.185,10.55875 -12.8075,22.61625 -16.93125,36.11125 l -0.0625,0.0625 0,-0.0625 1.25,-16.86875 -0.8125,-5.81 -1.99875,17.3675 -5.1225,-17.555 1.62375,-3.56125 -1.62375,-2.06125 -3.43625,-4.18625 -16.61875,36.7975 c -7.31,7.935 -14.5575,7.31 -21.86625,-1.87375 0.5625,2.24875 1.43625,4.37375 2.49875,6.31 l 3.62375,3.37375 3.68625,3.4975 c 5.81,2.0625 10.8075,0.75 15.11875,-3.9975 2.93625,-3.24875 5.4975,-8.06 7.74625,-14.43125 l 7.06,-15.12 6.2475,19.555 0,4.43625 -18.6175,7.24625 2.43625,1.6875 2.1875,0 45.17125,-17.805 8.0625,-31.925 c 0.25,-0.6875 0.5,-1.375 0.75,-2.0625 3.675,-9.05875 9.425,-13.74375 17.3,-14.11875 l -5.5625,45.1075 c -0.125,0.5625 -0.25,1.18625 -0.3125,1.74875 -3.8125,18.6175 -24.05125,30.675 -60.84875,36.235 l -1.87375,0.25 c -0.9375,-2.06125 -1.75,-3.9975 -2.43625,-5.8725 -2.9375,1.1875 -5.62375,1.75 -8.1225,1.75 -1.0625,-0.0625 -2.06125,-0.1875 -2.99875,-0.4375 l -8.18375,10.3075 -7.935,0 -1.43625,3.06125 12.3075,0 6.1225,-9.62125 7.62125,0 6.2475,9.2475 -12.495,32.54875 c -0.125,0.25 -0.25,0.5 -0.3125,0.75 -5.435,11.495 -16.68,12.12 -33.73625,1.93625 -0.5625,-0.3125 -1.06125,-0.6875 -1.56125,-0.99875 l -1.81125,3.81125 c 7.43375,6.1225 13.86875,10.12 19.42875,12.0575 11.4325,4.06 19.055,-0.6875 22.80375,-14.245 l 4.06125,-10.99625 10.1825,-27.55125 2.68625,-0.74875 31.6775,-9.05875 c 3.625,-0.8125 6.875,-1.9375 9.75,-3.37375 l 3.3,11.3075 3.8125,0.5625 c 0.25,0.5625 0.4375,1.06125 0.625,1.56125 2.5625,7.685 -3.5625,9.24625 -18.425,4.74875 -0.68875,-0.1875 -1.37625,-0.4375 -2.06375,-0.625 1.0625,3.49875 4.68875,5.56 10.87625,6.185 l 8.1125,0 2.875,37.985 c -22.8,12.6825 -38.545,5.7475 -47.10375,-20.805 l 0.3125,2.625 c 0,0.81125 0,1.56125 0,2.31125 1.3125,19.1175 11.18375,28.61375 29.67875,28.55125 l 3.5625,55.79 -1.3125,10.62 3.0625,46.42 1.375,54.8525 2.125,9.74625 -5.6875,14.49375 c -2.3125,0.5 -4.5,1.1875 -6.56375,2.0625 l 0,7.62125 4.68875,0 0,5.93625 c 9.2375,2.8725 17.675,2.8725 25.3,0 -0.5,-3.99875 -2.3125,-6.87375 -5.5,-8.56 l -3.25,-7.74625 c 0.8125,0.125 1.6875,0.25 2.5,0.3125 l -2.5,-9.49625 c 2.6875,-6.935 3.9375,-15.3075 3.6875,-25.115 l -3.25,-49.4175 -1.8125,-44.545 c -0.9375,-20.9925 -2,-42.48375 -3.1875,-64.4125 4.9375,-0.93625 10.3125,-2.31125 16.125,-4.24875 l -6.9375,-44.98125 -8.0625,-27.98875 c 0.3125,-0.3125 0.625,-0.5625 0.9375,-0.8125 4.8125,-4.685 7.75,-10.9325 8.75,-18.8675 1.9375,-12.745 3.0625,-25.365 3.375,-37.86 0.0625,-4.7475 0.0625,-9.43375 -0.125,-14.11875 -0.8125,-0.5 -1.5625,-1 -2.375,-1.4375 -8.3125,-4.81 -17.675,-8.37125 -27.98875,-10.6825 l -5.6225,21.05375 z m -0.375,9.37125 -2.375,-9.55875 4.18625,4.18625 5.0625,-21.74125 18.425,6.56 -11.3625,13.68125 c -5.9375,11.80875 -9.37625,23.55375 -10.375,35.11125 l -22.74125,8.18375 c 6.6225,-16.18125 12.995,-28.30125 19.18,-36.4225"
         inkscape:connector-curvature="0" />
      <path
         id="path230"
         style="fill:#333333;fill-opacity:1;fill-rule:nonzero;stroke:none"
         d="m 551.52453,606.11944 2.37375,9.55875 c -6.185,8.12125 -12.5575,20.24125 -19.18,36.4225 l 22.74125,-8.18375 c 0.99875,-11.5575 4.4375,-23.3025 10.375,-35.11125 l 11.3625,-13.68125 -18.425,-6.56 -5.0625,21.74125 -4.185,-4.18625"
         inkscape:connector-curvature="0" />
      <path
         id="path232"
         style="fill:#dca56d;fill-opacity:1;fill-rule:nonzero;stroke:none"
         d="m 494.23453,663.90819 -3.68625,-3.4975 -2.37375,6.9975 5.935,6.06 -1.5,-5.24875 6.7475,0 6.685,2.93625 9.18375,-1.18625 c -0.125,-0.5625 -0.25,-1.1875 -0.375,-1.75 -0.3125,-1.68625 -0.5625,-3.37375 -0.625,-4.935 l -2.43625,-1.6875 -2.43625,-1.68625 c -4.31125,4.7475 -9.30875,6.06 -15.11875,3.9975 z m -3.06125,-1.37375 1.49875,0.75 -0.875,5.4975 -2.43625,-1.93625 1.8125,-4.31125"
         inkscape:connector-curvature="0" />
      <path
         id="path234"
         style="fill:#f3ddcf;fill-opacity:1;fill-rule:nonzero;stroke:none"
         d="m 492.67203,663.28444 -1.49875,-0.75 -1.8125,4.31125 2.43625,1.93625 0.875,-5.4975"
         inkscape:connector-curvature="0" />
      <path
         id="path236"
         style="fill:#333333;fill-opacity:1;fill-rule:nonzero;stroke:none"
         d="m 496.60828,671.03069 -1.56125,3.37375 -5.62375,12.0575 7.935,0 8.18375,-10.3075 c -1.68625,-0.4375 -3.31125,-1.25 -4.8725,-2.3125 l -4.06125,-2.81125 z m 0.125,3.12375 2.0625,0 -4.87375,10.55875 -2.25,0 5.06125,-10.55875"
         inkscape:connector-curvature="0" />
      <path
         id="path238"
         style="fill:#999999;fill-opacity:1;fill-rule:nonzero;stroke:none"
         d="m 498.79578,674.15444 -2.0625,0 -5.06125,10.55875 2.25,0 4.87375,-10.55875"
         inkscape:connector-curvature="0" />
      <path
         id="path240"
         style="fill:#a56e44;fill-opacity:1;fill-rule:nonzero;stroke:none"
         d="m 495.04703,674.40444 1.56125,-3.3725 4.06125,2.81 c 1.56125,1.0625 3.18625,1.875 4.8725,2.3125 0.9375,0.25 1.93625,0.375 2.99875,0.4375 2.49875,0 5.185,-0.5625 8.1225,-1.75 -0.25,-0.8125 -0.5,-1.56125 -0.75,-2.31125 -0.25,-0.875 -0.5,-1.74875 -0.6875,-2.56125 l -9.18375,1.18625 -6.685,-2.93625 -6.7475,0 1.5,5.24875 0.9375,0.93625"
         inkscape:connector-curvature="0" />
      <path
         id="path242"
         style="fill:#333333;fill-opacity:1;fill-rule:nonzero;stroke:none"
         d="m 524.15953,630.35944 -7.05875,15.11875 c -2.25,6.3725 -4.81125,11.18375 -7.7475,14.4325 l 2.43625,1.68625 18.6175,-7.24625 0,-4.43625 -6.2475,-19.555"
         inkscape:connector-curvature="0" />
      <path
         id="path244"
         style="fill:#e1e1e1;fill-opacity:1;fill-rule:nonzero;stroke:none"
         d="m 516.41328,663.28444 -2.1875,0 c 0.0625,1.56125 0.3125,3.24875 0.625,4.935 0.125,0.5625 0.25,1.1875 0.375,1.75 0.1875,0.8125 0.4375,1.68625 0.6875,2.56125 l 2.24875,-0.6875 c -0.3125,-1.18625 -0.625,-2.43625 -0.875,-3.62375 -0.37375,-1.68625 -0.68625,-3.31125 -0.87375,-4.935"
         inkscape:connector-curvature="0" />
      <path
         id="path246"
         style="fill:#999999;fill-opacity:1;fill-rule:nonzero;stroke:none"
         d="m 515.91328,672.53069 c 0.25,0.75 0.5,1.49875 0.75,2.31125 0.68625,1.875 1.49875,3.81125 2.43625,5.8725 l 1.87375,-0.25 c -1.1875,-2.87375 -2.12375,-5.7475 -2.81125,-8.62125 l -2.24875,0.6875"
         inkscape:connector-curvature="0" />
      <path
         id="path248"
         style="fill:#333333;fill-opacity:1;fill-rule:nonzero;stroke:none"
         d="m 517.28828,668.21944 c 0.24875,1.1875 0.56125,2.4375 0.87375,3.62375 0.6875,2.87375 1.62375,5.7475 2.81125,8.62125 36.7975,-5.56 57.03625,-17.6175 60.84875,-36.235 0.0625,-0.5625 0.1875,-1.18625 0.3125,-1.74875 l 5.5625,-45.1075 c -7.875,0.375 -13.625,5.06 -17.3,14.11875 -0.25,0.6875 -0.5,1.375 -0.75,2.0625 l -8.0625,31.925 -45.17125,17.805 c 0.1875,1.62375 0.5,3.24875 0.875,4.935 z m 1.49875,-1.56125 -1,-2.4375 44.11,-16.93 1.6875,-1.1875 6.25,-28.11375 c 2.8,-11.4325 7.8625,-17.805 15.2375,-18.99125 -8.9375,6.1225 -13.6125,15.9925 -13.925,29.6125 l -3.9375,19.6175 -48.4225,18.43"
         inkscape:connector-curvature="0" />
      <path
         id="path250"
         style="fill:#999999;fill-opacity:1;fill-rule:nonzero;stroke:none"
         d="m 517.78703,664.22069 1,2.4375 48.4225,-18.43 3.9375,-19.6175 c 0.3125,-13.62 4.9875,-23.49 13.925,-29.6125 -7.375,1.18625 -12.4375,7.55875 -15.2375,18.99125 l -6.25,28.11375 -1.6875,1.1875 -44.11,16.93"
         inkscape:connector-curvature="0" />
      <path
         id="path252"
         style="fill:#333333;fill-opacity:1;fill-rule:nonzero;stroke:none"
         d="m 570.95953,673.28069 c -2.875,1.43625 -6.125,2.56125 -9.75,3.37375 l -31.6775,9.05875 3.4375,28.4875 c 8.55875,26.5525 24.3025,33.4875 47.1025,20.805 l -2.875,-37.985 -8.1125,0 c -6.1875,-0.625 -9.81375,-2.68625 -10.87625,-6.185 -0.68625,-2.18625 -0.375,-4.99875 0.9375,-8.30875 l 15.11375,2.06125 -3.3,-11.3075"
         inkscape:connector-curvature="0" />
      <path
         id="path254"
         style="fill:#999999;fill-opacity:1;fill-rule:nonzero;stroke:none"
         d="m 578.69703,686.71194 c -0.1875,-0.5 -0.375,-0.99875 -0.625,-1.56125 l -3.8125,-0.5625 -15.11375,-2.06125 c -1.3125,3.31 -1.625,6.1225 -0.9375,8.30875 0.6875,0.1875 1.375,0.4375 2.06375,0.625 l 0.5,-6.1225 17.925,1.37375"
         inkscape:connector-curvature="0" />
      <path
         id="path256"
         style="fill:#333333;fill-opacity:1;fill-rule:nonzero;stroke:none"
         d="m 560.77203,685.33819 -0.5,6.1225 c 14.8625,4.4975 20.9875,2.93625 18.425,-4.74875 l -17.925,-1.37375"
         inkscape:connector-curvature="0" />
      <path
         id="path258"
         style="fill:#333333;fill-opacity:1;fill-rule:nonzero;stroke:none"
         d="m 520.28578,689.14944 -6.2475,-9.2475 -7.62125,0 -6.1225,9.62125 -12.3075,0 -15.80625,33.8625 c 0.5,0.31125 1,0.68625 1.56125,0.99875 17.05625,10.18375 28.30125,9.55875 33.73625,-1.93625 0.0625,-0.25 0.1875,-0.5 0.3125,-0.75 l 12.495,-32.54875 z m -31.11125,1.81125 3.435,0 -15.30625,33.23625 -2.74875,-1.62375 14.62,-31.6125"
         inkscape:connector-curvature="0" />
      <path
         id="path260"
         style="fill:#999999;fill-opacity:1;fill-rule:nonzero;stroke:none"
         d="m 492.60953,690.96069 -3.43625,0 -14.61875,31.6125 2.74875,1.62375 15.30625,-33.23625"
         inkscape:connector-curvature="0" />
      <path
         id="path262"
         style="fill:#d20202;fill-opacity:1;fill-rule:nonzero;stroke:none"
         d="m 529.53328,685.71194 -2.68625,0.75 -10.18375,27.55125 8.49625,8.935 8.12125,-6.1225 -0.31125,-2.625 -3.43625,-28.48875"
         inkscape:connector-curvature="0" />
      <path
         id="path264"
         style="fill:#333333;fill-opacity:1;fill-rule:nonzero;stroke:none"
         d="m 516.66328,714.01319 -4.06125,10.99625 c -3.74875,13.5575 -11.37,18.305 -22.80375,14.245 l 0,63.16125 -3.93625,96.58625 2.4375,14.12 c -3.56125,3.49875 -4.62375,9.05875 -3.18625,16.61875 0.74875,0.0625 1.49875,0.12375 2.31125,0.18625 2.31125,0.25 4.6225,0.5625 6.8725,1 l 8.37125,-30.9875 5.1225,-61.4125 5.37375,-56.3525 6.80875,-10.87125 -1.74875,-12.245 12.37,-14.05625 3.62375,22.8025 0.3125,1.875 c 0.3125,11.8075 2.24875,21.86625 5.81,30.1125 l 7.2475,53.04125 3.12375,47.35625 c 0,0.6875 0,1.3125 0.0625,1.93625 0.4375,14.245 3.37375,27.4275 8.74625,39.5475 2.06375,-0.875 4.25125,-1.5625 6.56375,-2.0625 l 5.6875,-14.49375 -2.125,-9.74625 -1.375,-54.8525 -3.0625,-46.42 1.3125,-10.62 -3.5625,-55.79 c -18.495,0.0625 -28.36625,-9.43375 -29.67875,-28.55125 0,-0.75 0,-1.5 0,-2.31125 l -8.12125,6.1225 -8.49625,-8.935 z m -24.86625,27.98875 2.625,0 0,66.72375 -2.5,54.97875 -2.37375,33.17375 4.12375,17.7425 -3.37375,12.8075 -3.43625,0 3.06125,-12.4325 -2.24875,-15.86875 4.1225,-94.14875 0,-62.97625 z m 41.0475,0.8125 3.435,0 11.6825,58.7275 4.99875,41.295 3.06125,37.0475 1.31125,27.9275 8.31375,28.925 -3.875,0 -7.81125,-23.99 -3.99875,-61.85 -5.2475,-45.17 -4.31125,-16.18125 -7.55875,-46.73125"
         inkscape:connector-curvature="0" />
      <path
         id="path266"
         style="fill:#999999;fill-opacity:1;fill-rule:nonzero;stroke:none"
         d="m 494.42203,742.00194 -2.625,0 0,62.97625 -4.1225,94.14875 2.24875,15.86875 -3.06125,12.4325 3.43625,0 3.37375,-12.8075 -4.12375,-17.7425 2.37375,-33.17375 2.5,-54.97875 0,-66.72375"
         inkscape:connector-curvature="0" />
      <path
         id="path268"
         style="fill:#999999;fill-opacity:1;fill-rule:nonzero;stroke:none"
         d="m 536.27953,742.81444 -3.435,0 7.55875,46.73125 4.31125,16.18125 5.2475,45.17 3.99875,61.85 7.81125,23.99 3.875,0 -8.3125,-28.925 -1.3125,-27.9275 -3.06125,-37.0475 -4.99875,-41.295 -11.6825,-58.7275"
         inkscape:connector-curvature="0" />
      <path
         id="path270"
         style="fill:#000000;fill-opacity:1;fill-rule:nonzero;stroke:none"
         d="m 534.21828,767.80444 -3.62375,-22.8025 -12.37,14.05625 1.74875,12.245 -6.80875,10.87125 -5.37375,56.3525 -5.1225,61.4125 -8.37125,30.9875 c -2.25,-0.4375 -4.56125,-0.75 -6.8725,-1 l -10.24625,9.185 c -7.55875,4.6225 -7.55875,8.24625 0,10.87 l 20.8675,0 2.62375,-6.4975 9.74625,0 -1.375,-8.12125 c 3.56125,-4.87375 5.56,-11.18375 5.935,-18.93 l 0,-19.9925 2.31125,-47.48 9.68375,-53.355 c 2.49875,-4.31 3.81125,-11.1825 3.87375,-20.49125 l 3.37375,-7.31"
         inkscape:connector-curvature="0" />
      <path
         id="path950"
         style="fill:#000000;fill-opacity:1;fill-rule:nonzero;stroke:none"
         d="m 319.92953,545.83069 -7.3725,6.435 c 1.4375,16.55625 -2.37375,26.5525 -11.495,29.86375 -0.4375,0.125 -0.9375,0.25 -1.375,0.4375 -7.74625,2.99875 -13.495,8.99625 -17.18,18.055 0.56125,2.56125 1.68625,5.185 3.2475,7.80875 0.3125,-2.49875 1.0625,-4.9975 2.3125,-7.49625 2.68625,-5.56 6.8725,-9.30875 12.5575,-11.30875 1.24875,-0.43625 2.56125,-0.81125 3.99875,-1.12375 0.68625,-0.0625 1.43625,-0.1875 2.12375,-0.375 1.81125,-0.4375 3.37375,-1 4.81,-1.8125 1.8125,-1.06125 3.24875,-2.37375 4.43625,-4.06 2.43625,-3.31125 3.62375,-7.935 3.62375,-13.8075 0,-1.49875 -0.0625,-3.06125 -0.25,-4.685 -0.125,-0.6875 -0.25,-1.4375 -0.3125,-2.25 l -2.93625,-4.06 c 0.1875,-0.3125 0.4375,-0.6875 0.6875,-1 0.56125,-0.8125 1.37375,-1.62375 2.31125,-2.31125 1.3125,-1.0625 2.99875,-2 4.9975,-2.81125 8.06,2.43625 14.99375,0.87375 20.8675,-4.74875 0.0625,-0.125 0.18625,-0.25 0.24875,-0.3125 l 0.125,-0.125 0,-0.0625 c 0.625,-0.56125 1.25,-1.12375 1.8125,-1.56125 2.43625,-2.06125 4.8725,-3.18625 7.2475,-3.37375 0.74875,-0.0625 1.56125,-0.0625 2.37375,0.125 0.3125,-2.18625 -1.75,-4.435 -6.2475,-6.685 -9.05875,8.87125 -19.2425,12.62 -30.6125,11.245"
         inkscape:connector-curvature="0" />
      <path
         id="path952"
         style="fill:#333333;fill-opacity:1;fill-rule:nonzero;stroke:none"
         d="m 312.55703,552.26569 7.3725,-6.435 c 11.37,1.375 21.55375,-2.37375 30.6125,-11.245 -8.93375,-7.43499 -18.6175,-10.74624 -29.11375,-9.99624 -9.99625,1.625 -16.36875,8.1225 -19.055,19.49249 -4.31,8.18375 -6.6225,15.61875 -6.9975,22.30375 -5.935,4.935 -8.43375,9.93375 -7.49625,14.86875 -5.1225,6.2475 -6.935,12.6825 -5.3725,19.3675 3.685,-9.05875 9.43375,-15.05625 17.18,-18.055 0.4375,-0.1875 0.9375,-0.3125 1.375,-0.4375 9.12125,-3.31125 12.9325,-13.3075 11.495,-29.86375 z m 33.73625,-18.80499 c -19.055,-6.49625 -30.8,-5.81 -35.23625,1.99999 l -5.56,9.80875 c -3.31125,7.18375 -5.4975,14.36875 -6.435,21.55375 -5.3725,5.435 -7.68375,10.4325 -6.99625,14.99375 l -8.4975,12.1825 5.685,-12.9325 c -0.56125,-4.6225 1.8125,-9.49625 7.2475,-14.61875 0.375,-7.4975 2.81125,-14.99375 7.3725,-22.49125 2.68625,-10.05874 8.12125,-15.74374 16.36875,-16.99249 8.68375,-1.8125 17.3675,0.37375 26.05125,6.49625"
         inkscape:connector-curvature="0" />
      <path
         id="path954"
         style="fill:#999999;fill-opacity:1;fill-rule:nonzero;stroke:none"
         d="m 311.05703,535.46069 c 4.43625,-7.80999 16.18125,-8.49624 35.23625,-1.99999 -8.68375,-6.1225 -17.3675,-8.30875 -26.05125,-6.49625 -8.2475,1.24875 -13.6825,6.93375 -16.36875,16.99249 -4.56125,7.4975 -6.9975,14.99375 -7.3725,22.49125 -5.435,5.1225 -7.80875,9.99625 -7.2475,14.61875 l -5.685,12.9325 8.4975,-12.1825 c -0.6875,-4.56125 1.62375,-9.55875 6.99625,-14.99375 0.9375,-7.185 3.12375,-14.37 6.435,-21.55375 l 5.56,-9.80875"
         inkscape:connector-curvature="0" />
      <path
         id="path956"
         style="fill:#a56e44;fill-opacity:1;fill-rule:nonzero;stroke:none"
         d="m 324.11453,551.32944 c -1.99875,0.81125 -3.685,1.74875 -4.9975,2.81125 2.24875,-0.875 4.685,-0.1875 7.2475,1.99875 5.3725,-0.625 10.495,-2.06125 15.30625,-4.37375 l 8.87125,-6.31 -3.49875,12.995 2.87375,9.80875 -4.43625,1.875 -4.435,10.12 c -5.81,3.18625 -12.995,-2.31125 -21.67875,-16.4925 2.06125,5.3725 4.685,10.0575 7.93375,13.99375 l -2.37375,8.24625 -6.1225,-1.24875 6.1225,5.435 3.56125,3.12375 c -0.75,-4.4975 -0.25,-8.68375 1.56125,-12.5575 0.5625,0.5 1.0625,1 1.625,1.4375 4.685,3.4975 8.62125,3.4975 11.6825,0 l 4.06125,-9.80875 c 2.49875,0.4375 4.31,-0.5 5.435,-2.81125 l -2.06125,-10.43375 c 2.18625,-5.06 3.37375,-11.0575 3.62375,-17.9925 -2.375,0.1875 -4.81125,1.3125 -7.2475,3.37375 -0.5625,0.4375 -1.1875,0.99875 -1.8125,1.56125 l 0,0.0625 -0.125,0.125 c -0.0625,0.0625 -0.18625,0.1875 -0.24875,0.3125 -5.87375,5.6225 -12.8075,7.185 -20.8675,4.74875"
         inkscape:connector-curvature="0" />
      <path
         id="path958"
         style="fill:#dca56d;fill-opacity:1;fill-rule:nonzero;stroke:none"
         d="m 350.54203,545.45569 -8.87125,6.31 c -4.81125,2.3125 -9.93375,3.74875 -15.30625,4.37375 -2.5625,-2.18625 -4.99875,-2.87375 -7.2475,-1.99875 -0.9375,0.6875 -1.75,1.49875 -2.31125,2.31125 -0.25,0.3125 -0.5,0.6875 -0.6875,1 l 2.93625,4.06 c 0.0625,0.8125 0.1875,1.5625 0.3125,2.25 8.68375,14.18125 15.86875,19.67875 21.67875,16.4925 l 4.435,-10.12 4.43625,-1.875 -2.87375,-9.80875 3.49875,-12.995 z m -30.3625,14.495 -2.5625,-2.62375 2.25,-2.1875 c 3.06125,8.3725 7.49625,16.24375 13.30625,23.55375 -4.9975,-4.18625 -8.99625,-9.12125 -12.0575,-14.93125 l -0.93625,-3.81125"
         inkscape:connector-curvature="0" />
      <path
         id="path960"
         style="fill:#f3ddcf;fill-opacity:1;fill-rule:nonzero;stroke:none"
         d="m 317.61703,557.32694 2.5625,2.62375 0.93625,3.81125 c 3.06125,5.81 7.06,10.745 12.0575,14.93125 -5.81,-7.31 -10.245,-15.18125 -13.30625,-23.5525 l -2.25,2.18625"
         inkscape:connector-curvature="0" />
      <path
         id="path962"
         style="fill:#dca56d;fill-opacity:1;fill-rule:nonzero;stroke:none"
         d="m 319.36703,563.76194 c 0.1875,1.62375 0.25,3.18625 0.25,4.685 0,5.8725 -1.1875,10.49625 -3.62375,13.8075 l 2.81125,2.49875 6.1225,1.24875 2.37375,-8.24625 c -3.24875,-3.93625 -5.8725,-8.62125 -7.93375,-13.99375 z m 0.1875,19.86625 -2.4375,-1.93625 c 3,-4.24875 4.12375,-8.1225 3.4375,-11.6825 l 1.68625,2.87375 c 0.375,3.74875 -0.5,7.30875 -2.68625,10.745"
         inkscape:connector-curvature="0" />
      <path
         id="path964"
         style="fill:#f3ddcf;fill-opacity:1;fill-rule:nonzero;stroke:none"
         d="m 317.11703,581.69194 2.4375,1.93625 c 2.18625,-3.43625 3.06125,-6.99625 2.68625,-10.745 l -1.68625,-2.87375 c 0.68625,3.56 -0.4375,7.43375 -3.4375,11.6825"
         inkscape:connector-curvature="0" />
      <path
         id="path966"
         style="fill:#e1e1e1;fill-opacity:1;fill-rule:nonzero;stroke:none"
         d="m 318.80453,584.75319 -2.81125,-2.49875 c -1.1875,1.68625 -2.62375,2.99875 -4.43625,4.06 l 13.37,8.8725 0,-4.99875 -6.1225,-5.435"
         inkscape:connector-curvature="0" />
      <path
         id="path968"
         style="fill:#bbbbbb;fill-opacity:1;fill-rule:nonzero;stroke:none"
         d="m 324.92703,590.18819 0,4.99875 -13.37,-8.8725 c -1.43625,0.8125 -2.99875,1.375 -4.81,1.8125 -0.6875,0.1875 -1.4375,0.3125 -2.12375,0.375 -1.4375,0.3125 -2.75,0.6875 -3.99875,1.12375 12.1825,5.68625 18.055,16.49375 17.6175,32.425 l 6.685,26.49 6.6225,0 1.1875,-0.3125 0,-6.31 -10.05875,-22.11625 c 0.0625,-17.74375 -5.24875,-28.05125 -15.86875,-30.8625 l 5.435,0 15.05625,13.05625 c 7.4975,16.68125 13.0575,31.05125 16.61875,43.17125 l -11.1825,3.06125 0,0.3125 18.055,0 c -1.4375,-7.56 -4.31125,-15.1825 -8.68375,-22.74125 l -12.80875,-22.11625 -0.81125,-10.37125 -3.56125,-3.12375"
         inkscape:connector-curvature="0" />
      <path
         id="path970"
         style="fill:#e1e1e1;fill-opacity:1;fill-rule:nonzero;stroke:none"
         d="m 327.30078,601.99569 -15.05625,-13.05625 -5.435,0 c 10.62,2.81125 15.93125,13.11875 15.86875,30.8625 l 10.05875,22.11625 0,6.31 11.1825,-3.06125 c -3.56125,-12.12 -9.12125,-26.49 -16.61875,-43.17125"
         inkscape:connector-curvature="0" />
      <path
         id="path972"
         style="fill:#e1e1e1;fill-opacity:1;fill-rule:nonzero;stroke:none"
         d="m 285.75453,608.43069 c -0.3125,1.625 -0.3125,3.31125 -0.125,4.99875 0.4375,5.31 3,10.62 7.685,15.86875 l 8.24625,14.80625 11.49625,16.24375 c 10.8075,3.56 20.99125,4.2475 30.55,1.99875 l 31.425,-15.05625 c -1.0625,-2.18625 -2.81125,-4.12375 -5.185,-5.7475 l -16.61875,6.9975 -20.49125,0 0,-0.3125 -1.1875,0.3125 -6.6225,0 -6.685,-26.49 c 0.4375,-15.93125 -5.435,-26.73875 -17.6175,-32.425 -5.685,2 -9.87125,5.74875 -12.5575,11.30875 -1.25,2.49875 -2,4.9975 -2.3125,7.49625 z m 2.0625,7.4975 c -0.625,-11.37 3.37375,-19.305 12.0575,-23.74 l 3.74875,2.24875 c -10.37125,4.31125 -13.495,10.80875 -9.43375,19.61625 l 19.2425,42.98375 -25.615,-41.10875 z m 37.4225,33.61125 27.30125,0.875 17.99375,-6.9975 1.24875,1.5625 -18.805,7.62125 -27.73875,-3.06125"
         inkscape:connector-curvature="0" />
      <path
         id="path974"
         style="fill:#ffffff;fill-opacity:1;fill-rule:nonzero;stroke:none"
         d="m 299.87453,592.18819 c -8.68375,4.435 -12.6825,12.37 -12.0575,23.74 l 25.615,41.10875 -19.2425,-42.98375 c -4.06125,-8.8075 -0.9375,-15.305 9.43375,-19.61625 l -3.74875,-2.24875"
         inkscape:connector-curvature="0" />
      <path
         id="path976"
         style="fill:#ffffff;fill-opacity:1;fill-rule:nonzero;stroke:none"
         d="m 352.54078,650.41444 -27.30125,-0.875 27.73875,3.06125 18.805,-7.62125 -1.24875,-1.5625 -17.99375,6.9975"
         inkscape:connector-curvature="0" />
      <path
         id="path978"
         style="fill:#bbbbbb;fill-opacity:1;fill-rule:nonzero;stroke:none"
         d="m 301.56078,644.10444 -8.24625,-14.80625 c -4.685,-5.24875 -7.2475,-10.55875 -7.685,-15.86875 l 0,11.37 c 11.55875,22.30375 23.92875,38.7975 37.23625,49.48 2.93625,1.0625 5.9975,1.5 9.24625,1.3125 l 4.4975,12.995 c -13.1825,2.31125 -26.67625,1.68625 -40.54625,-1.8125 -0.125,0.3125 -0.25,0.6875 -0.4375,1.0625 17.93125,11.4325 35.86125,13.99375 53.79125,7.56 -0.6875,-2.56125 -1.24875,-5.12375 -1.68625,-7.685 l 11.745,-3.99875 c -1.0625,-1.18625 -1.875,-2.37375 -2.43625,-3.62375 -0.5625,-1.31125 -0.9375,-2.62375 -1.0625,-4.06 -0.125,-1.5 0,-3.06125 0.375,-4.68625 0.0625,-0.1875 0.125,-0.37375 0.1875,-0.62375 l 0.87375,-0.6875 0,-1.9375 -5.81,-0.0625 0.8125,14.245 -4.9975,3.43625 c -0.8125,-4.68625 -1.1875,-9.55875 -1.125,-14.495 1.6875,-0.93625 3.49875,-1.99875 5.31,-3.18625 l 17.86875,-9.05875 6.81,-5.4975 c 0.0625,-2.31125 -0.375,-4.3725 -1.25,-6.185 l -31.425,15.05625 c -9.55875,2.24875 -19.7425,1.56125 -30.55,-1.99875 l -11.49625,-16.24375"
         inkscape:connector-curvature="0" />
      <path
         id="path980"
         style="fill:#e1e1e1;fill-opacity:1;fill-rule:nonzero;stroke:none"
         d="m 285.62953,624.79944 0,9.74625 c -0.43625,12.4325 3.87375,23.9275 12.93375,34.48625 l 0,12.495 c -0.875,1.6875 -1.6875,3.43625 -2.5,5.2475 13.87,3.49875 27.36375,4.12375 40.54625,1.8125 l -4.4975,-12.995 c -3.24875,0.1875 -6.31,-0.25 -9.24625,-1.3125 -13.3075,-10.6825 -25.6775,-27.17625 -37.23625,-49.48 z m 13.745,42.7325 c -9.37125,-11.6825 -13.495,-23.99 -12.3075,-36.9225 0.8125,10.12125 5.81,21.36625 15.11875,33.73625 l -0.125,21.49125 -3.81,0 2.37375,-4.2475 -1.25,-14.0575"
         inkscape:connector-curvature="0" />
      <path
         id="path982"
         style="fill:#ffffff;fill-opacity:1;fill-rule:nonzero;stroke:none"
         d="m 287.06703,630.60944 c -1.1875,12.9325 2.93625,25.24 12.3075,36.9225 l 1.25,14.0575 -2.37375,4.2475 3.81,0 0.125,-21.49125 c -9.30875,-12.37 -14.30625,-23.615 -15.11875,-33.73625"
         inkscape:connector-curvature="0" />
      <path
         id="path984"
         style="fill:#dca56d;fill-opacity:1;fill-rule:nonzero;stroke:none"
         d="m 357.41453,670.03194 -0.875,0.6875 c -0.0625,0.25 -0.125,0.43625 -0.1875,0.62375 -0.375,1.625 -0.5,3.18625 -0.375,4.68625 l 11.62,-2.93625 7.8725,3.68625 2.56125,-1.125 2.62375,-5.9975 -1.56125,0 -5.935,-4.31125 c -0.0625,0.0625 -0.1875,0.1875 -0.25,0.25 l -2.81125,-5.31 -12.6825,9.74625 z m 0.37375,3.24875 0,-1.875 12.12125,-9.18375 0.87375,1.25 -12.995,9.80875 z m 10.93375,-4.18625 2.06125,-2.18625 c 0.25,-0.375 0.6875,-0.625 1.3125,-0.8125 l 6.31,6.56 -2.37375,0 -5.24875,-5.7475 c -0.87375,1.37375 0.625,4.2475 4.56125,8.62125 l -4.06125,-1.6875 -2.56125,-4.7475"
         inkscape:connector-curvature="0" />
      <path
         id="path986"
         style="fill:#f3ddcf;fill-opacity:1;fill-rule:nonzero;stroke:none"
         d="m 357.78828,671.40569 0,1.875 12.995,-9.80875 -0.87375,-1.25 -12.12125,9.18375"
         inkscape:connector-curvature="0" />
      <path
         id="path988"
         style="fill:#a56e44;fill-opacity:1;fill-rule:nonzero;stroke:none"
         d="m 370.78453,666.90819 -2.0625,2.18625 2.56125,4.7475 4.06125,1.6875 c -3.93625,-4.3725 -5.435,-7.2475 -4.56,-8.62125"
         inkscape:connector-curvature="0" />
      <path
         id="path990"
         style="fill:#a56e44;fill-opacity:1;fill-rule:nonzero;stroke:none"
         d="m 378.40578,672.65569 -6.31,-6.56 c -0.625,0.1875 -1.0625,0.4375 -1.3125,0.8125 l 5.24875,5.7475 2.37375,0"
         inkscape:connector-curvature="0" />
      <path
         id="path992"
         style="fill:#e1e1e1;fill-opacity:1;fill-rule:nonzero;stroke:none"
         d="m 351.60328,668.03194 c -1.81125,1.1875 -3.6225,2.25 -5.31,3.18625 -0.0625,4.93625 0.3125,9.80875 1.125,14.495 l 4.9975,-3.43625 -0.8125,-14.245"
         inkscape:connector-curvature="0" />
      <path
         id="path994"
         style="fill:#b10101;fill-opacity:1;fill-rule:nonzero;stroke:none"
         d="m 419.88953,614.42819 0,-1.43625 -17.36875,17.555 -1.24875,1.3125 -23.36625,20.30375 -1.62375,1.375 0,-0.0625 -6.81,5.4975 0.625,1.3125 2.81125,5.31 c 0.0625,-0.0625 0.1875,-0.1875 0.25,-0.25 1.87375,-2.31125 3.935,-1.56125 6.24625,2.125 l 2.25,-2.6875 c -0.4375,-2.81125 -0.375,-4.8725 0.3125,-6.31 0.0625,-0.0625 0.0625,-0.125 0.125,-0.1875 0.4375,-0.93625 1.18625,-1.49875 2.24875,-1.81125 l 0.25,2.49875 4.31125,-5.31 30.9875,-39.235"
         inkscape:connector-curvature="0" />
      <path
         id="path996"
         style="fill:#dca56d;fill-opacity:1;fill-rule:nonzero;stroke:none"
         d="m 399.45953,621.11319 c -0.3125,-0.74875 -0.87375,-1.31125 -1.68625,-1.68625 l -10.99625,5.3725 -1.62375,2.375 -8.06,11.495 -7.24625,2.87375 c 2.37375,1.62375 4.1225,3.56125 5.185,5.7475 l 19.18,-16.30625 8.30875,-0.4375 c 0.5,-1.37375 0.0625,-2.24875 -1.31125,-2.68625 l -1.375,0 -3.99875,1.0625 0.5625,-2.43625 4.24875,-1.3125 c -0.125,-0.5 -0.375,-0.9375 -0.8125,-1.375 l -5.435,1.1875 0.3125,-1.81125 4.7475,-2.0625 z m -6.06,2 -5.31,5.31 -8.185,12.1825 -4.7475,2.43625 -2.43625,-1.06125 6.06,-2.6875 8.55875,-13.30625 6.06,-2.87375"
         inkscape:connector-curvature="0" />
      <path
         id="path998"
         style="fill:#f3ddcf;fill-opacity:1;fill-rule:nonzero;stroke:none"
         d="m 388.08953,628.42319 5.31,-5.31 -6.06,2.87375 -8.55875,13.3075 -6.06,2.68625 2.43625,1.0625 4.7475,-2.4375 8.185,-12.1825"
         inkscape:connector-curvature="0" />
      <path
         id="path1000"
         style="fill:#a56e44;fill-opacity:1;fill-rule:nonzero;stroke:none"
         d="m 399.83453,623.79944 c 0.125,-1.06125 0,-1.99875 -0.375,-2.68625 l -4.7475,2.0625 -0.3125,1.81125 5.435,-1.1875"
         inkscape:connector-curvature="0" />
      <path
         id="path1002"
         style="fill:#a56e44;fill-opacity:1;fill-rule:nonzero;stroke:none"
         d="m 399.83453,627.86069 c 0.6875,-0.99875 1,-1.87375 0.8125,-2.68625 l -4.24875,1.3125 -0.5625,2.43625 3.99875,-1.0625"
         inkscape:connector-curvature="0" />
      <path
         id="path1004"
         style="fill:#650101;fill-opacity:1;fill-rule:nonzero;stroke:none"
         d="m 401.20953,627.86069 c 1.37375,0.4375 1.81125,1.3125 1.31125,2.68625 l 17.36875,-17.555 -18.68,14.86875"
         inkscape:connector-curvature="0" />
      <path
         id="path1006"
         style="fill:#a56e44;fill-opacity:1;fill-rule:nonzero;stroke:none"
         d="m 401.27203,631.85944 1.24875,-1.3125 -8.30875,0.4375 -19.18,16.30625 c 0.875,1.8125 1.3125,3.87375 1.25,6.185 l 1.62375,-1.3125 23.36625,-20.30375"
         inkscape:connector-curvature="0" />
      <path
         id="path1008"
         style="fill:#d20202;fill-opacity:1;fill-rule:nonzero;stroke:none"
         d="m 385.15328,627.17319 1.62375,-2.37375 -9.87125,-1.56125 0,2.37375 8.2475,1.56125"
         inkscape:connector-curvature="0" />
      <path
         id="path1010"
         style="fill:#dca56d;fill-opacity:1;fill-rule:nonzero;stroke:none"
         d="m 382.09203,658.28569 c -0.0625,0.0625 -0.0625,0.125 -0.125,0.1875 -0.6875,1.4375 -0.75,3.49875 -0.3125,6.31 l -2.25,2.68625 c 0.4375,0.625 0.8125,1.375 1.25,2.1875 l 2.68625,-3.12375 -1.24875,-8.2475"
         inkscape:connector-curvature="0" />
      <path
         id="path1012"
         style="fill:#a56e44;fill-opacity:1;fill-rule:nonzero;stroke:none"
         d="m 383.34078,666.53319 -2.68625,3.12375 -2.62375,5.9975 -2.56125,1.125 -7.8725,-3.68625 -11.62,2.93625 c 0.125,1.43625 0.5,2.74875 1.0625,4.06 l 3.37375,-0.3125 17.805,-1.43625 7.12125,-11.4325 -0.37375,-3.93625 -0.375,-3.99875 -0.25,-2.49875 c -1.0625,0.3125 -1.81125,0.875 -2.24875,1.81125 l 1.24875,8.2475"
         inkscape:connector-curvature="0" />
      <path
         id="path1014"
         style="fill:#a56e44;fill-opacity:1;fill-rule:nonzero;stroke:none"
         d="m 380.65453,669.65694 c -0.4375,-0.8125 -0.8125,-1.5625 -1.24875,-2.18625 -2.3125,-3.68625 -4.37375,-4.43625 -6.2475,-2.125 l 5.935,4.31125 1.56125,0"
         inkscape:connector-curvature="0" />
      <path
         id="path1016"
         style="fill:#dca56d;fill-opacity:1;fill-rule:nonzero;stroke:none"
         d="m 384.59078,658.97319 0.375,3.99875 c 3.24875,-2.18625 4.56,-5.31 3.935,-9.30875 l -4.31,5.31"
         inkscape:connector-curvature="0" />
      <path
         id="path1018"
         style="fill:#484848;fill-opacity:1;fill-rule:nonzero;stroke:none"
         d="m 359.47578,683.71319 0.9375,-3.93625 -3.37375,0.3125 c 0.56125,1.25 1.37375,2.4375 2.43625,3.62375"
         inkscape:connector-curvature="0" />
      <path
         id="path1020"
         style="fill:#000000;fill-opacity:1;fill-rule:nonzero;stroke:none"
         d="m 368.15953,795.98069 -4.49875,-12.0575 c -4.6225,-17.9925 -9.245,-32.79875 -13.93125,-44.42 -4.68625,-11.6825 -6.2475,-19.49125 -4.74875,-23.3025 1.5,-3.87375 3,-10.80875 4.43625,-20.80375 -17.93,6.43375 -35.86,3.8725 -53.79125,-7.56 l 24.49125,19.3675 14.18125,4.185 -2.06125,26.0525 12.0575,42.67 -17.805,11.18375 -21.6175,15.18125 0.8125,4.9975 c 8.93375,-4.31 18.18,-7.68375 27.73875,-10.1825 1.25,-0.375 2.56125,-0.6875 3.87375,-1 9.93375,-2.43625 20.24125,-3.87375 30.8625,-4.31125"
         inkscape:connector-curvature="0" />
      <path
         id="path1022"
         style="fill:#333333;fill-opacity:1;fill-rule:nonzero;stroke:none"
         d="m 332.23703,737.44194 2.06125,-26.0525 -14.18125,-4.185 -24.49125,-19.3675 c -1.99875,5.06125 -3.685,10.87125 -5.06,17.36875 -4.74875,12.0575 -3.18625,25.55125 4.6225,40.545 4.24875,5.68625 6.3725,11.43375 6.31,17.11875 l -7.93375,47.98125 9.87125,0 0,-13.4325 1.43625,9.05875 21.6175,-15.18125 17.805,-11.18375 -12.0575,-42.67 z m -34.54875,-44.73125 2.93625,3.6225 c -10.30875,14.6825 -10.62125,30.55125 -0.8125,47.60625 l 8.18375,14.24375 -7.37125,46.1075 -3.87375,1.24875 7.7475,-46.04375 -10.99625,-21.05375 c -5.435,-15.93125 -3.99875,-31.175 4.18625,-45.73125"
         inkscape:connector-curvature="0" />
      <path
         id="path1024"
         style="fill:#999999;fill-opacity:1;fill-rule:nonzero;stroke:none"
         d="m 300.62453,696.33319 -2.93625,-3.6225 c -8.185,14.55625 -9.62125,29.8 -4.18625,45.73125 l 10.99625,21.05375 -7.7475,46.04375 3.87375,-1.24875 7.37125,-46.1075 -8.18375,-14.24375 c -9.80875,-17.055 -9.49625,-32.92375 0.8125,-47.60625"
         inkscape:connector-curvature="0" />
      <path
         id="path1026"
         style="fill:#a56e44;fill-opacity:1;fill-rule:nonzero;stroke:none"
         d="m 353.35328,810.03819 1.25,16.61875 c -0.75,29.05 2.68625,55.7275 10.3075,79.905 l 5.06125,32.8 c 4.81,2.31125 9.87,1.87375 15.18125,-1.3125 l -14.245,-39.9225 c -3.37375,-8.18375 -5.6225,-18.99125 -6.685,-32.42375 l 0,-41.60875 c 3.93625,-8.68375 5.24875,-18.055 3.93625,-28.11375 -10.62125,0.4375 -20.92875,1.875 -30.8625,4.31125 0.375,1.3125 0.6875,2.62375 1,3.93625 l 15.05625,5.81"
         inkscape:connector-curvature="0" />
      <path
         id="path1028"
         style="fill:#dca56d;fill-opacity:1;fill-rule:nonzero;stroke:none"
         d="m 354.60328,826.65694 -1.25,-16.61875 -15.05625,-5.81 c 1.56125,7.55875 1.24875,15.11875 -1,22.67875 -2.18625,10.745 -0.375,23.5525 5.4975,38.35875 l 8.80875,30.17625 c 2.625,7.55875 2.625,13.55625 0,18.055 l 10.43375,19.3675 c 2.56125,3.06 5.2475,5.185 7.935,6.4975 l -5.06125,-32.8 c -7.62125,-24.1775 -11.0575,-50.855 -10.3075,-79.905 z m -14.745,-2.3125 1.75,-16.9925 4.1225,2.43625 -1.68625,15.24375 c -2.87375,11.12 -2.18625,22.55375 2.06125,34.29875 l 11.05875,35.67375 c 2.24875,8.05875 2.24875,15.80625 0,23.24 l -2.37375,-4.8725 c 1.31125,-1.625 0.62375,-8.55875 -2.125,-20.805 l -9.30875,-32.54875 c -5.56,-14.245 -6.7475,-26.115 -3.49875,-35.67375"
         inkscape:connector-curvature="0" />
      <path
         id="path1030"
         style="fill:#f3ddcf;fill-opacity:1;fill-rule:nonzero;stroke:none"
         d="m 341.60828,807.35194 -1.75,16.9925 c -3.24875,9.55875 -2.06125,21.42875 3.49875,35.67375 l 9.30875,32.54875 c 2.74875,12.24625 3.43625,19.18 2.125,20.805 l 2.37375,4.8725 c 2.24875,-7.43375 2.24875,-15.18125 0,-23.24 l -11.05875,-35.67375 c -4.2475,-11.745 -4.935,-23.17875 -2.06125,-34.29875 l 1.68625,-15.24375 -4.1225,-2.43625"
         inkscape:connector-curvature="0" />
      <path
         id="path1032"
         style="fill:#a56e44;fill-opacity:1;fill-rule:nonzero;stroke:none"
         d="m 320.42953,815.47319 -4.87375,16.30625 -6.935,69.90875 1.875,24.6775 c 0.56125,0.75 1.18625,1.5 1.74875,2.25 5.56,8.93375 10.62125,12.1825 15.24375,9.62125 -10.745,-16.30625 -14.74375,-35.86125 -12.0575,-58.66375 3.37375,-15.0575 5.7475,-31.1125 7.06,-48.23125 6.93375,-8.43375 10.5575,-18.4925 10.9325,-30.05 -9.55875,2.49875 -18.80375,5.8725 -27.73875,10.1825 l -0.8125,-4.9975 -1.43625,-9.05875 0,13.4325 c -0.1875,0.93625 -0.375,1.87375 -0.5625,2.81125 l 17.55625,1.81125"
         inkscape:connector-curvature="0" />
      <path
         id="path1034"
         style="fill:#dca56d;fill-opacity:1;fill-rule:nonzero;stroke:none"
         d="m 315.55578,831.77944 4.87375,-16.30625 -17.55625,-1.81125 c -1.375,5.9975 -3.49875,11.4325 -6.31,16.3675 -4.185,10.80875 -4.185,29.55125 0,56.3525 0.1875,10.18375 -0.8125,18.55625 -2.99875,24.99125 5.8725,3.31 11.495,8.30875 16.93125,14.9925 l -1.875,-24.67625 6.935,-69.91 z m -11.37,-16.43125 3.435,0 c -9.0575,17.74375 -11.37,40.60875 -6.87125,68.535 0.0625,0.125 0.0625,0.25 0.0625,0.375 l 0.25,29.8 -4.49875,-3.1225 1.6875,-24.92875 c -4.18625,-20.67875 -4.18625,-39.04625 0,-55.1025 l 5.935,-15.55625"
         inkscape:connector-curvature="0" />
      <path
         id="path1036"
         style="fill:#f3ddcf;fill-opacity:1;fill-rule:nonzero;stroke:none"
         d="m 307.62078,815.34819 -3.435,0 -5.935,15.55625 c -4.18625,16.05625 -4.18625,34.42375 0,55.1025 l -1.6875,24.92875 4.49875,3.1225 -0.25,-29.8 c 0,-0.125 0,-0.25 -0.0625,-0.375 -4.49875,-27.92625 -2.18625,-50.79125 6.87125,-68.535"
         inkscape:connector-curvature="0" />
      <path
         id="path1038"
         style="fill:#000000;fill-opacity:1;fill-rule:nonzero;stroke:none"
         d="m 310.49578,926.36569 c -5.43625,-6.68375 -11.05875,-11.6825 -16.93125,-14.9925 -6.56,2.9975 -8.24625,8.30875 -5.06,15.9925 5.56,7.81 7.37125,15.11875 5.435,21.92875 l 3.87375,0 c -1.375,-10.1825 -0.375,-15.36875 2.99875,-15.49375 3.93625,7.935 8.49625,12.87 13.62,14.86875 l 24.98875,0 c 0.75,-4.31 -3.24875,-7.74625 -11.9325,-10.4325 -4.6225,2.56125 -9.68375,-0.6875 -15.24375,-9.62125 -0.5625,-0.75 -1.1875,-1.5 -1.74875,-2.25"
         inkscape:connector-curvature="0" />
      <path
         id="path1040"
         style="fill:#000000;fill-opacity:1;fill-rule:nonzero;stroke:none"
         d="m 397.02328,948.91944 c -0.125,-5.685 -4.06125,-9.3075 -11.87,-10.87 -5.31125,3.18625 -10.37125,3.62375 -15.18125,1.3125 -2.6875,-1.3125 -5.37375,-3.43625 -7.935,-6.4975 l -10.43375,-19.3675 c -5.185,6.435 -5.185,12.3075 0,17.7425 2.3125,6.935 3.43625,13.0575 3.43625,18.305 l 2.62375,0 0,-15.55625 9.2475,14.93125 30.1125,0"
         inkscape:connector-curvature="0" />
    </g>
  </g>
</svg>
