<?xml version="1.0" encoding="UTF-8" standalone="no"?>
<!-- Created with Inkscape (http://www.inkscape.org/) -->

<svg
   xmlns:dc="http://purl.org/dc/elements/1.1/"
   xmlns:cc="http://creativecommons.org/ns#"
   xmlns:rdf="http://www.w3.org/1999/02/22-rdf-syntax-ns#"
   xmlns:svg="http://www.w3.org/2000/svg"
   xmlns="http://www.w3.org/2000/svg"
   xmlns:sodipodi="http://sodipodi.sourceforge.net/DTD/sodipodi-0.dtd"
   xmlns:inkscape="http://www.inkscape.org/namespaces/inkscape"
   width="150"
   height="150"
   id="svg5708"
   version="1.1"
   inkscape:version="0.48.5 r10040"
   sodipodi:docname="4.svg">
  <defs
     id="defs5710" />
  <sodipodi:namedview
     id="base"
     pagecolor="#ffffff"
     bordercolor="#666666"
     borderopacity="1.0"
     inkscape:pageopacity="0.0"
     inkscape:pageshadow="2"
     inkscape:zoom="1.979899"
     inkscape:cx="128.01993"
     inkscape:cy="126.41289"
     inkscape:document-units="px"
     inkscape:current-layer="layer1"
     showgrid="false"
     fit-margin-top="0"
     fit-margin-left="0"
     fit-margin-right="0"
     fit-margin-bottom="0"
     inkscape:window-width="1440"
     inkscape:window-height="878"
     inkscape:window-x="0"
     inkscape:window-y="0"
     inkscape:window-maximized="1" />
  <metadata
     id="metadata5713">
    <rdf:RDF>
      <cc:Work
         rdf:about="">
        <dc:format>image/svg+xml</dc:format>
        <dc:type
           rdf:resource="http://purl.org/dc/dcmitype/StillImage" />
        <dc:title />
      </cc:Work>
    </rdf:RDF>
  </metadata>
  <g
     inkscape:label="Layer 1"
     inkscape:groupmode="layer"
     id="layer1"
     transform="translate(-234.05625,-599.05949)">
    <g
       id="g3070"
       transform="matrix(0.34038597,0,0,0.34038597,181.66091,492.57492)">
      <path
         id="path1200"
         style="fill:#a56e44;fill-opacity:1;fill-rule:nonzero;stroke:none"
         d="m 318.5225,337.53667 3.12375,6.06 -4.8725,8.55875 9.37125,-9.37125 -2.93625,-5.06 14.30625,-2.9375 -1.74875,12.6825 c 3.56125,5.56 3.93625,8.6225 1.25,9.24625 l -3.1875,2 0,9.24625 c -5.56,2.06125 -11.12,2.12375 -16.6175,0.0625 -1.5625,-1.5 -3.18625,-3.24875 -4.74875,-5.31125 l -7.93375,-6.68375 c -0.1875,0.56125 -0.3125,1.06125 -0.4375,1.62375 l 11.37,12.62 -7.37125,7.185 c 0.5,0.375 2.12375,0.99875 4.935,1.87375 2.68625,0.8125 4.37375,1.5 4.935,1.93625 l 1.8125,1.5625 0.9375,-10.37125 c 2.74875,1.9375 5.4975,2.49875 8.24625,1.6875 2.31125,-0.625 4.935,-2.31125 7.81,-5.12375 l 0,-9.0575 c 3.3725,-0.875 4.9975,-2.25 4.8725,-4.12375 l -2.68625,-8.9975 c 1.43625,-4.685 1.43625,-9.4325 0,-14.24375 -7.4975,-1.87375 -14.30625,-0.25 -20.43,4.93625"
         inkscape:connector-curvature="0" />
      <path
         id="path1202"
         style="fill:#000000;fill-opacity:1;fill-rule:nonzero;stroke:none"
         d="m 321.64625,343.59667 -3.12375,-6.06 c 6.12375,-5.18625 12.9325,-6.81 20.43,-4.93625 3.06125,-1.31125 3.93625,-2.87375 2.68625,-4.7475 l -8.37125,-5.37375 c -0.4375,-0.24875 -0.8125,-0.49875 -1.1875,-0.74875 2.56125,2.68625 1.99875,5.06 -1.74875,7.12125 -7.935,-0.1875 -14.745,1.875 -20.305,6.185 l 1.5,4.62375 c -6.435,0.3125 -10.18375,3.49875 -11.12125,9.55875 -0.0625,7.62125 -3.12375,12.995 -9.12125,16.11875 0.6875,1.12375 1.5,2.24875 2.37375,3.435 0.0625,0.0625 0.125,0.125 0.1875,0.1875 0.5625,-0.25 1.0625,-0.49875 1.625,-0.81125 4.185,-2.24875 7.06,-5.7475 8.62125,-10.49625 0.125,-0.5625 0.25,-1.0625 0.4375,-1.62375 -0.5625,-5.68625 1.62375,-9.43375 6.4975,-11.37125 3.56125,-0.3125 5.4975,2.18625 5.7475,7.4975 l 4.8725,-8.55875"
         inkscape:connector-curvature="0" />
      <path
         id="path1204"
         style="fill:#dca56d;fill-opacity:1;fill-rule:nonzero;stroke:none"
         d="m 323.20875,337.72417 2.93625,5.06 -9.37125,9.37125 c -0.25,-5.31125 -2.18625,-7.81 -5.7475,-7.4975 -4.87375,1.93625 -7.06,5.685 -6.4975,11.37125 l 7.93375,6.68375 c 1.5625,2.0625 3.18625,3.81125 4.74875,5.31125 5.4975,2.06125 11.0575,1.99875 16.6175,-0.0625 l 0,-9.24625 3.1875,-2 c 2.68625,-0.62375 2.31125,-3.68625 -1.25,-9.24625 l 1.74875,-12.6825 -14.30625,2.9375 z m -10.30875,8.24625 1.125,1.93625 c -5.435,1.4375 -7.06,3.56125 -4.8725,6.2475 l 9.745,13.1825 -13.0575,-12.9325 c -0.125,-5.06 2.25,-7.87125 7.06,-8.43375"
         inkscape:connector-curvature="0" />
      <path
         id="path1206"
         style="fill:#f3ddcf;fill-opacity:1;fill-rule:nonzero;stroke:none"
         d="m 314.025,347.90667 -1.125,-1.93625 c -4.81,0.5625 -7.185,3.37375 -7.06,8.43375 l 13.0575,12.9325 -9.745,-13.1825 c -2.1875,-2.68625 -0.5625,-4.81 4.8725,-6.2475"
         inkscape:connector-curvature="0" />
      <path
         id="path1208"
         style="fill:#333333;fill-opacity:1;fill-rule:nonzero;stroke:none"
         d="m 311.52625,339.66042 -1.5,-4.62375 c 5.56,-4.31 12.37,-6.3725 20.305,-6.185 3.7475,-2.06125 4.31,-4.435 1.74875,-7.12125 -12.9325,-8.435 -24.8025,-7.8725 -35.5475,1.74875 -8.935,0 -12.87125,7.3725 -11.80875,22.05375 0.375,6.935 2.56125,13.495 6.56,19.805 5.9975,-3.12375 9.05875,-8.4975 9.12125,-16.11875 0.9375,-6.06 4.68625,-9.24625 11.12125,-9.55875 z m 6.43375,-22.30375 11.68375,4.62375 c -12.995,-3.1875 -22.99125,-1.6875 -30.05125,4.435 l -8.12125,5.31125 c -3.93625,7.87125 -4.56,16.93 -1.99875,27.23875 -3.93625,-9.18375 -4.56125,-18.7425 -1.75,-28.80125 1.4375,-3.56125 5.18625,-5.56 11.12125,-5.9975 3.24875,-4.81125 9.62125,-7.1225 19.11625,-6.81"
         inkscape:connector-curvature="0" />
      <path
         id="path1210"
         style="fill:#999999;fill-opacity:1;fill-rule:nonzero;stroke:none"
         d="M 329.64375,321.98042 317.96,317.35667 c -9.495,-0.3125 -15.8675,1.99875 -19.11625,6.81 -5.935,0.4375 -9.68375,2.43625 -11.12125,5.9975 -2.81125,10.05875 -2.18625,19.6175 1.75,28.80125 -2.56125,-10.30875 -1.9375,-19.3675 1.99875,-27.23875 l 8.12125,-5.31125 c 7.06,-6.1225 17.05625,-7.6225 30.05125,-4.435"
         inkscape:connector-curvature="0" />
      <path
         id="path1212"
         style="fill:#000000;fill-opacity:1;fill-rule:nonzero;stroke:none"
         d="m 284.59875,379.01917 -1.87375,1.3125 c 8.43375,4.7475 15.18125,10.18375 20.2425,16.36875 l 0.24875,0.62375 c 6.435,7.685 9.30875,15.12 8.55875,22.30376 l 24.80375,39.235 0,67.91 c -1.9375,13.6825 -13.0575,19.1175 -33.3625,16.24375 l 4.49875,6.935 11.37,0.99875 9.74625,0.8125 c 0.3125,0 0.625,0 0.9375,0 10.9325,-0.8125 15.55625,-8.87125 13.86875,-24.1775 l 0.4375,-14.4325 -3.37375,-54.10375 -0.3125,-0.56125 -24.1775,-40.17125 -2.31125,-7.99751 c -7.06,-13.245 -16.86875,-23.6775 -29.30125,-31.3"
         inkscape:connector-curvature="0" />
      <path
         id="path1214"
         style="fill:#333333;fill-opacity:1;fill-rule:nonzero;stroke:none"
         d="m 283.2875,378.20792 c 0.43625,0.24875 0.87375,0.49875 1.31125,0.81125 12.4325,7.6225 22.24125,18.055 29.30125,31.3 l 2.31125,7.99751 24.1775,40.17125 0.25,-0.125 -11.5575,-29.36375 c -3.37375,-8.43375 -7.1225,-16.99251 -11.24625,-25.74001 0.0625,0.125 0.0625,0.25 0.125,0.375 -0.24875,-0.5625 -0.49875,-0.99875 -0.74875,-1.43625 -0.3125,-0.5625 -1.0625,-1.4375 -2.37375,-2.49875 -1.3125,-1.1875 -2.125,-2 -2.4375,-2.5 -5.6225,-8.30875 -13.86875,-15.93125 -24.74,-22.865 l -4.3725,3.87375"
         inkscape:connector-curvature="0" />
      <path
         id="path1216"
         style="fill:#bbbbbb;fill-opacity:1;fill-rule:nonzero;stroke:none"
         d="m 288.5975,373.27167 -0.9375,1.0625 c 10.87125,6.93375 19.1175,14.55625 24.74,22.865 l 6.685,-4.435 0.8125,-0.625 0,-5.06 c 0.3125,-0.8125 0.5,-1.6875 0.5625,-2.5 0,-0.81125 -0.25,-1.43625 -0.6875,-1.74875 l -1.8125,-1.5625 -7.49625,6.24875 -17.555,-11.43375 -2.3125,-1.49875 -1.99875,-1.3125"
         inkscape:connector-curvature="0" />
      <path
         id="path1218"
         style="fill:#dca56d;fill-opacity:1;fill-rule:nonzero;stroke:none"
         d="m 293.6575,368.77292 0,0.125 c 0.5625,0.25 1.125,0.5 1.6875,0.8125 0.9375,0.4375 1.93625,0.9375 2.87375,1.5 3.43625,1.81125 6.685,3.935 9.87125,6.2475 l 7.37125,-7.185 -11.37,-12.62 c -1.56125,4.7475 -4.43625,8.2475 -8.62125,10.49625 -0.5625,0.3125 -1.0625,0.56125 -1.625,0.81125 -0.0625,-0.0625 -0.125,-0.125 -0.1875,-0.1875 z m 5.87375,1.25 -2.93625,-1.375 8.74625,-7.62125 1.87375,2.56125 -7.68375,6.435"
         inkscape:connector-curvature="0" />
      <path
         id="path1220"
         style="fill:#f3ddcf;fill-opacity:1;fill-rule:nonzero;stroke:none"
         d="m 296.595,368.64792 2.935,1.375 7.685,-6.435 -1.87375,-2.56125 -8.74625,7.62125"
         inkscape:connector-curvature="0" />
      <path
         id="path1222"
         style="fill:#e1e1e1;fill-opacity:1;fill-rule:nonzero;stroke:none"
         d="m 293.6575,368.89792 c -0.43625,-0.1875 -0.81125,-0.37375 -1.24875,-0.56125 l -3.81125,4.935 1.99875,1.3125 4.74875,-4.87375 c -0.5625,-0.3125 -1.125,-0.5625 -1.6875,-0.8125"
         inkscape:connector-curvature="0" />
      <path
         id="path1224"
         style="fill:#ffffff;fill-opacity:1;fill-rule:nonzero;stroke:none"
         d="m 290.59625,374.58292 2.3125,1.5 5.31,-4.8725 c -0.9375,-0.5625 -1.93625,-1.0625 -2.87375,-1.5 l -4.74875,4.8725"
         inkscape:connector-curvature="0" />
      <path
         id="path1226"
         style="fill:#e1e1e1;fill-opacity:1;fill-rule:nonzero;stroke:none"
         d="m 298.21875,371.21042 -5.31,4.8725 17.555,11.43375 7.49625,-6.24875 c -0.56125,-0.4375 -2.24875,-1.12375 -4.935,-1.93625 -2.81125,-0.875 -4.435,-1.49875 -4.935,-1.87375 -3.18625,-2.3125 -6.435,-4.43625 -9.87125,-6.2475"
         inkscape:connector-curvature="0" />
      <path
         id="path1228"
         style="fill:#000000;fill-opacity:1;fill-rule:nonzero;stroke:none"
         d="m 275.29,385.39167 c -0.74875,0.4375 -1.43625,0.9375 -2.06125,1.5 17.305,2.37375 24.6775,11.6825 22.17875,27.86375 l -13.12,62.72501 10.49625,57.04 0.0625,0 9.37125,-1.75 5.7475,-1.125 -10.24625,-60.7875 6.31,-52.97875 c 2.99875,-19.68001 -6.56,-30.55001 -28.73875,-32.48751"
         inkscape:connector-curvature="0" />
      <path
         id="path1230"
         style="fill:#333333;fill-opacity:1;fill-rule:nonzero;stroke:none"
         d="m 282.725,380.33167 -7.435,5.06 c 22.17875,1.9375 31.7375,12.8075 28.73875,32.48751 l -6.31,52.97875 10.24625,60.7875 -5.7475,1.125 2.31125,5.7475 -3.93625,0.5625 2.62375,3.93625 c 20.305,2.87375 31.425,-2.56125 33.3625,-16.24375 l 0,-67.91 -24.80375,-39.235 c 0.75,-7.18376 -2.12375,-14.61876 -8.55875,-22.30376 l -0.24875,-0.625 c -5.06125,-6.18375 -11.80875,-11.62 -20.2425,-16.3675"
         inkscape:connector-curvature="0" />
      <path
         id="path1232"
         style="fill:#000000;fill-opacity:1;fill-rule:nonzero;stroke:none"
         d="m 256.5475,423.75168 c -0.8125,4.81 -1.43625,10.05875 -1.87375,15.61875 l -1.125,27.17625 7.185,46.48125 6.435,26.615 -11.995,-3.31125 -1.75,-24.5525 -8.55875,21.17875 -6.31,1.93625 -1,4.49875 17.80625,0 0.43625,5.9975 26.9275,0 0,-0.0625 0.5,-3.68625 -2.74875,0.375 -1.75,-4.87375 -5.4975,1 -13.0575,-62.5375 -3.62375,-51.85375"
         inkscape:connector-curvature="0" />
      <path
         id="path1234"
         style="fill:#333333;fill-opacity:1;fill-rule:nonzero;stroke:none"
         d="m 295.4075,414.75542 c 2.49875,-16.18125 -4.87375,-25.49 -22.17875,-27.86375 -8.05875,6.185 -13.62,18.43 -16.68125,36.86001 l 3.62375,51.85375 13.0575,62.5375 5.4975,-1 14.0575,-2.62375 -10.49625,-57.03875 13.12,-62.72501 z m -19.43,-25.3025 3.49875,2.49875 c -13.3075,9.80875 -18.4925,23.49125 -15.43125,41.04626 l 2.43625,36.4225 12.995,63.9125 -4.935,1.24875 -12.995,-70.59625 -2.37375,-32.55 c -0.9375,-19.80376 4.685,-33.79876 16.805,-41.98251"
         inkscape:connector-curvature="0" />
      <path
         id="path1236"
         style="fill:#999999;fill-opacity:1;fill-rule:nonzero;stroke:none"
         d="m 279.47625,391.95167 -3.49875,-2.49875 c -12.12,8.18375 -17.7425,22.17875 -16.805,41.98251 l 2.37375,32.55 12.995,70.59625 4.935,-1.24875 -12.995,-63.9125 -2.43625,-36.4225 c -3.06125,-17.55501 2.12375,-31.23751 15.43125,-41.04626"
         inkscape:connector-curvature="0" />
      <path
         id="path1238"
         style="fill:#d20202;fill-opacity:1;fill-rule:nonzero;stroke:none"
         d="m 321.58375,397.07417 c -0.0625,-1.87375 -0.87375,-3.31 -2.49875,-4.31 l -6.685,4.435 c 0.3125,0.5 1.125,1.3125 2.4375,2.5 1.31125,1.06125 2.06125,1.93625 2.37375,2.49875 0.25,0.4375 0.5,0.87375 0.74875,1.43625 -0.0625,-0.125 -0.0625,-0.25 -0.125,-0.375 4.12375,8.7475 7.8725,17.30626 11.24625,25.74001 -0.9375,-6.185 -1.81125,-11.12 -2.56125,-14.68126 -0.9375,-4.68625 -3.12375,-8.74625 -6.4975,-12.12 1.0625,-1.5625 1.56125,-3.31125 1.56125,-5.12375"
         inkscape:connector-curvature="0" />
      <path
         id="path1240"
         style="fill:#a56e44;fill-opacity:1;fill-rule:nonzero;stroke:none"
         d="m 307.715,549.95168 -4.49875,-6.935 -2.62375,-3.93625 -6.4975,1 -10.87,1.56125 17.68,2.25 3.87375,9.1825 -0.9375,10.43375 3.56125,0 0.3125,-1.49875 1.68625,-7.06 0.4375,-1.8125 -2.12375,-3.185"
         inkscape:connector-curvature="0" />
      <path
         id="path1242"
         style="fill:#333333;fill-opacity:1;fill-rule:nonzero;stroke:none"
         d="m 307.9025,563.50793 -25.49,0 -0.5,-4.49875 c -1.87375,1.5625 -2.74875,4.68625 -2.56125,9.2475 l 28.86375,0.81125 -0.3125,-5.56"
         inkscape:connector-curvature="0" />
      <path
         id="path1244"
         style="fill:#dca56d;fill-opacity:1;fill-rule:nonzero;stroke:none"
         d="m 303.84125,563.50793 0.9375,-10.43375 -3.87375,-9.1825 -17.68,-2.25 -0.5,3.68625 0,0.0625 -0.875,7.49625 -0.3125,2.6875 0.375,3.435 0.5,4.49875 2.87375,0 2.24875,-8.18375 0.625,8.18375 6.1225,-7.62125 0,7.62125 3.06125,0 2.99875,-7.12125 0,7.12125 3.49875,0"
         inkscape:connector-curvature="0" />
      <path
         id="path1246"
         style="fill:#000000;fill-opacity:1;fill-rule:nonzero;stroke:none"
         d="m 307.715,562.00918 0.1875,1.49875 0.3125,5.56 -28.86375,-0.81125 c -0.1875,-4.56125 0.6875,-7.685 2.56125,-9.2475 l -0.375,-3.435 0.3125,-2.6875 c -6.31,0.5625 -9.43375,5.62375 -9.37125,15.1825 l -8.99625,-0.25 -25.74,-0.75 -3.68625,70.78375 25.9275,0.875 34.67375,1.1875 -4.81125,36.9225 -2.31125,1.375 0.1875,49.0425 -27.61375,5.8725 0,10.8075 24.5525,0 0,-4.7475 8.2475,1.81125 2.31125,3.49875 31.2375,0 c 8.87125,-0.1875 14.61875,-2.31125 17.18,-6.4975 -5.3725,-2.31125 -13.18125,-3.24875 -23.49,-2.93625 l -17.43,-10.995 5.31,-1.1875 -5.685,-47.23125 4.8725,-35.36 40.98375,1.31125 2.81125,-71.34625 -32.675,-0.9375 -4.81,-0.25 c 0.8125,-8.74625 -0.5625,-13.43125 -4.12375,-14.11875 l -1.68625,7.06 z m -70.65875,72.72 3.12375,-64.09875 104.395,3.18625 -94.15,5.9975 -13.36875,54.915"
         inkscape:connector-curvature="0" />
      <path
         id="path1248"
         style="fill:#999999;fill-opacity:1;fill-rule:nonzero;stroke:none"
         d="m 240.18,570.63043 -3.12375,64.09875 13.36875,-54.915 94.15,-5.9975 -104.395,-3.18625"
         inkscape:connector-curvature="0" />
      <path
         id="path1250"
         style="fill:#333333;fill-opacity:1;fill-rule:nonzero;stroke:none"
         d="m 309.83875,553.13668 -0.4375,1.8125 c 3.56125,0.6875 4.93625,5.3725 4.12375,14.11875 l 4.81,0.25 0.75,-18.3675 -11.37,-0.99875 2.12375,3.185"
         inkscape:connector-curvature="0" />
      <path
         id="path1252"
         style="fill:#333333;fill-opacity:1;fill-rule:nonzero;stroke:none"
         d="m 253.42375,511.77918 1.75,24.5525 11.995,3.31125 -6.435,-26.615 -7.185,-46.48125 -1.12375,27.24 -6.685,6.3725 -7.185,34.735 6.31,-1.93625 8.55875,-21.17875 z m -10.995,19.55375 -1.87375,0.5 7.24625,-30.675 7.685,-7.87125 -5.87375,9.995 -7.18375,28.05125"
         inkscape:connector-curvature="0" />
      <path
         id="path1254"
         style="fill:#999999;fill-opacity:1;fill-rule:nonzero;stroke:none"
         d="m 240.555,531.83293 1.87375,-0.5 7.18375,-28.05125 5.87375,-9.995 -7.685,7.87125 -7.24625,30.675"
         inkscape:connector-curvature="0" />
      <path
         id="path1256"
         style="fill:#e1e1e1;fill-opacity:1;fill-rule:nonzero;stroke:none"
         d="m 292.84625,534.51918 -0.0625,0 -14.0575,2.62375 1.75,4.87375 2.74875,-0.375 10.87,-1.56125 -1.24875,-5.56125"
         inkscape:connector-curvature="0" />
      <path
         id="path1258"
         style="fill:#999999;fill-opacity:1;fill-rule:nonzero;stroke:none"
         d="m 302.2175,532.77043 -9.37125,1.74875 1.24875,5.56125 6.4975,-1 3.93625,-0.5625 -2.31125,-5.7475"
         inkscape:connector-curvature="0" />
      <path
         id="path1260"
         style="fill:#a56e44;fill-opacity:1;fill-rule:nonzero;stroke:none"
         d="m 285.28625,563.50793 2.87375,0 -0.625,-8.18375 -2.24875,8.18375"
         inkscape:connector-curvature="0" />
      <path
         id="path1262"
         style="fill:#a56e44;fill-opacity:1;fill-rule:nonzero;stroke:none"
         d="m 297.34375,563.50793 2.99875,0 0,-7.12125 -2.99875,7.12125"
         inkscape:connector-curvature="0" />
      <path
         id="path1264"
         style="fill:#a56e44;fill-opacity:1;fill-rule:nonzero;stroke:none"
         d="m 294.2825,563.50793 0,-7.62125 -6.1225,7.62125 6.1225,0"
         inkscape:connector-curvature="0" />
      <path
         id="path1266"
         style="fill:#333333;fill-opacity:1;fill-rule:nonzero;stroke:none"
         d="m 281.85,552.88668 0.875,-7.49625 -19.93,0 0.6875,22.42875 8.99625,0.25 c -0.0625,-9.55875 3.06125,-14.62 9.37125,-15.1825 z m -17.305,-5.935 3.31125,-0.49875 0,19.49125 -3.31125,0 0,-18.9925"
         inkscape:connector-curvature="0" />
      <path
         id="path1268"
         style="fill:#999999;fill-opacity:1;fill-rule:nonzero;stroke:none"
         d="m 267.85625,546.45293 -3.31125,0.49875 0,18.9925 3.31125,0 0,-19.49125"
         inkscape:connector-curvature="0" />
      <path
         id="path1270"
         style="fill:#333333;fill-opacity:1;fill-rule:nonzero;stroke:none"
         d="m 294.6575,639.91543 -34.67375,-1.1875 3.56125,62.725 -5.56,32.1125 2.12375,-0.4375 27.61375,-5.8725 -0.1875,-49.0425 2.31125,-1.375 4.81125,-36.9225 z m -31.425,2.93625 7.685,0 0,81.905 -7.8725,4.1225 5.24875,-28.675 -5.06125,-57.3525"
         inkscape:connector-curvature="0" />
      <path
         id="path1272"
         style="fill:#999999;fill-opacity:1;fill-rule:nonzero;stroke:none"
         d="m 270.9175,642.85168 -7.685,0 5.06125,57.3525 -5.24875,28.675 7.8725,-4.1225 0,-81.905"
         inkscape:connector-curvature="0" />
      <path
         id="path1274"
         style="fill:#000000;fill-opacity:1;fill-rule:nonzero;stroke:none"
         d="m 448.65875,349.28167 c 0.125,-0.8125 0.3125,-1.6875 0.5,-2.5 0.99875,-4.1225 2.93625,-7.49625 5.81,-10.0575 l -9.24625,6.06 -1.125,12.6825 c 2.93625,16.43125 0.0625,28.30125 -8.62125,35.485 6.06,-0.81125 10.62,-4.3725 13.80625,-10.745 1.4375,-2.68625 2.5625,-5.8725 3.49875,-9.68375 -1.93625,-3.37375 -3.31125,-6.8725 -4.1225,-10.49625 -1.3125,-0.56125 -2.25,-1.99875 -2.8125,-4.435 l 2.3125,-6.31"
         inkscape:connector-curvature="0" />
      <path
         id="path1276"
         style="fill:#dca56d;fill-opacity:1;fill-rule:nonzero;stroke:none"
         d="m 449.15875,346.78167 c -0.1875,0.8125 -0.375,1.6875 -0.5,2.5 l -2.3125,6.31 c 0.5625,2.43625 1.5,3.87375 2.8125,4.43625 0.81125,3.6225 2.18625,7.12125 4.1225,10.495 6.8725,5.81 12.9325,6.81 18.11875,3.12375 l 7.87125,-9.24625 c -4.18625,-19.055 -10.24625,-28.67625 -18.1175,-28.92625 -5.7475,2.4375 -9.74625,6.185 -11.995,11.3075 z m 1.49875,0.25 4.93625,-6.1225 c -3.99875,5.18625 -5.43625,10.12125 -4.24875,14.8075 l 1.4375,1.37375 2.81125,10.12125 4.185,6.06 -5.3725,-3.74875 -3.74875,-10.5575 c -3.18625,-0.625 -3.18625,-4.62375 0,-11.93375"
         inkscape:connector-curvature="0" />
      <path
         id="path1278"
         style="fill:#f3ddcf;fill-opacity:1;fill-rule:nonzero;stroke:none"
         d="m 455.59375,340.90917 -4.93625,6.1225 c -3.18625,7.31 -3.18625,11.30875 0,11.93375 l 3.74875,10.5575 5.3725,3.74875 -4.185,-6.06 -2.81125,-10.12125 -1.4375,-1.37375 c -1.1875,-4.68625 0.25,-9.62125 4.24875,-14.8075"
         inkscape:connector-curvature="0" />
      <path
         id="path1280"
         style="fill:#333333;fill-opacity:1;fill-rule:nonzero;stroke:none"
         d="m 463.5275,316.10667 c -1.1875,0.1875 -2.43625,0.5 -3.62375,0.875 -10.30875,7.435 -17.055,17.43 -20.24125,29.9875 -1.625,7.06 -2.0625,14.62 -1.25,22.55375 -1.31125,11.6825 -6.935,17.99375 -16.80625,18.9925 2.5,0.9375 4.81125,1.6875 6.9975,2.12375 0.75,0.125 1.5,0.25 2.25,0.3125 1.81125,0.1875 3.4975,0.1875 5.1225,0 8.68375,-7.18375 11.5575,-19.05375 8.62125,-35.485 l 1.125,-12.6825 9.24625,-6.06 0,-0.0625 c 1.99875,-1.8125 4.4975,-3.31125 7.43375,-4.37375 7.7475,3.24875 12.87,7.935 15.36875,14.0575 1,2.81125 1.75,5.56 2.25,8.37125 l 2.74875,-1.125 9.12125,7.06 -7.2475,-21.05375 c -4.685,-15.11875 -11.745,-22.92875 -21.11625,-23.49125 z m -3.49875,2.62375 3.49875,-1.18625 c -9.43375,5.81 -16.18125,14.36875 -20.36625,25.8025 -1.6875,8.24625 -2.125,15.80625 -1.4375,22.61625 -0.8125,9.0575 -2.62375,15.1175 -5.56,18.18 l -4.74875,1.99875 c 5.31125,-4.93625 7.8725,-9.87125 7.7475,-14.74375 l 0,-5.81 c -0.375,-8.31 0.81125,-16.55625 3.49875,-24.86625 3.81,-9.8075 9.55875,-17.18 17.3675,-21.99125"
         inkscape:connector-curvature="0" />
      <path
         id="path1282"
         style="fill:#999999;fill-opacity:1;fill-rule:nonzero;stroke:none"
         d="m 463.5275,317.54417 -3.49875,1.18625 c -7.80875,4.81125 -13.5575,12.18375 -17.3675,21.99125 -2.6875,8.31 -3.87375,16.55625 -3.49875,24.86625 l 0,5.81 c 0.125,4.8725 -2.43625,9.8075 -7.7475,14.74375 l 4.74875,-1.99875 c 2.93625,-3.0625 4.7475,-9.1225 5.56,-18.18 -0.6875,-6.81 -0.25,-14.37 1.4375,-22.61625 4.185,-11.43375 10.9325,-19.9925 20.36625,-25.8025"
         inkscape:connector-curvature="0" />
      <path
         id="path1284"
         style="fill:#a56e44;fill-opacity:1;fill-rule:nonzero;stroke:none"
         d="m 477.77125,346.34542 c -2.49875,-6.1225 -7.62125,-10.80875 -15.36875,-14.0575 -2.93625,1.0625 -5.435,2.56125 -7.43375,4.37375 l 0,0.0625 c -2.87375,2.56125 -4.81125,5.935 -5.81,10.0575 2.24875,-5.1225 6.2475,-8.87 11.995,-11.3075 7.87125,0.25 13.93125,9.87125 18.1175,28.92625 L 471.4,373.64667 c -5.18625,3.68625 -11.24625,2.68625 -18.11875,-3.12375 1,1.87375 2.1875,3.68625 3.56125,5.4975 4.9975,4.68625 9.99625,5.1225 14.99375,1.3125 l 1.5625,-1.375 0,8.74625 -9.93375,29.55125 c -4.685,2.62376 -9.43375,3.68626 -14.18125,3.18626 l 0.74875,2.18625 c 6.435,1.5625 12.62,1.6875 18.68,0.4375 0.1875,-0.0625 0.375,-0.0625 0.5625,-0.0625 l 9.62125,-25.74001 c -0.75,-3.37375 -0.4375,-7.62125 1,-12.6825 -0.875,0.25 -1.6875,0.1875 -2.49875,-0.1875 l 2.93625,-2.74875 -0.125,-7.80875 c 0,-0.375 0,-0.6875 0.0625,-1 0.0625,-1.1875 0.1875,-1.99875 0.5,-2.37375 l 0.25,-1.81125 6.68375,5.1225 3.43625,7.87125 -1.68625,2 -1.125,-0.8125 -5.06,-3.93625 -1.4375,1.3125 9.55875,6.935 -4.2475,4.7475 0.0625,17.24375 c 1.18625,-0.5625 2.31125,-1.0625 3.4975,-1.5625 -0.0625,-0.5625 -0.0625,-1.1875 -0.0625,-1.81125 -0.0625,-3.93625 0.6875,-7.56 2.25,-10.93375 0.81125,-1.74875 1.43625,-3.56125 1.81125,-5.435 0.4375,-2.18625 0.625,-4.43625 0.4375,-6.7475 l -0.6875,-9.74625 -6.2475,-5.7475 -4.43625,-4.1225 c -0.49875,0.43625 -0.68625,1.18625 -0.56125,2.37375 l 9.55875,9.18375 1.24875,8.87125 -1.12375,-1.9375 -1.125,-6.49625 -7.9975,-7.185 -1.24875,-1.0625 -1.31125,-1.1875 c -0.125,0.3125 -0.25,0.625 -0.3125,0.9375 0,-0.3125 0,-0.5625 0,-0.875 -0.0625,-2.6225 -0.375,-5.2475 -0.875,-7.93375 -0.5,-2.81125 -1.25,-5.56 -2.25,-8.37125"
         inkscape:connector-curvature="0" />
      <path
         id="path1286"
         style="fill:#000000;fill-opacity:1;fill-rule:nonzero;stroke:none"
         d="m 483.27,322.35417 c -5.81,-5.6225 -12.4325,-7.68375 -19.7425,-6.2475 9.37125,0.5625 16.43125,8.3725 21.11625,23.49125 l 7.2475,21.05375 -9.12125,-7.06 -2.74875,1.125 c 0.5,2.68625 0.8125,5.31125 0.875,7.93375 l 0.3125,-0.0625 1.31125,1.1875 0,-4.9975 5.6225,2.18625 0.0625,3.18625 6.2475,5.7475 0.6875,9.74625 c 0.1875,2.31125 0,4.56125 -0.4375,6.7475 l 14.62,4.3725 c 0.37375,-2.685 -1,-5.6225 -4.18625,-8.80875 -5.7475,-6.06 -8.6225,-14.24375 -8.685,-24.5525 -0.0625,-0.625 -0.0625,-1.24875 0,-1.81125 -0.81125,-12.8075 -5.185,-23.9275 -13.18125,-33.2375"
         inkscape:connector-curvature="0" />
      <path
         id="path1288"
         style="fill:#b10101;fill-opacity:1;fill-rule:nonzero;stroke:none"
         d="m 483.77,364.83792 c -0.3125,-0.9375 -0.5,-1.75 -0.5625,-2.4375 -0.125,-1.18625 0.0625,-1.93625 0.5625,-2.37375 l 4.435,4.12375 -0.0625,-3.18625 -5.6225,-2.18625 0,4.9975 1.25,1.0625"
         inkscape:connector-curvature="0" />
      <path
         id="path1290"
         style="fill:#dca56d;fill-opacity:1;fill-rule:nonzero;stroke:none"
         d="m 483.2075,362.40042 c 0.0625,0.6875 0.25,1.5 0.5625,2.4375 l 7.99625,7.185 1.125,6.49625 1.12375,1.9375 -1.24875,-8.87125 -9.55875,-9.185"
         inkscape:connector-curvature="0" />
      <path
         id="path1292"
         style="fill:#ff0000;fill-opacity:1;fill-rule:nonzero;stroke:none"
         d="m 481.8325,367.39917 c -0.4375,-0.3125 -0.81125,-0.3125 -1.06125,0.0625 -0.3125,0.375 -0.4375,1.18625 -0.5,2.37375 -0.0625,0.3125 -0.0625,0.625 -0.0625,1 l 0.125,7.80875 1.49875,-1.43625 1.4375,-1.3125 0.0625,-6.56 c -0.625,-0.6875 -1.125,-1.31125 -1.5,-1.93625"
         inkscape:connector-curvature="0" />
      <path
         id="path1294"
         style="fill:#333333;fill-opacity:1;fill-rule:nonzero;stroke:none"
         d="m 480.77125,367.46167 c 0.25,-0.375 0.62375,-0.375 1.06125,-0.0625 -0.4375,-0.625 -0.68625,-1.1875 -0.81125,-1.74875 l -0.25,1.81125"
         inkscape:connector-curvature="0" />
      <path
         id="path1296"
         style="fill:#dca56d;fill-opacity:1;fill-rule:nonzero;stroke:none"
         d="m 481.8325,367.39917 c 0.375,0.625 0.875,1.24875 1.5,1.93625 0.93625,1.0625 2.06125,2.1875 3.49875,3.37375 l 1.49875,7.1225 1.125,0.8125 1.68625,-2 -3.43625,-7.87125 -6.68375,-5.1225 c 0.125,0.56125 0.37375,1.12375 0.81125,1.74875"
         inkscape:connector-curvature="0" />
      <path
         id="path1298"
         style="fill:#dca56d;fill-opacity:1;fill-rule:nonzero;stroke:none"
         d="m 481.8325,377.20792 -1.49875,1.43625 -2.93625,2.74875 c 0.81125,0.375 1.62375,0.4375 2.49875,0.1875 -1.4375,5.06125 -1.75,9.30875 -1,12.68375 0.1875,1.12375 0.5625,2.12375 1,2.9975 l 1.1875,11.87 c 0.93625,-0.56125 1.93625,-1.06125 2.935,-1.49875 1.0625,-0.5625 2.125,-1.0625 3.1875,-1.49875 l -0.0625,-17.24375 4.2475,-4.7475 -9.55875,-6.935 z m -0.62375,3.81 c 0.62375,-0.37375 1.24875,-0.87375 1.87375,-1.43625 l 3.18625,3.99875 -3.18625,0.3125 -1.87375,4.7475 0,-7.6225 z m 0.0625,15.86875 -1.6875,-7.99625 3.24875,5.6225 1.49875,11.05875 -1.93625,1.74875 -1.12375,-10.43375"
         inkscape:connector-curvature="0" />
      <path
         id="path1300"
         style="fill:#a56e44;fill-opacity:1;fill-rule:nonzero;stroke:none"
         d="m 483.0825,379.58167 c -0.625,0.5625 -1.25,1.0625 -1.87375,1.43625 l 0,7.6225 1.87375,-4.7475 0,-4.31125"
         inkscape:connector-curvature="0" />
      <path
         id="path1302"
         style="fill:#b10101;fill-opacity:1;fill-rule:nonzero;stroke:none"
         d="m 483.0825,383.89292 3.18625,-0.3125 -3.18625,-3.99875 0,4.31125"
         inkscape:connector-curvature="0" />
      <path
         id="path1304"
         style="fill:#f3ddcf;fill-opacity:1;fill-rule:nonzero;stroke:none"
         d="m 479.58375,388.89042 1.68625,7.99625 1.125,10.43375 1.93625,-1.74875 -1.49875,-11.05875 -3.24875,-5.6225"
         inkscape:connector-curvature="0" />
      <path
         id="path1306"
         style="fill:#b10101;fill-opacity:1;fill-rule:nonzero;stroke:none"
         d="m 488.33,379.83167 -1.49875,-7.1225 c -1.4375,-1.18625 -2.5625,-2.31125 -3.49875,-3.37375 l -0.0625,6.56 5.06,3.93625"
         inkscape:connector-curvature="0" />
      <path
         id="path1308"
         style="fill:#dca56d;fill-opacity:1;fill-rule:nonzero;stroke:none"
         d="m 473.39875,375.95792 -1.5625,1.375 c -4.9975,3.81 -9.99625,3.37375 -14.99375,-1.3125 -1.37375,-1.81125 -2.56125,-3.62375 -3.56125,-5.4975 -0.93625,3.81125 -2.06125,6.9975 -3.49875,9.68375 l -3.18625,30.1125 2.6875,7.12251 c 4.7475,0.5 9.49625,-0.5625 14.18125,-3.18626 l 9.93375,-29.55125 0,-8.74625 z m -19.4925,-0.3125 0,4.62375 -3.24875,35.42376 -3.06125,-5.18626 4.49875,-31.1125 1.81125,-3.74875"
         inkscape:connector-curvature="0" />
      <path
         id="path1310"
         style="fill:#f3ddcf;fill-opacity:1;fill-rule:nonzero;stroke:none"
         d="m 453.90625,380.26917 0,-4.62375 -1.81125,3.74875 -4.49875,31.1125 3.06125,5.18626 3.24875,-35.42376"
         inkscape:connector-curvature="0" />
      <path
         id="path1312"
         style="fill:#e1e1e1;fill-opacity:1;fill-rule:nonzero;stroke:none"
         d="m 494.7025,386.39167 c -0.375,1.87375 -1,3.68625 -1.81125,5.435 -1.5625,3.37375 -2.3125,6.9975 -2.25,10.9325 0,0.625 0,1.25 0.0625,1.8125 0.4375,-0.1875 0.875,-0.3125 1.3125,-0.5 l 15.93125,37.42251 -11.74625,-6.935 -12.1825,-26.92626 c -0.99875,0.4375 -1.99875,0.9375 -2.935,1.49875 l -1.1875,-11.87 c -0.4375,-0.87375 -0.8125,-1.87375 -1,-2.99875 l -9.62125,25.74001 -0.0625,0.25 -9.43375,25.4275 -0.125,0.0625 -0.62375,-1.87375 -8.9975,-24.24125 -0.74875,-2.18625 -2.6875,-7.12251 3.18625,-30.1125 c -3.18625,6.3725 -7.74625,9.93375 -13.80625,10.745 -1.625,0.1875 -3.31125,0.1875 -5.1225,0 l -3.99875,13.1825 c 10.43375,22.55376 22.30375,39.54751 35.485,51.04251 l 1.0625,3.49875 -3.43625,21.11625 0,10.62125 c 0.75,4.7475 2.49875,8.24625 5.18625,10.495 13.11875,1.8125 25.30125,1.625 36.485,-0.5 l 4.1225,-6.18375 c -2.31125,2.18625 -5.8725,3.2475 -10.8075,3.185 -10.49625,1.0625 -16.55625,-2.37375 -18.2425,-10.3075 7.37125,9.87 15.11875,10.87 23.24,3.06125 l -4.435,-8.6225 -19.305,-0.74875 0,-1.9375 20.67875,-0.375 0,-6.68375 1.3125,0 c -0.375,-1.8125 -0.6875,-3.68625 -1,-5.62375 -1.25,-0.43625 -2.43625,-1.06125 -3.62375,-1.87375 -7.68375,-4.56125 -12.0575,-9.87125 -13.18125,-16.05625 l 0,-12.62 -18.8675,16.68125 -0.75,-2.81125 c 2.81125,-1.8125 5.4975,-3.87375 7.93375,-6.185 3.56125,-3.43625 6.685,-7.2475 9.37125,-11.55875 l 0,-0.0625 -5.06,-12.9325 0,-4.56001 9.93375,21.86626 0,12.1825 c 1.49875,3.93625 3.12375,7.31 4.935,9.99625 0.0625,0.125 0.1875,0.25 0.25,0.375 l 0.125,-0.1875 c 14.9325,7.4975 22.36625,2.49875 22.30375,-14.93125 l -3.74875,-45.60751 -12.12,-11.495 z m -65.53625,16.805 2.81125,-10.4325 3.43625,-0.4375 -3.87375,10.4325 c 4.93625,12.87125 11.05875,25.36626 18.3675,37.42376 -8.12125,-10.80875 -15.05625,-23.11625 -20.74125,-36.98626 z m 46.10625,11.18375 2.56125,0 8.8725,20.80376 c -1.0625,10.18375 0.93625,17.9925 6.1225,23.42875 -6.1225,-2.0625 -8.81,-9.68375 -7.9975,-22.74125 l -9.55875,-21.49126 z m 2.56125,58.72626 12.12,0 -12.12,4.12375 0,-4.12375 z m -0.62375,13.245 0,-4.12375 10.8075,0 -10.8075,4.12375"
         inkscape:connector-curvature="0" />
      <path
         id="path1314"
         style="fill:#ffffff;fill-opacity:1;fill-rule:nonzero;stroke:none"
         d="m 431.9775,392.76417 -2.81125,10.4325 c 5.685,13.87001 12.62,26.17751 20.74125,36.98626 -7.30875,-12.0575 -13.43125,-24.55251 -18.3675,-37.42251 l 3.87375,-10.43375 -3.43625,0.4375"
         inkscape:connector-curvature="0" />
      <path
         id="path1316"
         style="fill:#ffffff;fill-opacity:1;fill-rule:nonzero;stroke:none"
         d="m 477.83375,414.38042 -2.56125,0 9.55875,21.49126 c -0.8125,13.0575 1.875,20.67875 7.9975,22.74125 -5.18625,-5.43625 -7.185,-13.245 -6.1225,-23.42875 l -8.8725,-20.80376"
         inkscape:connector-curvature="0" />
      <path
         id="path1318"
         style="fill:#ffffff;fill-opacity:1;fill-rule:nonzero;stroke:none"
         d="m 489.95375,473.10668 -12.12,0 0,4.12375 12.12,-4.12375"
         inkscape:connector-curvature="0" />
      <path
         id="path1320"
         style="fill:#ffffff;fill-opacity:1;fill-rule:nonzero;stroke:none"
         d="m 477.21,482.22793 0,4.12375 10.8075,-4.12375 -10.8075,0"
         inkscape:connector-curvature="0" />
      <path
         id="path1322"
         style="fill:#bbbbbb;fill-opacity:1;fill-rule:nonzero;stroke:none"
         d="m 487.20625,406.13417 c -1.0625,0.43625 -2.125,0.93625 -3.1875,1.49875 l 12.1825,26.92626 11.74625,6.935 -15.93125,-37.42251 c -0.4375,0.1875 -0.875,0.3125 -1.3125,0.5 -1.18625,0.5 -2.31125,1 -3.4975,1.5625"
         inkscape:connector-curvature="0" />
      <path
         id="path1324"
         style="fill:#e1e1e1;fill-opacity:1;fill-rule:nonzero;stroke:none"
         d="m 424.16875,405.38417 4.435,-14.745 c -2.18625,-0.43625 -4.4975,-1.18625 -6.9975,-2.12375 -8.30875,3.43625 -11.87,10.99625 -10.745,22.80375 -0.75,14.36876 -2.74875,26.05251 -5.935,35.11126 -4.56125,10.995 -4.56125,22.615 0,34.9225 l 9.49625,43.9825 c 0.25,-1.87375 0.75,-3.56 1.49875,-5.06 1.0625,-2.31125 2.74875,-4.06125 4.99875,-5.31 l -1.4375,-1.1875 -1.1875,-14.43125 3.74875,-10.62125 -8.55875,-16.11875 10.30875,-29.425 -1.75,-30.92501 c 1.625,10.05751 3.62375,18.61626 5.9975,25.55251 0.5,1.43625 1,2.8725 1.5625,4.2475 l 0.4375,28.61375 -2.93625,12.9325 -2.93625,12.87 c 9.62,0 13.99375,-4.24875 13.0575,-12.8075 l -8.81,-0.0625 c 8.1225,-0.1875 12.3075,-2.375 12.5575,-6.4975 l 0.3125,-4.43625 4.12375,0.75 -4.37375,15.61875 c -2.24875,8.30875 -7.87125,10.74625 -16.8675,7.435 l -1.4375,6.43375 c 17.305,1.875 28.36375,-3.6225 33.29875,-16.555 l 4.12375,-29.17625 c -16.8675,-17.4925 -28.86375,-34.73625 -35.985,-51.79126 z m -2.125,-14.745 2.8125,0 c -7.06125,3.0625 -10.18375,11.18375 -9.31,24.36625 l -3.74875,22.99126 c -5.935,14.55625 -7.18375,26.23875 -3.7475,34.985 l 8.55875,41.85875 -2.06125,3.81 -9.55875,-44.29375 c -2.93625,-7.435 -1.4375,-20.305 4.435,-38.735 L 412.86,414.69292 c -1.81125,-12.8075 1.25,-20.86625 9.18375,-24.05375 z m 1.6875,22.24125 1.68625,0.625 10.68375,29.48876 -1.125,26.42625 -3.24875,0 0,-27.73875 -7.99625,-28.80126 z m 7.80875,59.35126 3.87375,1.5 -6.2475,8.05875 2.37375,-9.55875 z m -5.685,22.74125 2.43625,-9.74625 3,0 -5.43625,9.74625"
         inkscape:connector-curvature="0" />
      <path
         id="path1326"
         style="fill:#ffffff;fill-opacity:1;fill-rule:nonzero;stroke:none"
         d="m 424.85625,390.63917 -2.8125,0 c -7.93375,3.1875 -10.995,11.24625 -9.18375,24.05375 l -3.43625,20.92876 c -5.8725,18.43 -7.37125,31.3 -4.435,38.735 l 9.55875,44.29375 2.06125,-3.81 -8.55875,-41.85875 c -3.43625,-8.74625 -2.1875,-20.42875 3.7475,-34.985 l 3.74875,-22.99126 c -0.87375,-13.1825 2.25,-21.30375 9.31,-24.36625"
         inkscape:connector-curvature="0" />
      <path
         id="path1328"
         style="fill:#ffffff;fill-opacity:1;fill-rule:nonzero;stroke:none"
         d="m 425.4175,413.50542 -1.68625,-0.625 7.99625,28.80126 0,27.73875 3.24875,0 1.125,-26.42625 -10.68375,-29.48876"
         inkscape:connector-curvature="0" />
      <path
         id="path1330"
         style="fill:#ffffff;fill-opacity:1;fill-rule:nonzero;stroke:none"
         d="m 435.41375,473.73168 -3.87375,-1.5 -2.37375,9.55875 6.2475,-8.05875"
         inkscape:connector-curvature="0" />
      <path
         id="path1332"
         style="fill:#ffffff;fill-opacity:1;fill-rule:nonzero;stroke:none"
         d="m 428.29125,485.22668 -2.43625,9.74625 5.43625,-9.74625 -3,0"
         inkscape:connector-curvature="0" />
      <path
         id="path1334"
         style="fill:#bbbbbb;fill-opacity:1;fill-rule:nonzero;stroke:none"
         d="m 428.60375,390.63917 -4.435,14.745 c 7.1225,17.05501 19.1175,34.29876 35.985,51.79126 L 456.03,486.35168 c -4.935,12.9325 -15.99375,18.43 -33.29875,16.555 l 1.4375,-6.43375 2.93625,-12.87 -4.24875,-9.62125 2.99875,-5.6225 2.18625,-30.55 c -2.37375,-6.93625 -4.3725,-15.495 -5.9975,-25.55251 l 1.75,30.92501 -10.30875,29.425 8.55875,16.11875 -3.74875,10.62125 1.1875,14.43125 1.4375,1.1875 c 1.31125,-0.8125 2.93625,-1.375 4.7475,-1.8125 l 0,-7.74625 c 1.25,0.125 2.49875,0.1875 3.68625,0.25 18.18,0.625 28.42625,-7.9975 30.6125,-25.865 l 3.43625,-21.11625 -1.0625,-3.49875 c -13.18125,-11.495 -25.05125,-28.48875 -35.485,-51.04251 l 3.99875,-13.1825 c -0.75,-0.0625 -1.5,-0.1875 -2.25,-0.3125"
         inkscape:connector-curvature="0" />
      <path
         id="path1336"
         style="fill:#bbbbbb;fill-opacity:1;fill-rule:nonzero;stroke:none"
         d="m 445.41,473.41918 -4.12375,-0.75 -0.3125,4.43625 c -0.25,4.1225 -4.435,6.31 -12.5575,6.4975 l 8.81,0.0625 c 0.93625,8.55875 -3.4375,12.8075 -13.0575,12.8075 8.99625,3.31125 14.61875,0.87375 16.8675,-7.435 L 445.41,473.41918"
         inkscape:connector-curvature="0" />
      <path
         id="path1338"
         style="fill:#ffffff;fill-opacity:1;fill-rule:nonzero;stroke:none"
         d="m 469.2125,420.25293 -0.5,-0.1875 c -6.06,1.25 -12.245,1.125 -18.68,-0.4375 l 8.9975,24.24125 0.74875,1.81125 9.43375,-25.4275"
         inkscape:connector-curvature="0" />
      <path
         id="path1340"
         style="fill:#bbbbbb;fill-opacity:1;fill-rule:nonzero;stroke:none"
         d="m 473.02375,414.19292 0,4.56001 5.06,12.9325 0,0.0625 c -2.68625,4.31125 -5.81,8.1225 -9.37125,11.55875 -2.43625,2.31125 -5.1225,4.3725 -7.93375,6.185 l 0.75,2.81125 18.8675,-16.68125 0,12.62 c 1.12375,6.185 5.4975,11.495 13.18125,16.05625 1.1875,0.8125 2.37375,1.4375 3.62375,1.875 2.74875,0.93625 5.74875,0.99875 8.93375,0.0613 2.5625,-1.74875 4.62375,-4.31 6.185,-7.62125 2.4375,-5.31125 3.62375,-12.62 3.43625,-21.92875 l 0.1875,-34.36126 c -0.1875,-6.4975 -2.43625,-10.37125 -6.62125,-11.55875 l -14.62,-4.3725 12.12,11.495 3.74875,45.60751 c 0.0625,17.43 -7.37125,22.42875 -22.30375,14.93125 l -0.125,0.1875 c -0.0625,-0.125 -0.1875,-0.25 -0.25,-0.375 -1.81125,-2.68625 -3.43625,-6.06 -4.935,-9.99625 l 0,-12.1825 -9.93375,-21.86626"
         inkscape:connector-curvature="0" />
      <path
         id="path1342"
         style="fill:#bbbbbb;fill-opacity:1;fill-rule:nonzero;stroke:none"
         d="m 498.20125,471.79543 -1.3125,0 0,6.68375 -20.67875,0.375 0,1.9375 19.305,0.74875 4.435,8.6225 c -8.12125,7.80875 -15.86875,6.80875 -23.24,-3.06125 1.68625,7.93375 7.74625,11.37 18.2425,10.3075 4.935,0.0625 8.49625,-0.99875 10.8075,-3.18625 -1.93625,-3.935 -3.6225,-8.12125 -4.9975,-12.495 -1,-3.18625 -1.87375,-6.4975 -2.56125,-9.9325"
         inkscape:connector-curvature="0" />
      <path
         id="path1344"
         style="fill:#bbbbbb;fill-opacity:1;fill-rule:nonzero;stroke:none"
         d="m 511.32125,503.78168 c -2.06125,-3.06125 -3.87375,-6.2475 -5.56125,-9.55875 l -4.1225,6.185 c -11.18375,2.125 -23.36625,2.31125 -36.485,0.5 2.56125,2.06125 6.06,3.06125 10.4325,2.87375 l 35.73625,0"
         inkscape:connector-curvature="0" />
      <path
         id="path1346"
         style="fill:#000000;fill-opacity:1;fill-rule:nonzero;stroke:none"
         d="m 514.695,550.51293 -3.37375,-46.73125 -35.73625,0 c -4.3725,0.1875 -7.87125,-0.8125 -10.4325,-2.87375 -2.6875,-2.24875 -4.43625,-5.7475 -5.18625,-10.495 l 0,-10.62125 c -2.18625,17.8675 -12.4325,26.49 -30.6125,25.865 l 0,9.93375 c 15.30625,1.49875 25.115,-2.5 29.36375,-12.05875 7.68375,11.93375 20.55375,16.55625 38.60875,13.87 l 2.74875,70.03375 c -10.37,12.80875 -28.42625,21.4925 -54.10375,25.9275 l 0,3.68625 c 3.125,0 6.18625,0 9.2475,-0.0625 1.18625,-0.0625 2.31125,-0.0625 3.43625,-0.125 7.18375,-0.3125 14.24375,-0.9375 21.17875,-1.75 3.74875,-0.49875 7.4975,-1.06125 11.1825,-1.74875 8.06,-1.43625 15.93125,-3.24875 23.67875,-5.56 l 0,-57.29"
         inkscape:connector-curvature="0" />
      <path
         id="path1348"
         style="fill:#333333;fill-opacity:1;fill-rule:nonzero;stroke:none"
         d="m 497.32625,517.40168 c -18.055,2.68625 -30.925,-1.93625 -38.60875,-13.87 -4.24875,9.55875 -14.0575,13.5575 -29.36375,12.05875 -3.37375,7.12125 -5.2475,13.61875 -5.685,19.55375 7.31,14.62 11.8075,26.8025 13.5575,36.48625 l 8.745,30.2375 0,11.495 c 25.6775,-4.43625 43.73375,-13.11875 54.10375,-25.9275 l -2.74875,-70.03375 z m -60.35,1.56125 -4.56125,14.495 6.31,14.05625 14.99375,49.04375 0,10.87 -4.935,2.74875 0,-11.3075 -11.37125,-39.98375 -10.4325,-24.05375 3.62375,-15.43125 6.3725,-0.4375"
         inkscape:connector-curvature="0" />
      <path
         id="path1350"
         style="fill:#999999;fill-opacity:1;fill-rule:nonzero;stroke:none"
         d="m 432.415,533.45793 4.56125,-14.495 -6.3725,0.4375 -3.62375,15.43125 10.4325,24.05375 11.37125,39.98375 0,11.3075 4.935,-2.74875 0,-10.87 -14.99375,-49.04375 -6.31,-14.05625"
         inkscape:connector-curvature="0" />
      <path
         id="path1352"
         style="fill:#a56e44;fill-opacity:1;fill-rule:nonzero;stroke:none"
         d="m 425.6675,513.15293 c -1.81125,0.4375 -3.43625,1 -4.7475,1.8125 l 3.31125,2.74875 -4.18625,14.49375 c 1,1.6875 2.18625,2.62375 3.62375,2.93625 0.4375,-5.935 2.31125,-12.4325 5.685,-19.55375 l -3.68625,-2.4375"
         inkscape:connector-curvature="0" />
      <path
         id="path1354"
         style="fill:#dca56d;fill-opacity:1;fill-rule:nonzero;stroke:none"
         d="M 424.23125,517.71418 420.92,514.96543 c -2.25,1.24875 -3.93625,2.99875 -4.99875,5.31 l 2.31125,7.81 c 0.5625,1.68625 1.125,3.06 1.8125,4.1225 l 4.18625,-14.49375 z m -2.0625,-0.5 -2.99875,2.87375 0.5,8.55875 -2.62375,-8.80875 3.49875,-3.12375 1.62375,0.5"
         inkscape:connector-curvature="0" />
      <path
         id="path1356"
         style="fill:#f3ddcf;fill-opacity:1;fill-rule:nonzero;stroke:none"
         d="m 419.17,520.08793 2.99875,-2.87375 -1.62375,-0.5 -3.49875,3.12375 2.62375,8.80875 -0.5,-8.55875"
         inkscape:connector-curvature="0" />
      <path
         id="path1358"
         style="fill:#a56e44;fill-opacity:1;fill-rule:nonzero;stroke:none"
         d="m 491.01625,613.36293 c -3.685,0.6875 -7.43375,1.25 -11.1825,1.74875 -6.935,0.8125 -13.995,1.4375 -21.17875,1.75 0,0.4375 0,0.875 0.0625,1.3125 l 16.3675,5.56 c 2.99875,8.87125 5.12375,17.7425 6.31,26.5525 1.0625,7.18375 1.5,14.36875 1.375,21.55375 l 12.745,41.8575 c -0.375,9.62125 -4.12375,17.555 -11.24625,23.865 6.435,4.18625 11.49625,0.875 15.245,-9.9325 l 0,-21.74125 c -0.875,-1.0625 -1.6875,-2.375 -2.5,-3.93625 -3.31125,-6.435 -6.06,-17.30625 -8.24625,-32.6125 0.25,-4.685 0.0625,-9.74625 -0.625,-15.11875 0.3125,-1.3125 0.5625,-2.62375 0.875,-3.935 2.18625,-11.18375 2.87375,-23.49125 1.99875,-36.92375 z m -10.745,4.18625 7.55875,2.56125 -1.24875,24.9275 c -1.0625,-4.935 -2.4375,-10.05875 -4.18625,-15.43125 l -2.12375,-12.0575"
         inkscape:connector-curvature="0" />
      <path
         id="path1360"
         style="fill:#dca56d;fill-opacity:1;fill-rule:nonzero;stroke:none"
         d="m 487.83,620.11043 -7.55875,-2.56125 2.12375,12.0575 c 1.74875,5.3725 3.12375,10.49625 4.18625,15.43125 l 1.24875,-24.9275"
         inkscape:connector-curvature="0" />
      <path
         id="path1362"
         style="fill:#dca56d;fill-opacity:1;fill-rule:nonzero;stroke:none"
         d="m 475.085,623.73418 -16.3675,-5.56 c 0.25,11.495 1.43625,22.17875 3.4975,32.1125 0.6875,3.56 1.5625,6.99625 2.5625,10.3075 0.68625,2.62375 1.49875,5.185 2.43625,7.7475 l 9.05875,21.67875 3.31125,7.87125 c 0.4375,1.3125 0.875,2.68625 1.3125,4.06125 2.81,10.49625 3.185,21.80375 1.06125,33.86125 0.8125,0.6875 1.5625,1.24875 2.31125,1.74875 7.1225,-6.31 10.87125,-14.24375 11.24625,-23.865 l -12.745,-41.8575 c 0.125,-7.185 -0.3125,-14.37 -1.375,-21.55375 -1.18625,-8.81 -3.31125,-17.68125 -6.31,-26.5525 z m -14.93125,-2.18625 3.12375,0 c 0.0625,9.5575 1.1875,19.11625 3.43625,28.73875 1.68625,7.30875 4.06125,14.61875 6.9975,21.92875 4.56,11.0575 7.93375,20.99 10.12,29.7375 0.625,2.43625 1.125,4.81 1.5,7.05875 l 1.4375,10.99625 -2.8125,13.3075 0,-22.36625 -3.9975,-16.11875 -10.99625,-26.86375 c -2.18625,-5.31125 -3.935,-11.18375 -5.2475,-17.68 -1.8125,-8.4975 -2.99875,-18.05625 -3.56125,-28.73875"
         inkscape:connector-curvature="0" />
      <path
         id="path1364"
         style="fill:#f3ddcf;fill-opacity:1;fill-rule:nonzero;stroke:none"
         d="m 463.2775,621.54793 -3.12375,0 c 0.5625,10.6825 1.74875,20.24125 3.56125,28.73875 1.3125,6.49625 3.06125,12.36875 5.2475,17.68 l 10.99625,26.86375 3.9975,16.11875 0,22.36625 2.8125,-13.3075 -1.4375,-10.99625 c -0.375,-2.24875 -0.875,-4.6225 -1.5,-7.05875 -2.18625,-8.7475 -5.56,-18.68 -10.12,-29.7375 -2.93625,-7.31 -5.31125,-14.62 -6.9975,-21.92875 -2.24875,-9.6225 -3.37375,-19.18125 -3.43625,-28.73875"
         inkscape:connector-curvature="0" />
      <path
         id="path1366"
         style="fill:#a56e44;fill-opacity:1;fill-rule:nonzero;stroke:none"
         d="m 463.9025,673.65168 7.56,12.37 -4.12375,18.555 c -2.87375,14.55625 -9.43375,23.17875 -19.7425,25.99 6.81,2.24875 13.4325,0.1875 19.805,-6.1225 1.06125,-8.1225 3.37375,-14.87 6.93375,-20.18 -0.0625,-0.8125 -0.0625,-1.56125 -0.0625,-2.31125 0,-0.3125 0,-0.6875 0,-1 0.0625,-3.68625 0.6875,-7.31 2,-10.9325 l -9.05875,-21.67875 c -0.9375,-2.5625 -1.75,-5.12375 -2.43625,-7.7475 l -0.875,13.0575"
         inkscape:connector-curvature="0" />
      <path
         id="path1368"
         style="fill:#dca56d;fill-opacity:1;fill-rule:nonzero;stroke:none"
         d="m 471.4625,686.02168 -7.56,-12.37 -0.875,13.12 c -2.56125,5.06 -4.81,10.12 -6.6225,15.18125 -2.18625,5.81 -3.8725,11.5575 -5.185,17.305 -1.3125,3.74875 -4.12375,6.7475 -8.30875,9.06 1.56125,0.93625 3.1225,1.68625 4.685,2.24875 10.30875,-2.81125 16.86875,-11.43375 19.7425,-25.99 l 4.12375,-18.555 z m -6.7475,1.18625 0,-7.05875 2.24875,7.05875 c -2.81125,4.99875 -5.12375,9.93375 -6.935,14.745 -2.68625,6.935 -4.31125,13.80625 -4.935,20.61625 l -7.935,5.93625 5.37375,-7.06125 c 1.06125,-6.49625 2.81125,-12.99375 5.31,-19.49125 1.93625,-4.87375 4.185,-9.80875 6.8725,-14.745"
         inkscape:connector-curvature="0" />
      <path
         id="path1370"
         style="fill:#f3ddcf;fill-opacity:1;fill-rule:nonzero;stroke:none"
         d="m 464.715,680.14918 0,7.05875 c -2.6875,4.93625 -4.93625,9.87125 -6.8725,14.745 -2.49875,6.4975 -4.24875,12.995 -5.31,19.49125 l -5.37375,7.06 7.935,-5.935 c 0.62375,-6.81 2.24875,-13.68125 4.935,-20.61625 1.81125,-4.81125 4.12375,-9.74625 6.935,-14.745 l -2.24875,-7.05875"
         inkscape:connector-curvature="0" />
      <path
         id="path1372"
         style="fill:#000000;fill-opacity:1;fill-rule:nonzero;stroke:none"
         d="m 470.3375,721.63168 c 0.75,-3.31 3.31125,-7.30875 7.62125,-11.9325 0.0625,-2.56125 -0.87375,-5.185 -2.87375,-7.74625 -0.25,-0.3125 -0.5,-0.6875 -0.8125,-1 0,0.3125 0,0.6875 0,1 0,0.75 0,1.49875 0.0625,2.31125 -3.56,5.31 -5.8725,12.0575 -6.93375,20.18 -6.3725,6.31 -12.995,8.37125 -19.805,6.1225 -1.5625,-0.5625 -3.12375,-1.3125 -4.685,-2.24875 l -4.93625,5.3725 0,4.81 24.8025,0 5.06125,-10.4325 0,9.37 3.31125,0 -0.8125,-15.80625"
         inkscape:connector-curvature="0" />
      <path
         id="path1374"
         style="fill:#000000;fill-opacity:1;fill-rule:nonzero;stroke:none"
         d="m 506.51,714.82293 -6.9975,-8.93375 0,21.74125 c -3.7475,10.8075 -8.80875,14.11875 -15.24375,9.9325 -0.74875,-0.49875 -1.49875,-1.06125 -2.31125,-1.74875 -1.49875,2.68625 -1.81125,6.31 -0.93625,10.99625 6.55875,2.99875 12.3075,2.99875 17.305,0 l 2.81125,-10.80875 0,9.62125 2.62375,0 0,-22.61625 2.74875,-8.18375"
         inkscape:connector-curvature="0" />
    </g>
  </g>
</svg>
