<?xml version="1.0" encoding="UTF-8" standalone="no"?>
<!-- Created with Inkscape (http://www.inkscape.org/) -->

<svg
   xmlns:dc="http://purl.org/dc/elements/1.1/"
   xmlns:cc="http://creativecommons.org/ns#"
   xmlns:rdf="http://www.w3.org/1999/02/22-rdf-syntax-ns#"
   xmlns:svg="http://www.w3.org/2000/svg"
   xmlns="http://www.w3.org/2000/svg"
   xmlns:sodipodi="http://sodipodi.sourceforge.net/DTD/sodipodi-0.dtd"
   xmlns:inkscape="http://www.inkscape.org/namespaces/inkscape"
   width="150"
   height="150"
   id="svg6004"
   version="1.1"
   inkscape:version="0.48.5 r10040"
   sodipodi:docname="5.svg">
  <defs
     id="defs6006" />
  <sodipodi:namedview
     id="base"
     pagecolor="#ffffff"
     bordercolor="#666666"
     borderopacity="1.0"
     inkscape:pageopacity="0.0"
     inkscape:pageshadow="2"
     inkscape:zoom="0.98994949"
     inkscape:cx="324.87499"
     inkscape:cy="271.86253"
     inkscape:document-units="px"
     inkscape:current-layer="layer1"
     showgrid="false"
     fit-margin-top="0"
     fit-margin-left="0"
     fit-margin-right="0"
     fit-margin-bottom="0"
     inkscape:window-width="1440"
     inkscape:window-height="878"
     inkscape:window-x="0"
     inkscape:window-y="0"
     inkscape:window-maximized="1" />
  <metadata
     id="metadata6009">
    <rdf:RDF>
      <cc:Work
         rdf:about="">
        <dc:format>image/svg+xml</dc:format>
        <dc:type
           rdf:resource="http://purl.org/dc/dcmitype/StillImage" />
        <dc:title />
      </cc:Work>
    </rdf:RDF>
  </metadata>
  <g
     inkscape:label="Layer 1"
     inkscape:groupmode="layer"
     id="layer1"
     transform="translate(-122.20383,-503.94891)">
    <g
       id="g3060"
       transform="matrix(0.28684836,0,0,0.28684836,88.160015,439.09062)">
      <path
         id="path1376"
         style="fill:#000000;fill-opacity:1;fill-rule:nonzero;stroke:none"
         d="m 294.13508,342.08888 c -2.93625,-1.6875 -5.74875,-2.99875 -8.49625,-3.93625 10.495,6.6225 14.18125,13.245 11.12,19.8675 l -14.86875,14.86875 0,19.86625 3.81125,0 0,-14.11875 c 6.55875,-11.5575 13.74375,-16.93 21.55375,-16.05625 l 1.81125,4.43625 c 4.18625,-2.125 5.31,-5.435 3.31125,-9.93375 -4.49875,-7.3725 -10.55875,-12.37 -18.2425,-14.99375"
         inkscape:connector-curvature="0" />
      <path
         id="path1378"
         style="fill:#333333;fill-opacity:1;fill-rule:nonzero;stroke:none"
         d="m 296.75883,358.02013 c 3.06125,-6.6225 -0.625,-13.245 -11.12,-19.8675 -12.6825,-4.31125 -23.74125,-0.25 -33.175,12.3075 -11.62,4.68625 -14.61875,19.4925 -8.93375,44.545 10.30875,3.8725 15.99375,0.0625 17.1175,-11.495 -0.0625,-5.8725 1.875,-8.56 5.81,-7.9975 l 6.81125,3.49875 c 3.4975,3.18625 6.3725,7.80875 8.62125,13.74375 l 0,-19.86625 14.86875,-14.86875 z m -48.98,35.11 -2.62375,0 c -5.18625,-23.4275 -2.3125,-36.7975 8.68375,-40.04625 1.81125,-5.06 5.56,-8.68375 11.245,-10.9325 0.25,-0.1875 0.5,-0.3125 0.8125,-0.4375 7.74625,-4.06125 15.74375,-3.49875 23.99,1.81125 l 0,3.43625 c -12.995,-8.49625 -24.49,-6.2475 -34.54875,6.685 -11.62,5.9975 -14.11875,19.18 -7.55875,39.48375"
         inkscape:connector-curvature="0" />
      <path
         id="path1380"
         style="fill:#999999;fill-opacity:1;fill-rule:nonzero;stroke:none"
         d="m 245.15508,393.13013 2.62375,0 c -6.56,-20.30375 -4.06125,-33.48625 7.55875,-39.48375 10.05875,-12.9325 21.55375,-15.18125 34.54875,-6.685 l 0,-3.43625 c -8.24625,-5.31 -16.24375,-5.8725 -23.99,-1.81125 -0.3125,0.125 -0.5625,0.25 -0.8125,0.4375 -5.685,2.24875 -9.43375,5.8725 -11.245,10.9325 -10.99625,3.24875 -13.87,16.61875 -8.68375,40.04625"
         inkscape:connector-curvature="0" />
      <path
         id="path1382"
         style="fill:#000000;fill-opacity:1;fill-rule:nonzero;stroke:none"
         d="m 273.26883,379.01138 -6.81125,-3.49875 c -3.935,-0.5625 -5.8725,2.125 -5.81,7.9975 -1.12375,11.5575 -6.80875,15.3675 -17.1175,11.495 0.4375,2.12375 1,4.31 1.625,6.6225 l 11.3075,5.8725 c 3.81,-0.3125 7.31,-2.49875 10.495,-6.435 0.8125,-1.0625 1.5625,-2.1875 2.3125,-3.43625 -6.31,-12.495 -4.99875,-18.68 3.99875,-18.6175"
         inkscape:connector-curvature="0" />
      <path
         id="path1384"
         style="fill:#a56e44;fill-opacity:1;fill-rule:nonzero;stroke:none"
         d="m 285.70133,378.63638 0,14.11875 c 0.56125,-10.4325 4.935,-18.305 13.18125,-23.615 l 6.8725,0 0,11.1825 5.31,11.12125 -4.2475,5.31 0,15.93125 -18.93,5.7475 c 16.305,3.68625 24.49,0.5 24.49,-9.49625 l 0,-11.3075 c 5.6225,-1.4375 7.2475,-3.81125 4.81,-7.06 l -8.12125,-10.87 2.99875,-5.12375 -2.99875,-7.55875 -1.81125,-4.43625 c -7.81,-0.87375 -14.995,4.49875 -21.55375,16.05625"
         inkscape:connector-curvature="0" />
      <path
         id="path1386"
         style="fill:#dca56d;fill-opacity:1;fill-rule:nonzero;stroke:none"
         d="m 285.70133,392.75513 -3.81125,0 c -2.25,-5.935 -5.12375,-10.5575 -8.62125,-13.74375 -8.9975,-0.0625 -10.30875,6.1225 -3.99875,18.6175 4.06125,8.37125 10.24625,15.30625 18.6175,20.80375 l 18.93,-5.7475 0,-15.93125 4.2475,-5.31 -5.31,-11.12125 0,-11.1825 -6.8725,0 c -8.24625,5.31 -12.62,13.1825 -13.18125,23.615 z m -12.4325,-11.8075 c -3.56125,1.875 -3.93625,4.37375 -1.125,7.56 2.87375,9.55875 7.80875,18.68 14.86875,27.42625 -10.05875,-9.05875 -16.61875,-18.93 -19.68,-29.48875 -0.0625,-4.935 1.9375,-6.74625 5.93625,-5.4975"
         inkscape:connector-curvature="0" />
      <path
         id="path1388"
         style="fill:#f3ddcf;fill-opacity:1;fill-rule:nonzero;stroke:none"
         d="m 272.14383,388.50763 c -2.81125,-3.18625 -2.43625,-5.685 1.125,-7.56 -3.99875,-1.24875 -5.99875,0.5625 -5.93625,5.4975 3.06125,10.55875 9.62125,20.43 19.68,29.48875 -7.06,-8.74625 -11.995,-17.8675 -14.86875,-27.42625"
         inkscape:connector-curvature="0" />
      <path
         id="path1390"
         style="fill:#333333;fill-opacity:1;fill-rule:nonzero;stroke:none"
         d="m 197.17383,449.29514 c -0.1875,1.875 -0.25,3.81125 -0.1875,5.74875 l 11.87,53.2275 5.935,13.5575 50.23,6.1225 c 1.31125,-7.80875 6.81,-11.3075 16.61875,-10.5575 l 17.93,2.24875 -0.5625,-2.93625 9.93375,0 -4.24875,-7.3725 2.375,-44.1075 -1.8125,-13.12 c -2.49875,-11.5575 -7.37125,-19.86626 -14.68125,-25.05251 l 8.68375,21.99126 c 2.99875,22.92875 2.0625,43.9825 -2.87375,63.2875 l -2.56125,-0.4375 c 1.93625,-21.49125 1.87375,-42.9825 -0.0625,-64.53625 l -5.9975,-4.24875 4.685,-2.99875 -5.9975,-15.55626 -0.99875,-2.49875 -2.4375,3.62375 1.25,14.24376 2.56125,28.17625 1.74875,42.98375 -2.56125,-0.5 -12.86875,-2.0625 0.25,-4.81 0.31125,-8.18375 c 0.3125,-5.31125 0.375,-10.62125 0.25,-15.86875 -0.1875,-5.81 -0.62375,-11.55875 -1.31125,-17.24375 -0.625,-4.4975 -1.375,-8.99625 -2.25,-13.4325 -0.1875,-0.93625 -0.375,-1.87375 -0.56125,-2.81125 -2.9375,-13.05626 -7.435,-25.92626 -13.37,-38.67126 l -11.3075,-5.8725 -6.56125,5.1225 10.99625,20.49125 9.05875,0 -5.56,5.24875 c 11.62,22.61626 16.74375,47.73001 15.43125,75.28251 l -5.8725,-0.9375 33.92375,6.435 0,2.81125 -64.78625,-10.745 1.99875,-3.99875 10.05875,1.93625 -9.24625,-2.93625 c 3.56125,-44.91875 -2.87375,-72.40876 -19.43,-82.52876 -10.68375,7.80875 -16.68125,18.055 -17.93,30.73626 -0.0625,0.25 -0.0625,0.5 -0.0625,0.75 z m 44.295,-42.23251 3.43625,-2.93625 4.7475,1.93625 c -3.74875,0.75 -5.9975,2.49875 -6.685,5.31125 l -1.49875,-4.31125 z m -27.49,17.3675 c -6.30875,7.4975 -9.24625,17.68126 -8.80875,30.48876 l 11.37,61.0375 -15.4925,-60.475 c 1.06125,-18.99376 5.3725,-29.36376 12.93125,-31.05126"
         inkscape:connector-curvature="0" />
      <path
         id="path1392"
         style="fill:#999999;fill-opacity:1;fill-rule:nonzero;stroke:none"
         d="m 244.90508,404.12638 -3.43625,2.93625 1.49875,4.31125 c 0.6875,-2.8125 2.93625,-4.56125 6.685,-5.31125 l -4.7475,-1.93625"
         inkscape:connector-curvature="0" />
      <path
         id="path1394"
         style="fill:#999999;fill-opacity:1;fill-rule:nonzero;stroke:none"
         d="m 205.17008,454.91889 c -0.4375,-12.8075 2.5,-22.99126 8.80875,-30.48876 -7.55875,1.6875 -11.87,12.0575 -12.93125,31.05126 l 15.4925,60.475 -11.37,-61.0375"
         inkscape:connector-curvature="0" />
      <path
         id="path1396"
         style="fill:#000000;fill-opacity:1;fill-rule:nonzero;stroke:none"
         d="m 196.98633,455.04389 c -0.0625,-1.9375 0,-3.87375 0.1875,-5.74875 l -2.06125,10.68375 c 0.68625,10.6825 0.68625,21.30375 0,31.9875 l 12.93125,44.17 c 4.06125,-0.3125 8.30875,-0.5625 12.6825,-0.75 l 28.61375,2.74875 15.80625,-0.9375 c 0,-0.125 0,-0.25 -0.0625,-0.375 -0.4375,-3.435 -0.5,-6.3725 -0.0625,-8.87125 l -50.23,-6.1225 -5.935,-13.55625 -11.87,-53.22875"
         inkscape:connector-curvature="0" />
      <path
         id="path1398"
         style="fill:#540101;fill-opacity:1;fill-rule:nonzero;stroke:none"
         d="m 127.82633,496.21389 -5.6225,7.81 15.93125,43.8575 c 1.93625,-0.8125 4.06,-1.625 6.4975,-2.37375 l -16.80625,-49.29375"
         inkscape:connector-curvature="0" />
      <path
         id="path1400"
         style="fill:#333333;fill-opacity:1;fill-rule:nonzero;stroke:none"
         d="m 195.11258,491.96639 c -0.0625,0.1875 -0.0625,0.3125 -0.0625,0.49875 -1.0625,15.1825 -3.68625,30.30125 -7.7475,45.4825 6.435,-0.6875 13.3075,-1.3125 20.74125,-1.81125 l -12.93125,-44.17 z m 0.25,8.74625 1.56125,2.31125 -2.81125,31.3 -4.68625,2.06125 5.93625,-35.6725"
         inkscape:connector-curvature="0" />
      <path
         id="path1402"
         style="fill:#999999;fill-opacity:1;fill-rule:nonzero;stroke:none"
         d="m 196.92383,503.02389 -1.56125,-2.31125 -5.93625,35.6725 4.68625,-2.06125 2.81125,-31.3"
         inkscape:connector-curvature="0" />
      <path
         id="path1404"
         style="fill:#860202;fill-opacity:1;fill-rule:nonzero;stroke:none"
         d="m 195.05008,492.46514 -67.22375,3.74875 16.80625,49.29375 c 10.1825,-3.125 24.4275,-5.6225 42.67,-7.56 4.06125,-15.18125 6.685,-30.3 7.7475,-45.4825 z m -5.12375,3.99875 -45.10625,11.87 2.87375,31.9875 -13.5575,-39.35875 55.79,-4.49875"
         inkscape:connector-curvature="0" />
      <path
         id="path1406"
         style="fill:#c10202;fill-opacity:1;fill-rule:nonzero;stroke:none"
         d="m 144.82008,508.33389 45.10625,-11.87 -55.79,4.49875 13.5575,39.35875 -2.87375,-31.9875"
         inkscape:connector-curvature="0" />
      <path
         id="path1408"
         style="fill:#a56e44;fill-opacity:1;fill-rule:nonzero;stroke:none"
         d="m 283.01383,425.68013 2.4375,-3.62375 2.43625,-3.62375 c -8.37125,-5.4975 -14.55625,-12.4325 -18.6175,-20.80375 -0.75,1.24875 -1.5,2.37375 -2.3125,3.43625 l 12.24625,17.4925 -4.93625,9.93375 3.81125,4.43625 4.935,-7.2475"
         inkscape:connector-curvature="0" />
      <path
         id="path1410"
         style="fill:#dca56d;fill-opacity:1;fill-rule:nonzero;stroke:none"
         d="m 266.95758,401.06513 c -3.185,3.93625 -6.685,6.1225 -10.495,6.435 l 1.81125,2.12375 8.37125,-5.56 3,2.68625 -7.56,4.81125 -3.81125,-1.9375 15.99375,18.8675 4.93625,-9.93375 -12.24625,-17.4925"
         inkscape:connector-curvature="0" />
      <path
         id="path1412"
         style="fill:#f3ddcf;fill-opacity:1;fill-rule:nonzero;stroke:none"
         d="m 258.27383,409.62388 3.81125,1.9375 7.56,-4.81125 -3,-2.68625 -8.37125,5.56"
         inkscape:connector-curvature="0" />
      <path
         id="path1414"
         style="fill:#e1e1e1;fill-opacity:1;fill-rule:nonzero;stroke:none"
         d="m 258.27383,409.62388 -1.81125,-2.12375 c 5.935,12.745 10.4325,25.615 13.37,38.67126 l 2.99875,-2.62375 3.935,-3.37375 4.24875,-3.81126 3.24875,3.56251 -1.25,-14.24501 -4.935,7.2475 -3.81125,-4.43625 -15.99375,-18.8675"
         inkscape:connector-curvature="0" />
      <path
         id="path1416"
         style="fill:#e1e1e1;fill-opacity:1;fill-rule:nonzero;stroke:none"
         d="m 274.20508,445.61014 -3.81125,3.3725 c 0.875,4.43625 1.625,8.935 2.25,13.4325 l 3.685,-13.62 -2.12375,-3.185"
         inkscape:connector-curvature="0" />
      <path
         id="path1418"
         style="fill:#c4c4c4;fill-opacity:1;fill-rule:nonzero;stroke:none"
         d="m 270.39383,448.98264 3.81125,-3.3725 -1.37375,-2.0625 -2.99875,2.62375 c 0.18625,0.9375 0.37375,1.875 0.56125,2.81125"
         inkscape:connector-curvature="0" />
      <path
         id="path1420"
         style="fill:#c10202;fill-opacity:1;fill-rule:nonzero;stroke:none"
         d="m 274.20508,445.61014 2.12375,3.185 -3.685,13.62 c 0.6875,5.685 1.12375,11.43375 1.31125,17.24375 0.125,5.2475 0.0625,10.5575 -0.25,15.86875 l -0.31125,8.18375 7.37125,-7.56 c 0,-0.0613 0,-0.0613 0.0625,-0.0613 1.49875,-1.8125 0.625,-16.86875 -2.56125,-45.2325 l -0.25,0.4375 -0.875,-1.25 1.9375,-7.06 -2.3125,-2.81125 -3.935,3.37375 1.37375,2.0625"
         inkscape:connector-curvature="0" />
      <path
         id="path1422"
         style="fill:#000000;fill-opacity:1;fill-rule:nonzero;stroke:none"
         d="m 253.08883,432.49013 5.56,-5.24875 -9.05875,0 -10.99625,-20.49125 -3.2475,1.375 13.05625,22.615 c 8.685,24.67876 13.87,48.98126 15.68125,72.84626 l -17.7425,-5.435 -5.435,-36.17375 c 2.31125,-26.67626 -4.43625,-42.60751 -20.18,-47.79251 -1.99875,1.12375 -3.87375,2.31125 -5.56,3.62375 16.55625,10.12 22.99125,37.61001 19.43,82.52876 l 9.24625,2.93625 3.43625,1.0625 15.36875,2.49875 5.8725,0.9375 c 1.3125,-27.55125 -3.81125,-52.66625 -15.43125,-75.28251"
         inkscape:connector-curvature="0" />
      <path
         id="path1424"
         style="fill:#860202;fill-opacity:1;fill-rule:nonzero;stroke:none"
         d="m 280.14008,447.42139 4.12375,-7.49625 -3.24875,-3.56251 -4.24875,3.81126 2.3125,2.81125 -1.9375,7.06 0.875,1.25 0.25,-0.4375 c 3.18625,28.36375 4.06,43.42 2.56125,45.23125 -0.0625,0 -0.0625,0 -0.0625,0.0625 l -7.37125,7.56 -0.25,4.81 12.86875,2.0625 c -0.56125,-24.6775 -2.56125,-45.7325 -5.8725,-63.1625"
         inkscape:connector-curvature="0" />
      <path
         id="path1426"
         style="fill:#e1e1e1;fill-opacity:1;fill-rule:nonzero;stroke:none"
         d="m 284.26383,439.92389 -4.12375,7.4975 c 3.31125,17.43 5.31125,38.485 5.8725,63.1625 l 2.56125,0.5 -1.74875,-42.98375 -2.56125,-28.17625"
         inkscape:connector-curvature="0" />
      <path
         id="path1428"
         style="fill:#000000;fill-opacity:1;fill-rule:nonzero;stroke:none"
         d="m 299.25758,449.04514 -8.68375,-21.99126 c -1.3125,-0.93625 -2.68625,-1.81125 -4.12375,-2.49875 l 5.9975,15.55626 -4.685,2.99875 5.9975,4.24875 c 1.93625,21.55375 1.99875,43.045 0.0625,64.53625 l 2.56125,0.4375 c 4.93625,-19.305 5.8725,-40.35875 2.87375,-63.2875"
         inkscape:connector-curvature="0" />
      <path
         id="path1430"
         style="fill:#333333;fill-opacity:1;fill-rule:nonzero;stroke:none"
         d="m 248.40258,430.74013 -13.05625,-22.615 -14.62,6.06 c 15.74375,5.185 22.49125,21.11625 20.18,47.79251 l 5.435,36.17375 17.7425,5.435 c -1.81125,-23.865 -6.99625,-48.1675 -15.68125,-72.84626 z m -11.3075,-17.055 -8.55875,2.99875 -3.37375,-2.43625 9.05875,-4.12375 2.87375,3.56125"
         inkscape:connector-curvature="0" />
      <path
         id="path1432"
         style="fill:#999999;fill-opacity:1;fill-rule:nonzero;stroke:none"
         d="m 228.53633,416.68388 8.55875,-2.99875 -2.87375,-3.56125 -9.05875,4.1225 3.37375,2.4375"
         inkscape:connector-curvature="0" />
      <path
         id="path1434"
         style="fill:#999999;fill-opacity:1;fill-rule:nonzero;stroke:none"
         d="m 247.27883,504.33639 -3.43625,-1.0625 -10.05875,-1.93625 -1.99875,3.99875 64.78625,10.745 0,-2.81125 -33.92375,-6.435 -15.36875,-2.49875"
         inkscape:connector-curvature="0" />
      <path
         id="path1436"
         style="fill:#a56e44;fill-opacity:1;fill-rule:nonzero;stroke:none"
         d="m 459.63133,379.57388 c 3.93625,-6.3725 8.24625,-8.81 12.86875,-7.2475 l 24.99125,10.24625 3.56,-3.68625 c -10.6825,-1.125 -19.74125,-5.8725 -27.23875,-14.245 -8.68375,3.56125 -13.37,8.4975 -14.18125,14.9325"
         inkscape:connector-curvature="0" />
      <path
         id="path1438"
         style="fill:#dca56d;fill-opacity:1;fill-rule:nonzero;stroke:none"
         d="m 472.50133,372.32638 c -4.62375,-1.5625 -8.93375,0.875 -12.87,7.2475 l 5.56,15.36875 3.06125,1.87375 0,8.185 4.81,2.62375 7.81,7.12125 c 1.93625,3.31125 3.93625,5.37375 5.9975,6.185 7.56,-4.685 12.4325,-10.495 14.61875,-17.3675 l 0,-16.49375 8.93375,-15.68125 c -1.93625,-1.06125 -3.6225,-1 -5.1225,0.1875 -1.62375,1.1875 -3.06125,3.62375 -4.24875,7.31 l -3.56,3.68625 -24.99,-10.24625 z m -6.31,21.24125 -4.81125,-13.0575 1.625,-2.31125 5.2475,14.43125 4.12375,2.0625 0,8.49625 4.3725,1.375 11.43375,12.37 -2.0625,2.06125 -10.495,-11.6825 -5.49875,-2.74875 0,-7.81 -3.935,-3.18625"
         inkscape:connector-curvature="0" />
      <path
         id="path1440"
         style="fill:#f3ddcf;fill-opacity:1;fill-rule:nonzero;stroke:none"
         d="m 461.38008,380.51013 4.81125,13.0575 3.935,3.18625 0,7.81 5.49875,2.74875 10.495,11.6825 2.0625,-2.06125 -11.43375,-12.37 -4.3725,-1.375 0,-8.49625 -4.12375,-2.0625 -5.2475,-14.43125 -1.625,2.31125"
         inkscape:connector-curvature="0" />
      <path
         id="path1442"
         style="fill:#333333;fill-opacity:1;fill-rule:nonzero;stroke:none"
         d="m 459.63133,379.57388 c 0.81125,-6.435 5.4975,-11.37125 14.18125,-14.9325 9.74625,5.62375 20.2425,7.935 31.4875,6.935 1.5,-1.18625 3.18625,-1.24875 5.1225,-0.1875 1.1875,3.74875 1.25,7.185 0.1875,10.37125 -0.87375,18.305 3.1875,28.36375 12.245,30.175 1.1875,-6.49625 -0.125,-14.05625 -4.06,-22.74 l -14.68125,-40.73375 c -9.435,-5.12375 -19.805,-2.81125 -31.05125,6.8725 l -16.43,12.68125 c -7.435,8.06 -9.05875,19.805 -4.87375,35.11125 3.93625,16.68125 10.18375,25.365 18.68,25.99 1.1875,0.0625 2.43625,0 3.74875,-0.1875 0.25,2.93625 1.125,5.2475 2.62375,6.935 l 3.43625,-14.62 -17.055,-12.1825 0,-8.93375 -3.56125,-20.55375 z m 43.7325,-29.86375 -0.1875,2.1875 c -9.55875,-4.18625 -19.68,-1.3125 -30.42625,8.68375 l -17.8675,11.5575 16.99375,-12.995 c 10.6825,-10.8075 21.17875,-13.99375 31.4875,-9.43375 z m -45.2325,61.78875 c 4.24875,8.80875 9.24625,13.49375 14.93125,14.11875 -5.56,2.56125 -11.12,-1.81125 -16.68,-13.245 -5.9975,-14.99375 -7.31,-26.1775 -3.99875,-33.61125 -0.81125,8.43375 1.125,19.305 5.7475,32.7375"
         inkscape:connector-curvature="0" />
      <path
         id="path1444"
         style="fill:#999999;fill-opacity:1;fill-rule:nonzero;stroke:none"
         d="m 503.17633,351.89763 0.1875,-2.1875 c -10.30875,-4.56 -20.805,-1.37375 -31.4875,9.43375 l -16.99375,12.995 17.8675,-11.5575 c 10.74625,-9.99625 20.8675,-12.87 30.42625,-8.68375"
         inkscape:connector-curvature="0" />
      <path
         id="path1446"
         style="fill:#999999;fill-opacity:1;fill-rule:nonzero;stroke:none"
         d="m 473.06258,425.61763 c -5.685,-0.625 -10.6825,-5.31 -14.93125,-14.11875 -4.6225,-13.4325 -6.55875,-24.30375 -5.7475,-32.7375 -3.31125,7.435 -1.99875,18.6175 3.99875,33.61125 5.56,11.43375 11.12,15.80625 16.68,13.245"
         inkscape:connector-curvature="0" />
      <path
         id="path1448"
         style="fill:#000000;fill-opacity:1;fill-rule:nonzero;stroke:none"
         d="m 473.81258,364.64138 c 7.4975,8.3725 16.55625,13.12 27.23875,14.245 1.1875,-3.68625 2.625,-6.1225 4.24875,-7.31 -11.245,1 -21.74125,-1.31125 -31.4875,-6.935"
         inkscape:connector-curvature="0" />
      <path
         id="path1450"
         style="fill:#e1e1e1;fill-opacity:1;fill-rule:nonzero;stroke:none"
         d="m 312.37758,516.70639 -13.37,0 0.5625,2.93625 13.37,1.68625 -0.25,-2.31125 -0.3125,-2.31125"
         inkscape:connector-curvature="0" />
      <path
         id="path1452"
         style="fill:#000000;fill-opacity:1;fill-rule:nonzero;stroke:none"
         d="m 308.94133,516.70639 18.68,0 13.12,-4.12375 -27.86375,-5.1225 -5.81,-42.23375 -2.375,44.1075 4.24875,7.3725"
         inkscape:connector-curvature="0" />
      <path
         id="path1454"
         style="fill:#dca56d;fill-opacity:1;fill-rule:nonzero;stroke:none"
         d="m 344.55133,517.70639 -1.62375,-5.8725 -2.18625,0.74875 -13.12,4.12375 -15.24375,0 0.3125,2.31125 c 10.62125,2.37375 21.24125,1.93625 31.86125,-1.31125"
         inkscape:connector-curvature="0" />
      <path
         id="path1456"
         style="fill:#333333;fill-opacity:1;fill-rule:nonzero;stroke:none"
         d="m 342.92758,511.83264 1.62375,5.87375 2.5625,9.62 c 6.81,4.12375 13.12,8.7475 18.8675,13.9325 l 82.90375,3.56125 -17.9925,-81.28 -99.2725,6.31 11.3075,41.9825 z m 79.59375,-44.79375 -72.97125,15.18125 0,43.92 -13.4325,-52.41625 86.40375,-6.685 z m -58.165,68.91 60.85125,-13.87 2.24875,-53.29125 14.80625,71.65875 -77.90625,-4.4975"
         inkscape:connector-curvature="0" />
      <path
         id="path1458"
         style="fill:#666666;fill-opacity:1;fill-rule:nonzero;stroke:none"
         d="m 349.55008,482.22014 72.97,-15.18125 -86.4025,6.685 13.4325,52.41625 0,-43.92"
         inkscape:connector-curvature="0" />
      <path
         id="path1460"
         style="fill:#000000;fill-opacity:1;fill-rule:nonzero;stroke:none"
         d="m 425.20758,522.07889 -60.85125,13.87 77.90625,4.4975 -14.80625,-71.65875 -2.24875,53.29125"
         inkscape:connector-curvature="0" />
      <path
         id="path1462"
         style="fill:#000000;fill-opacity:1;fill-rule:nonzero;stroke:none"
         d="m 491.49383,424.74263 0,-4.18625 c -1.5625,0.8125 -3.12375,0.9375 -4.62375,0.375 -2.06125,-0.81125 -4.06125,-2.87375 -5.9975,-6.185 l -7.81,-7.12125 -4.81,-2.62375 0,-8.185 -3.06125,-1.87375 -5.56,-15.36875 3.56125,20.55375 0,8.93375 17.055,12.1825 -3.43625,14.62 c 1.5625,1.81126 3.81125,2.99876 6.7475,3.43626 l 7.935,-14.55751"
         inkscape:connector-curvature="0" />
      <path
         id="path1464"
         style="fill:#dca56d;fill-opacity:1;fill-rule:nonzero;stroke:none"
         d="m 491.49383,420.55638 0,4.18625 8.12125,23.99001 -5.9975,8.9975 0.93625,4.6225 9.7475,-11.12 5.1225,-15.30626 -9.18375,-23.67875 -5.12375,5.49875 c -1.24875,1.31125 -2.43625,2.24875 -3.6225,2.81 z m 1.06125,1.4375 1.8125,-1.625 8.49625,27.49001 -7.31,9.62125 5.4975,-8.935 -8.49625,-26.55126"
         inkscape:connector-curvature="0" />
      <path
         id="path1466"
         style="fill:#f3ddcf;fill-opacity:1;fill-rule:nonzero;stroke:none"
         d="m 494.36758,420.36888 -1.8125,1.625 8.49625,26.55126 -5.4975,8.935 7.31,-9.62125 -8.49625,-27.49001"
         inkscape:connector-curvature="0" />
      <path
         id="path1468"
         style="fill:#a56e44;fill-opacity:1;fill-rule:nonzero;stroke:none"
         d="m 495.11633,417.74638 5.12375,-5.49875 9.18375,23.67875 -5.12375,15.30626 -9.74625,11.12 0.875,4.68625 14.245,-10.80875 2.62375,-16.43 6.7475,-13.18376 c -7.8725,-2.685 -12.4325,-9.3075 -13.62,-19.99125 -0.625,-5.06 -0.4375,-11.12 0.5,-18.055 2.24875,-2.0625 3.81125,-4.37375 4.685,-6.81 1.0625,-3.18625 1,-6.6225 -0.1875,-10.37125 l -8.93375,15.68125 0,16.49375 c -2.18625,6.8725 -7.05875,12.6825 -14.61875,17.3675 1.5,0.5625 3.06125,0.4375 4.62375,-0.375 1.18625,-0.56125 2.37375,-1.49875 3.6225,-2.81"
         inkscape:connector-curvature="0" />
      <path
         id="path1470"
         style="fill:#e1e1e1;fill-opacity:1;fill-rule:nonzero;stroke:none"
         d="m 478.18633,443.79764 -1.375,-7.93376 c -1.49875,-1.6875 -2.37375,-3.99875 -2.62375,-6.935 -1.3125,0.1875 -2.56125,0.25 -3.74875,0.1875 -6.99625,4.43625 -10.12125,13.24501 -9.30875,26.30251 l -9.745,52.35375 -5.74875,3.06125 2.62375,12.87 8.685,-6.56 1.68625,-4.12375 -3.12375,-1.49875 2.99875,-3.31125 -1.12375,-4.43625 -0.4375,-1.56125 2.68625,-1.5625 1.43625,-5.435 0.4375,-1.625 0.8125,-27.67625 4.435,-10.495 1.0625,38.17125 3.74875,0 9.18375,12.62 7.99625,10.93375 c -1.06125,2.68625 -1.68625,5.435 -1.87375,8.18375 26.865,3.43625 51.97875,3.43625 75.345,0 7.185,-31.7375 7.6225,-61.975 1.4375,-90.77626 l -0.0625,0 c -9.80875,9.62126 -15.3075,24.80251 -16.55625,45.60751 l 0,33.61125 c -15.86875,4.18625 -32.175,5.685 -48.98125,4.3725 -0.87375,-0.0625 -1.74875,-0.18625 -2.62375,-0.24875 l 0,-46.8575 -11.5575,-13.61875 6.2475,-9.05875 -11.9325,-4.56125 z m -2.06125,51.73 -6.2475,-4.62375 -1.3125,-34.04875 2.62375,-7.56 c -1.49875,16.80625 0.125,32.175 4.93625,46.2325 z m -3.93625,-65.03751 -9.55875,28.05126 c -0.5,-13.24375 2.68625,-22.61501 9.55875,-28.05126 z m 76.96875,84.52876 c -1.49875,-15.93125 -0.93625,-32.23625 1.62375,-48.9175 1.6875,-9.62125 5.49875,-18.8675 11.55875,-27.73875 -7.7475,26.17625 -10.93375,52.41625 -9.62125,78.59375 -21.42875,4.685 -42.17125,6.1225 -62.35,4.31 l 0,-2.99875 c 17.49375,2.99875 37.11,1.9375 58.78875,-3.24875"
         inkscape:connector-curvature="0" />
      <path
         id="path1472"
         style="fill:#ffffff;fill-opacity:1;fill-rule:nonzero;stroke:none"
         d="m 469.87758,490.90389 6.2475,4.62375 c -4.81125,-14.0575 -6.435,-29.42625 -4.93625,-46.2325 l -2.62375,7.56 1.3125,34.04875"
         inkscape:connector-curvature="0" />
      <path
         id="path1474"
         style="fill:#ffffff;fill-opacity:1;fill-rule:nonzero;stroke:none"
         d="m 462.63008,458.54139 9.55875,-28.05126 c -6.8725,5.43625 -10.05875,14.80751 -9.55875,28.05126"
         inkscape:connector-curvature="0" />
      <path
         id="path1476"
         style="fill:#ffffff;fill-opacity:1;fill-rule:nonzero;stroke:none"
         d="m 550.78133,466.10139 c -2.56125,16.68125 -3.1225,32.98625 -1.62375,48.9175 -21.67875,5.18625 -41.29625,6.2475 -58.78875,3.24875 l 0,2.99875 c 20.17875,1.8125 40.92125,0.375 62.35,-4.31 -1.3125,-26.1775 1.87375,-52.4175 9.62125,-78.59375 -6.06,8.87125 -9.87125,18.1175 -11.55875,27.73875"
         inkscape:connector-curvature="0" />
      <path
         id="path1478"
         style="fill:#bbbbbb;fill-opacity:1;fill-rule:nonzero;stroke:none"
         d="m 476.81133,435.86388 1.375,7.93376 11.9325,4.56125 -6.2475,9.05875 11.5575,13.61875 0,46.8575 c 0.875,0.0625 1.75,0.18625 2.625,0.24875 16.805,1.3125 33.11125,-0.18625 48.98,-4.3725 l 0,-33.61125 c 1.24875,-20.805 6.7475,-35.98625 16.55625,-45.60751 l 0.0625,0 c 6.185,28.80126 5.7475,59.03876 -1.4375,90.77626 -23.36625,3.43625 -48.48,3.43625 -75.345,0 -0.25,2.56125 -0.125,5.185 0.4375,7.8725 l 17.93,1.18625 0,1.8125 61.6,1.87375 c 0.5625,-0.1875 1.125,-0.5 1.625,-0.8125 1.93625,-1.24875 3.56125,-3.24875 4.935,-6.06 3.12375,-6.435 4.87375,-16.93 5.18625,-31.55 0.0625,-1.74875 0.0625,-3.49875 0.0625,-5.31 3.06125,-30.4875 -1.125,-51.1675 -12.5575,-62.03751 -3.56125,-1.75 -7.435,-3.06125 -11.55875,-3.87375 -5.56,-1.1875 -11.495,-1.625 -17.93,-1.375 -6.06,1.0625 -11.3075,1.125 -15.68125,0.0625 l 5.18625,21.99126 -12.6825,-3.7475 0,11.9325 -17.99375,9.74625 -5.935,-9.74625 5.2475,-8.56 0,-4.4975 -12.37,-2.93625 1.1875,-1.99875 c -2.93625,-0.4375 -5.185,-1.625 -6.7475,-3.43626 z m 21.2425,80.03001 0,-46.54375 18.74125,-9.05875 0,-10.24625 12.495,2.24875 -3.9975,-20.49126 32.3,2.31125 c -7.2475,7.93501 -11.37125,15.93126 -12.43375,23.86626 l -4.56,52.22875 -42.545,5.685"
         inkscape:connector-curvature="0" />
      <path
         id="path1480"
         style="fill:#e1e1e1;fill-opacity:1;fill-rule:nonzero;stroke:none"
         d="m 498.05383,469.35014 0,46.54375 42.545,-5.685 4.56,-52.22875 c 1.0625,-7.935 5.18625,-15.93125 12.43375,-23.86626 l -32.3,-2.31125 3.9975,20.49126 -12.495,-2.24875 0,10.24625 -18.74125,9.05875 z m 1.99875,43.795 0,-41.60875 14.43125,-6.56 -9.62125,9.18375 -4.81,38.985"
         inkscape:connector-curvature="0" />
      <path
         id="path1482"
         style="fill:#ffffff;fill-opacity:1;fill-rule:nonzero;stroke:none"
         d="m 500.05258,471.53639 0,41.60875 4.81,-38.985 9.62125,-9.18375 -14.43125,6.56"
         inkscape:connector-curvature="0" />
      <path
         id="path1484"
         style="fill:#e1e1e1;fill-opacity:1;fill-rule:nonzero;stroke:none"
         d="m 494.74133,444.23514 0,4.4975 -5.2475,8.56 5.935,9.74625 -0.875,-4.68625 -0.93625,-4.6225 5.9975,-8.9975 -8.12125,-23.99001 -7.935,14.55751 -1.1875,1.99875 12.37,2.93625"
         inkscape:connector-curvature="0" />
      <path
         id="path1486"
         style="fill:#000000;fill-opacity:1;fill-rule:nonzero;stroke:none"
         d="m 436.45258,465.66389 -5.56,-2.12375 17.9925,81.28 56.3525,-5.685 0,-4.74875 -53.7275,5.31125 -1.875,-9.2475 -1.375,-6.74625 -2.62375,-12.87 -9.18375,-45.17"
         inkscape:connector-curvature="0" />
      <path
         id="path1488"
         style="fill:#dca56d;fill-opacity:1;fill-rule:nonzero;stroke:none"
         d="m 471.56383,493.59014 -10.05875,0 -0.4375,1.625 10.49625,2.24875 0,5.435 -6.3725,-5.6225 -5.56,3.37375 -2.68625,1.56125 0.4375,1.5625 9.245,-1.81125 2.6875,2.81125 -7.81,0 -1.43625,1.68625 12.245,-0.1875 0,2.68625 -11.99625,0 -1.68625,4.06125 -1.68625,4.12375 6.435,5.935 -3.31125,-6.8725 3.43625,-5.1225 18.68,8.80875 c 2.31125,-3.62375 1.81125,-8.18375 -1.4375,-13.6825 l -9.18375,-12.62"
         inkscape:connector-curvature="0" />
      <path
         id="path1490"
         style="fill:#a56e44;fill-opacity:1;fill-rule:nonzero;stroke:none"
         d="m 471.56383,502.89889 0,-5.435 -10.49625,-2.24875 -1.43625,5.435 5.56,-3.37375 6.3725,5.6225"
         inkscape:connector-curvature="0" />
      <path
         id="path1492"
         style="fill:#bbbbbb;fill-opacity:1;fill-rule:nonzero;stroke:none"
         d="m 466.37883,516.39389 -2.99875,0 c 2.18625,3.06125 2.18625,5.31 0,6.685 l -6.435,-5.935 -8.685,6.56 1.375,6.74625 18.1175,1.3125 -1.37375,-15.36875"
         inkscape:connector-curvature="0" />
      <path
         id="path1494"
         style="fill:#a56e44;fill-opacity:1;fill-rule:nonzero;stroke:none"
         d="m 463.38008,516.39389 5.935,0 2.62375,8.18375 6.4975,7.935 8.87125,0.6875 c -0.5625,-2.6875 -0.6875,-5.31125 -0.4375,-7.8725 0.1875,-2.74875 0.8125,-5.4975 1.87375,-8.18375 l -7.99625,-10.93375 c 3.24875,5.49875 3.74875,10.05875 1.4375,13.6825 l -18.68,-8.80875 -3.43625,5.1225 3.31125,6.8725 c 2.18625,-1.375 2.18625,-3.62375 0,-6.685"
         inkscape:connector-curvature="0" />
      <path
         id="path1496"
         style="fill:#a56e44;fill-opacity:1;fill-rule:nonzero;stroke:none"
         d="m 457.38258,503.77389 1.12375,4.435 -2.99875,3.3125 3.12375,1.49875 1.68625,-4.06125 11.99625,0 0,-2.68625 -12.245,0.1875 1.43625,-1.68625 7.81,0 -2.6875,-2.81125 -9.245,1.81125"
         inkscape:connector-curvature="0" />
      <path
         id="path1498"
         style="fill:#e1e1e1;fill-opacity:1;fill-rule:nonzero;stroke:none"
         d="m 469.31508,516.39389 -2.93625,0 1.37375,15.36875 0.0625,0 10.62125,0.75 -6.4975,-7.935 -2.62375,-8.18375"
         inkscape:connector-curvature="0" />
      <path
         id="path1500"
         style="fill:#bbbbbb;fill-opacity:1;fill-rule:nonzero;stroke:none"
         d="m 461.50508,493.59014 6.31,0 -1.0625,-38.17125 -4.435,10.495 -0.8125,27.67625"
         inkscape:connector-curvature="0" />
      <path
         id="path1502"
         style="fill:#000000;fill-opacity:1;fill-rule:nonzero;stroke:none"
         d="m 510.61008,381.76013 c -0.87375,2.43625 -2.43625,4.7475 -4.685,6.81 -0.9375,6.935 -1.125,12.995 -0.5,18.055 1.1875,10.68375 5.7475,17.30625 13.62,19.99125 0.625,0.1875 1.24875,0.3125 1.87375,0.5 4.37375,1.0625 9.62125,1 15.68125,-0.0625 6.435,-0.25 12.37,0.1875 17.93,1.375 -2.56125,-6.935 -9.05875,-12.245 -19.42875,-15.93125 -5.12375,-2.49875 -7.9975,-8.12125 -8.6225,-16.805 l -2.62375,-18.68 -11.1825,-21.67875 c -2.74875,-3 -5.6225,-5.31125 -8.55875,-6.8725 l 14.68125,40.73375 c 3.935,8.68375 5.2475,16.24375 4.06,22.74 -9.0575,-1.81125 -13.11875,-11.87 -12.245,-30.175"
         inkscape:connector-curvature="0" />
      <path
         id="path1504"
         style="fill:#e1e1e1;fill-opacity:1;fill-rule:nonzero;stroke:none"
         d="m 526.10508,449.10764 -5.18625,-21.99126 c -0.625,-0.1875 -1.24875,-0.3125 -1.87375,-0.5 l -6.7475,13.18376 -2.62375,16.43 -14.245,10.80875 17.99375,-9.74625 0,-11.9325 12.6825,3.7475"
         inkscape:connector-curvature="0" />
      <path
         id="path1506"
         style="fill:#860202;fill-opacity:1;fill-rule:nonzero;stroke:none"
         d="m 600.07508,499.65014 -21.49125,0 c -0.3125,14.62 -2.0625,25.115 -5.18625,31.55 l 17.18125,-2.31125 9.49625,-29.23875"
         inkscape:connector-curvature="0" />
      <path
         id="path1508"
         style="fill:#290101;fill-opacity:1;fill-rule:nonzero;stroke:none"
         d="m 612.44508,505.58639 -5.9975,-5.93625 -10.62125,40.235 c 2.56125,0.37375 4.9975,0.74875 7.31,1.12375 l 9.30875,-35.4225"
         inkscape:connector-curvature="0" />
      <path
         id="path1510"
         style="fill:#540101;fill-opacity:1;fill-rule:nonzero;stroke:none"
         d="m 606.44758,499.65014 -6.3725,0 -9.49625,29.23875 -17.18125,2.31125 c -1.37375,2.81125 -2.99875,4.81125 -4.935,6.06 8.37125,0.5625 15.99375,1.25 22.86625,2.0625 1.56125,0.1875 3.06125,0.375 4.4975,0.5625 l 10.62125,-40.235"
         inkscape:connector-curvature="0" />
      <path
         id="path1512"
         style="fill:#860202;fill-opacity:1;fill-rule:nonzero;stroke:none"
         d="m 627.06383,573.68389 c 6.06,-4.81125 9.55875,-9.1225 10.49625,-13.0575 2.06125,-8.93375 -9.37125,-15.43125 -34.42375,-19.6175 -2.3125,-0.375 -4.74875,-0.75 -7.31,-1.125 -1.43625,-0.18625 -2.93625,-0.37375 -4.4975,-0.56125 14.99375,7.93375 16.9925,15.05625 5.9975,21.30375 -1.6875,0.9375 -3.68625,1.87375 -5.9975,2.81125 -67.72375,31.55 -153.81375,53.10375 -258.2725,64.78625 -76.53125,1.4375 -140.44375,-14.61875 -191.86,-48.23 126.13625,100.6465 288.135,98.585 485.8675,-6.31"
         inkscape:connector-curvature="0" />
      <path
         id="path1514"
         style="fill:#c10202;fill-opacity:1;fill-rule:nonzero;stroke:none"
         d="m 568.46258,537.26014 c -0.5,0.3125 -1.0625,0.625 -1.625,0.8125 l -61.6,-1.87375 0,2.93625 -56.3525,5.685 -82.90375,-3.56125 4.56,3.43625 -6.06,0 -37.1725,-4.62375 c -0.0625,1.4375 -0.0625,2.99875 0.125,4.68625 l 3.18625,0.375 0,5.685 -66.91,6.6225 -60.66375,-12.3075 -1.4375,-4.18625 47.73125,-2.81125 -28.61375,-2.74875 c -4.37375,0.1875 -8.62125,0.4375 -12.6825,0.75 -7.43375,0.49875 -14.30625,1.12375 -20.74125,1.81125 -18.2425,1.9375 -32.4875,4.43625 -42.67,7.56 -2.4375,0.74875 -4.56125,1.56125 -6.4975,2.37375 -8.6225,3.56125 -12.9325,7.80875 -12.87,12.745 0,3.935 2.74875,8.24625 8.24625,13.0575 2.56125,2.12375 5.12375,4.2475 7.685,6.31 51.41625,33.61125 115.32875,49.6675 191.86,48.23 104.45875,-11.6825 190.54875,-33.23625 258.2725,-64.78625 2.31125,-0.9375 4.31,-1.87375 5.9975,-2.81125 10.995,-6.2475 8.99625,-13.37 -5.9975,-21.30375 -6.8725,-0.8125 -14.495,-1.5 -22.86625,-2.0625"
         inkscape:connector-curvature="0" />
      <path
         id="path1516"
         style="fill:#333333;fill-opacity:1;fill-rule:nonzero;stroke:none"
         d="m 467.81508,531.76264 -0.0625,0 -18.1175,-1.3125 1.875,9.2475 53.7275,-5.31125 -17.93,-1.18625 -8.87125,-0.6875 -10.62125,-0.75"
         inkscape:connector-curvature="0" />
      <path
         id="path1518"
         style="fill:#beb79e;fill-opacity:1;fill-rule:nonzero;stroke:none"
         d="m 364.48133,544.69514 6.06,0 -4.56,-3.43625 c -5.74875,-5.185 -12.0575,-9.80875 -18.8675,-13.9325 l -8.99625,-2.87375 -16.86875,-2.06125 c -7.62125,1.4375 -12.745,5.3725 -15.30625,11.9325 l -40.85875,2.49875 c 0.0625,0.125 0.0625,0.25 0.0625,0.375 l 62.2875,7.56 c -0.1875,-1.6875 -0.1875,-3.24875 -0.125,-4.68625 0.5,-11.4325 7.4975,-14.18125 20.92875,-8.37125 6.81,3.99875 12.245,8.30875 16.24375,12.995"
         inkscape:connector-curvature="0" />
      <path
         id="path1520"
         style="fill:#9a9887;fill-opacity:1;fill-rule:nonzero;stroke:none"
         d="m 327.49633,545.44514 -0.0625,-0.6875 -62.2875,-7.56 -15.80625,0.9375 -47.73125,2.81125 61.66375,10.80875 64.22375,-6.31"
         inkscape:connector-curvature="0" />
      <path
         id="path1522"
         style="fill:#d0cdb7;fill-opacity:1;fill-rule:nonzero;stroke:none"
         d="m 330.62008,545.13264 -3.12375,0.3125 -64.22375,6.31 0.4375,5.685 66.91,-6.6225 0,-5.685"
         inkscape:connector-curvature="0" />
      <path
         id="path1524"
         style="fill:#a56e44;fill-opacity:1;fill-rule:nonzero;stroke:none"
         d="m 338.11758,524.45264 8.99625,2.87375 -2.5625,-9.62 c -10.62,3.2475 -21.24,3.685 -31.86125,1.31125 l 0.25,2.31125 8.30875,1.0625 16.86875,2.06125"
         inkscape:connector-curvature="0" />
      <path
         id="path1526"
         style="fill:#d0cdb7;fill-opacity:1;fill-rule:nonzero;stroke:none"
         d="m 321.24883,522.39139 -8.30875,-1.0625 -13.37,-1.68625 -17.93,-2.24875 c -9.80875,-0.75 -15.30625,2.74875 -16.61875,10.5575 -0.4375,2.49875 -0.375,5.43625 0.0625,8.87125 l 40.85875,-2.49875 c 2.56125,-6.56 7.685,-10.495 15.30625,-11.9325"
         inkscape:connector-curvature="0" />
      <path
         id="path1528"
         style="fill:#540101;fill-opacity:1;fill-rule:nonzero;stroke:none"
         d="m 348.23758,531.70014 c -13.43125,-5.81 -20.42875,-3.06125 -20.92875,8.37125 l 37.1725,4.62375 c -3.99875,-4.68625 -9.43375,-8.99625 -16.24375,-12.995"
         inkscape:connector-curvature="0" />
      <path
         id="path1530"
         style="fill:#e3e0d7;fill-opacity:1;fill-rule:nonzero;stroke:none"
         d="m 263.71008,557.44014 -0.4375,-5.685 -61.6625,-10.80875 1.43625,4.18625 60.66375,12.3075"
         inkscape:connector-curvature="0" />
    </g>
  </g>
</svg>
