<?xml version="1.0" encoding="UTF-8" standalone="no"?>
<!-- Created with Inkscape (http://www.inkscape.org/) -->

<svg
   xmlns:dc="http://purl.org/dc/elements/1.1/"
   xmlns:cc="http://creativecommons.org/ns#"
   xmlns:rdf="http://www.w3.org/1999/02/22-rdf-syntax-ns#"
   xmlns:svg="http://www.w3.org/2000/svg"
   xmlns="http://www.w3.org/2000/svg"
   xmlns:sodipodi="http://sodipodi.sourceforge.net/DTD/sodipodi-0.dtd"
   xmlns:inkscape="http://www.inkscape.org/namespaces/inkscape"
   width="150"
   height="150"
   id="svg6004"
   version="1.1"
   inkscape:version="0.48.5 r10040"
   sodipodi:docname="6.svg">
  <defs
     id="defs6006" />
  <sodipodi:namedview
     id="base"
     pagecolor="#ffffff"
     bordercolor="#666666"
     borderopacity="1.0"
     inkscape:pageopacity="0.0"
     inkscape:pageshadow="2"
     inkscape:zoom="1.979899"
     inkscape:cx="326.66215"
     inkscape:cy="108.82298"
     inkscape:document-units="px"
     inkscape:current-layer="layer1"
     showgrid="false"
     fit-margin-top="0"
     fit-margin-left="0"
     fit-margin-right="0"
     fit-margin-bottom="0"
     inkscape:window-width="1440"
     inkscape:window-height="878"
     inkscape:window-x="0"
     inkscape:window-y="0"
     inkscape:window-maximized="1" />
  <metadata
     id="metadata6009">
    <rdf:RDF>
      <cc:Work
         rdf:about="">
        <dc:format>image/svg+xml</dc:format>
        <dc:type
           rdf:resource="http://purl.org/dc/dcmitype/StillImage" />
        <dc:title />
      </cc:Work>
    </rdf:RDF>
  </metadata>
  <g
     inkscape:label="Layer 1"
     inkscape:groupmode="layer"
     id="layer1"
     transform="translate(-693.84542,-805.42504)">
    <g
       id="g3096"
       transform="matrix(0.43566086,0,0,0.43566086,391.56414,539.18374)">
      <path
         id="path272"
         style="fill:#333333;fill-opacity:1;fill-rule:nonzero;stroke:none"
         d="m 952.66767,617.9979 c -4.31125,-2.125 -9.74625,-2.81125 -16.24375,-2 -36.11,-3.56125 -53.85375,7.1225 -53.29125,31.925 -0.6875,10.55875 1.81125,17.805 7.6225,21.80375 l 0,-5.1225 c 3.7475,-5.31125 8.37125,-7.56 13.93125,-6.685 1.5,0.1875 3.06125,0.6875 4.74875,1.37375 11.1825,2.93625 21.05375,2.68625 29.7375,-0.68625 l 12.5575,8.62125 c -1.24875,-10.68375 1,-20.99125 6.685,-30.925 l -5.7475,-18.305 z m -16.55625,0.6875 16.99375,5.31 -18.68,-2.3125 c -14.12,-1.56125 -27.115,1.125 -39.0475,8.185 -6.2475,7.43375 -8.30875,18.1175 -6.1225,32.04875 l -2.81125,-2.18625 c -2.93625,-15.30625 -0.6875,-26.61375 6.7475,-33.79875 11.245,-7.80875 25.5525,-10.18375 42.92,-7.24625"
         inkscape:connector-curvature="0" />
      <path
         id="path274"
         style="fill:#999999;fill-opacity:1;fill-rule:nonzero;stroke:none"
         d="m 953.10517,623.9954 -16.99375,-5.31 c -17.3675,-2.9375 -31.675,-0.5625 -42.92,7.24625 -7.435,7.185 -9.68375,18.4925 -6.7475,33.79875 l 2.81125,2.18625 c -2.18625,-13.93125 -0.125,-24.615 6.1225,-32.04875 11.9325,-7.06 24.9275,-9.74625 39.0475,-8.185 l 18.68,2.3125"
         inkscape:connector-curvature="0" />
      <path
         id="path276"
         style="fill:#000000;fill-opacity:1;fill-rule:nonzero;stroke:none"
         d="m 909.43517,659.2929 c 2.68625,1.125 5.6225,2.87375 8.68375,5.31125 8.18375,4.435 16.36875,6.06 24.5525,4.9975 l 6.935,16.49375 0.4375,1.0625 3.87375,-1.6875 0,-10.24625 c 2.935,-9.93375 6.3725,-14.36875 10.245,-13.1825 0.1875,0.9375 0.3125,1.8125 0.375,2.625 2.06125,-5.935 2.24875,-11.8075 0.5625,-17.7425 0.1875,-15.1825 -3.99875,-24.86625 -12.4325,-28.92625 l 5.7475,18.305 c -5.685,9.93375 -7.93375,20.24125 -6.685,30.925 l -12.5575,-8.62125 c -8.68375,3.3725 -18.555,3.6225 -29.7375,0.68625"
         inkscape:connector-curvature="0" />
      <path
         id="path278"
         style="fill:#a56e44;fill-opacity:1;fill-rule:nonzero;stroke:none"
         d="m 918.11892,664.60415 c -3.06125,-2.4375 -5.9975,-4.18625 -8.68375,-5.31125 -1.6875,-0.68625 -3.24875,-1.18625 -4.74875,-1.37375 -5.56,-0.875 -10.18375,1.37375 -13.93125,6.685 l 0,5.1225 c 5.8725,-5.185 14.11875,-5.31 24.6775,-0.5 l 21.17875,4.43625 9.49625,16.055 3.49875,-3.6225 -6.935,-16.49375 c -8.18375,1.0625 -16.36875,-0.5625 -24.5525,-4.9975"
         inkscape:connector-curvature="0" />
      <path
         id="path280"
         style="fill:#dca56d;fill-opacity:1;fill-rule:nonzero;stroke:none"
         d="m 936.61142,673.6629 -21.17875,-4.43625 c -10.55875,-4.81 -18.805,-4.685 -24.6775,0.5 l 0,10.24625 3.8725,4.2475 0,4.24875 10.62125,26.0525 c 0.6875,2.43625 1.56125,4.56 2.56125,6.3725 0.25,0.4375 0.5,0.87375 0.8125,1.24875 11.30875,4.74875 20.24125,3.99875 26.86375,-2.18625 l 20.4925,-18.055 0,-18.7425 c 5.8725,-5.62375 8.68375,-11.74625 8.43375,-18.43 l 0.125,-0.0625 c -0.0625,-0.8125 -0.1875,-1.6875 -0.375,-2.625 -3.8725,-1.18625 -7.31,3.24875 -10.245,13.1825 l 0,10.24625 -3.87375,1.6875 -0.4375,-1.0625 -3.49875,3.6225 -9.49625,-16.055 z m 25.24,-9.99625 1.24875,3.31125 c -4.9975,2.74875 -7.18375,7.06 -6.62125,12.995 l -1.25,0 c -0.6875,-6.435 1.49875,-11.87 6.6225,-16.30625 z m -47.48125,58.16375 -5.1225,-1.18625 -12.9325,-32.7375 0,-4.8725 -4.12375,-3.31125 0,-8.80875 2.43625,-1.875 0,9.43375 5.12375,2.87375 0,6.185 14.61875,34.29875"
         inkscape:connector-curvature="0" />
      <path
         id="path282"
         style="fill:#f3ddcf;fill-opacity:1;fill-rule:nonzero;stroke:none"
         d="m 963.10017,666.9779 -1.24875,-3.31125 c -5.12375,4.43625 -7.31,9.87125 -6.6225,16.30625 l 1.25,0 c -0.5625,-5.935 1.62375,-10.24625 6.62125,-12.995"
         inkscape:connector-curvature="0" />
      <path
         id="path284"
         style="fill:#f3ddcf;fill-opacity:1;fill-rule:nonzero;stroke:none"
         d="m 909.24767,720.64415 5.1225,1.18625 -14.61875,-34.29875 0,-6.185 -5.12375,-2.87375 0,-9.43375 -2.43625,1.875 0,8.80875 4.12375,3.31125 0,4.8725 12.9325,32.7375"
         inkscape:connector-curvature="0" />
      <path
         id="path286"
         style="fill:#a56e44;fill-opacity:1;fill-rule:nonzero;stroke:none"
         d="m 964.53767,664.66665 -0.125,0.0625 c 0.25,6.68375 -2.56125,12.80625 -8.43375,18.43 l 0,18.7425 -20.4925,18.055 c -6.6225,6.185 -15.555,6.935 -26.86375,2.18625 0.25,0.375 0.5,0.6875 0.8125,1 0.5625,0.75 1.18625,1.375 1.87375,1.875 3.62375,3.06 8.56,3.81 14.86875,2.24875 l 4.37375,-1.6875 -0.875,5.43625 c 5.56,-4.06125 9.87125,-7.435 13.0575,-10.24625 7.6225,-6.8725 14.18125,-14.0575 19.68,-21.61625 l -2.31125,-7.7475 -2.3125,-7.6225 c 2.4375,-0.81125 4.31125,-2.31125 5.4975,-4.6225 l 0,-0.0625 c 1.6875,-3.24875 2.0625,-8.05875 1.25,-14.43125"
         inkscape:connector-curvature="0" />
      <path
         id="path288"
         style="fill:#333333;fill-opacity:1;fill-rule:nonzero;stroke:none"
         d="m 963.28767,679.1604 c -1.18625,2.31125 -3.06,3.81125 -5.4975,4.6225 l 2.3125,7.6225 3.185,-12.245"
         inkscape:connector-curvature="0" />
      <path
         id="path290"
         style="fill:#e1e1e1;fill-opacity:1;fill-rule:nonzero;stroke:none"
         d="m 965.78767,691.0304 -5.685,0.375 2.31125,7.7475 c -5.49875,7.55875 -12.0575,14.74375 -19.68,21.61625 -3.18625,2.81125 -7.4975,6.185 -13.0575,10.24625 -2.56125,1.87375 -5.435,3.935 -8.62125,6.1225 l 6.185,10.37 2.43625,4.12375 8.4975,-17.11875 33.67375,-33.67375 -3.06125,-4.935 -2.99875,-4.87375"
         inkscape:connector-curvature="0" />
      <path
         id="path292"
         style="fill:#333333;fill-opacity:1;fill-rule:nonzero;stroke:none"
         d="m 976.09642,695.71665 -7.31,0.1875 3.06125,4.935 -33.67375,33.67375 -8.4975,17.11875 -3.6225,7.2475 -5.43625,10.995 -12.12,24.49 0.6875,0.875 5.7475,6.9975 55.165,-74.15875 -3.37375,-9.30875 10.18375,0 8.99625,-8.99625 -9.8075,-14.05625 z m -2.25,6.31 1.5625,4.685 -32.1125,32.1125 -28.98875,57.165 -3.12375,-1.9375 28.98875,-57.16375 33.67375,-34.86125"
         inkscape:connector-curvature="0" />
      <path
         id="path294"
         style="fill:#999999;fill-opacity:1;fill-rule:nonzero;stroke:none"
         d="m 975.40892,706.71165 -1.5625,-4.685 -33.67375,34.86125 -28.98875,57.16375 3.12375,1.9375 28.98875,-57.165 32.1125,-32.1125"
         inkscape:connector-curvature="0" />
      <path
         id="path296"
         style="fill:#333333;fill-opacity:1;fill-rule:nonzero;stroke:none"
         d="m 973.28392,724.2054 3.62375,6.6225 -58.41375,75.65625 12.9325,15.61875 c 1.06125,4.56125 -0.1875,9.12125 -3.62375,13.745 l 43.67,5.06 0,-50.7925 c 6.31,-37.60875 17.805,-58.60125 34.55123,-62.97375 l -18.74498,-11.74625 -7.935,8.81 -6.06,0"
         inkscape:connector-curvature="0" />
      <path
         id="path298"
         style="fill:#000000;fill-opacity:1;fill-rule:nonzero;stroke:none"
         d="m 976.90767,730.8279 -3.62375,-6.6225 6.06,0 7.935,-8.81 18.74498,11.74625 c -16.74623,4.3725 -28.24123,25.365 -34.55123,62.97375 l 0,50.7925 -43.67,-5.06 c -0.6875,0.9375 -1.5,1.87375 -2.43625,2.81125 l 1.18625,0.375 1.25,0.125 50.48,6.6225 0.81125,-65.66125 c 1.375,-21.36625 11.30875,-38.4225 29.86748,-51.23 14.3,34.36125 17.1125,76.90625 8.425,127.69875 l -7.2375,15.74375 -84.03248,-7.30875 c -0.6875,2.81 -1.5,5.3725 -2.4375,7.80875 l -6.435,-2.31125 1.375,11.1825 71.47125,4.74875 -7.1225,45.73125 -82.77875,23.24088 101.52128,0 -3.06128,-68.40963 2.18628,0.125 c 12.3137,2.24875 19.8637,-5.56125 22.6137,-23.36625 l 11.5,-67.41 c 4.4375,-34.86125 -2.25,-58.6025 -20.05,-71.285 l -28.99498,-15.30625 -8.99625,8.99625 -10.18375,0 3.375,9.30875 -55.16625,74.15875 3.56125,4.2475 58.41375,-75.65625"
         inkscape:connector-curvature="0" />
      <path
         id="path300"
         style="fill:#333333;fill-opacity:1;fill-rule:nonzero;stroke:none"
         d="m 909.43517,723.1429 c -0.3125,-0.3125 -0.5625,-0.625 -0.8125,-1 -0.3125,-0.375 -0.5625,-0.8125 -0.8125,-1.24875 -8.24625,7.68375 -13.1825,16.7425 -14.86875,27.23875 l 4.24875,0 -5.9975,8.93375 0.6875,17.30625 6.55875,7.87125 4.99875,6.06 c -0.5625,-9.43375 -0.5625,-18.43 -0.125,-26.98875 0.1875,-3.56125 0.4375,-6.9975 0.75,-10.37125 0.18625,-1.5 0.31125,-2.99875 0.49875,-4.4975 1.0625,-8.2475 2.68625,-15.99375 4.87375,-23.30375"
         inkscape:connector-curvature="0" />
      <path
         id="path302"
         style="fill:#e1e1e1;fill-opacity:1;fill-rule:nonzero;stroke:none"
         d="m 911.30892,725.01665 c -0.6875,-0.49875 -1.31125,-1.12375 -1.87375,-1.87375 -2.1875,7.31 -3.81125,15.05625 -4.87375,23.30375 l 5.8725,-3.31125 8.06,-4.49875 2.56125,-1.49875 -9.74625,-12.12125"
         inkscape:connector-curvature="0" />
      <path
         id="path304"
         style="fill:#c10202;fill-opacity:1;fill-rule:nonzero;stroke:none"
         d="m 910.43517,743.1354 0.87375,4.1225 0.4375,2 -8.43375,12.0575 c -0.4375,8.55875 -0.4375,17.555 0.125,26.98875 l 9.05875,-19.93 0,-15.3675 -0.5,-2.375 8.93375,-5.7475 -2.43625,-6.2475 -8.05875,4.49875"
         inkscape:connector-curvature="0" />
      <path
         id="path306"
         style="fill:#bbbbbb;fill-opacity:1;fill-rule:nonzero;stroke:none"
         d="m 911.30892,747.2579 -0.875,-4.1225 -5.8725,3.31125 c -0.1875,1.49875 -0.3125,2.9975 -0.5,4.4975 l 7.2475,-3.68625"
         inkscape:connector-curvature="0" />
      <path
         id="path308"
         style="fill:#6c0202;fill-opacity:1;fill-rule:nonzero;stroke:none"
         d="m 927.24017,747.5079 -6.185,-10.37 -2.56125,1.49875 2.43625,6.2475 -8.93375,5.7475 0.5,2.375 0,15.3675 -9.05875,19.93 5.06,6.06 12.12,-24.49 -0.5,-18.4925 1.5625,-0.875 5.56,-2.99875"
         inkscape:connector-curvature="0" />
      <path
         id="path310"
         style="fill:#dca56d;fill-opacity:1;fill-rule:nonzero;stroke:none"
         d="m 911.30892,725.01665 9.74625,12.12125 c 3.18625,-2.1875 6.06,-4.24875 8.62125,-6.1225 l 0.875,-5.43625 -4.37375,1.6875 c -6.31,1.56125 -11.245,0.81125 -14.86875,-2.25"
         inkscape:connector-curvature="0" />
      <path
         id="path312"
         style="fill:#bbbbbb;fill-opacity:1;fill-rule:nonzero;stroke:none"
         d="m 921.68017,750.50665 4.3725,8.3725 3.62375,-7.2475 -2.43625,-4.12375 -5.56,2.99875"
         inkscape:connector-curvature="0" />
      <path
         id="path314"
         style="fill:#e1e1e1;fill-opacity:1;fill-rule:nonzero;stroke:none"
         d="m 926.05392,758.87915 -4.37375,-8.3725 -1.5625,0.875 0.5,18.4925 5.43625,-10.995"
         inkscape:connector-curvature="0" />
      <path
         id="path316"
         style="fill:#e1e1e1;fill-opacity:1;fill-rule:nonzero;stroke:none"
         d="m 903.31267,761.3154 8.43375,-12.0575 -0.4375,-2 -7.24625,3.68625 c -0.3125,3.37375 -0.5625,6.81 -0.75,10.37125"
         inkscape:connector-curvature="0" />
      <path
         id="path318"
         style="fill:#7c7a69;fill-opacity:1;fill-rule:nonzero;stroke:none"
         d="m 918.49392,806.48415 -3.56125,-4.2475 -5.7475,-6.9975 c -7.185,4.56 -10.87125,11.495 -11.12125,20.92875 -14.11875,0.5625 -26.86375,-3.06125 -38.23375,-10.995 l 2.49875,3.81125 c 9.18375,6.93375 18.305,11.87 27.48875,14.74375 l 14.49375,-2.0625 c -1.62375,-12.68125 0.9375,-18.61625 7.6225,-17.7425 0.6875,0.0625 1.375,0.25 2.18625,0.5 l 0,17.68 c 4.31125,5.06125 6.56,10.12125 6.6225,15.1825 l 4.62375,1.37375 c 0.93625,-0.9375 1.74875,-1.87375 2.43625,-2.81125 3.43625,-4.62375 4.685,-9.18375 3.62375,-13.745 l -12.9325,-15.61875"
         inkscape:connector-curvature="0" />
      <path
         id="path320"
         style="fill:#a56e44;fill-opacity:1;fill-rule:nonzero;stroke:none"
         d="m 914.12142,804.4229 c -0.8125,-0.25 -1.5,-0.4375 -2.1875,-0.5 1.25,8.49625 -0.3125,16.68125 -4.74875,24.5525 l 4.68625,7.935 c -1.43625,5.935 -5.1225,9.4325 -11.05875,10.5575 l -64.03625,-32.54875 c 0,0.93625 0.5625,2.24875 1.6875,3.935 l 32.79875,17.18125 0.5625,0.25 7.37125,4.185 3.37375,2.125 3.43625,2.18625 3.87375,2.49875 4.31125,2.74875 11.3075,7.06 1.74875,0.4375 9.37125,2.43625 0.8125,-4.06 3.31125,-18.11875 c -0.0625,-5.06 -2.31125,-10.12 -6.62125,-15.18125 l 0,-17.68"
         inkscape:connector-curvature="0" />
      <path
         id="path322"
         style="fill:#9a9887;fill-opacity:1;fill-rule:nonzero;stroke:none"
         d="m 908.49767,794.36415 -5.06,-6.06 -4.99875,-6.06 c 1.0625,4.62375 -0.125,9.24625 -3.62375,13.9325 -3.2475,3.935 -6.68375,5.935 -10.3075,6.1225 l -21.36625,1.62375 -5.74875,-2.43625 2.4375,3.68625 c 11.37,7.93375 24.115,11.5575 38.235,10.995 0.24875,-9.43375 3.935,-16.36875 11.12,-20.92875 l -0.6875,-0.875"
         inkscape:connector-curvature="0" />
      <path
         id="path324"
         style="fill:#333333;fill-opacity:1;fill-rule:nonzero;stroke:none"
         d="m 1008.9614,728.8904 c -18.55873,12.8075 -28.49248,29.86375 -29.86748,51.23 l -0.81125,65.66125 -50.48,-6.6225 -0.0625,0.1875 c 0.375,7.05875 0.1875,13.495 -0.5,19.18 -0.3125,2.31125 -0.6875,4.435 -1.125,6.4975 l 84.03373,7.30875 7.2375,-15.74375 c 8.6875,-50.7925 5.875,-93.3375 -8.425,-127.69875 z m -28.67998,60.47625 c 0,-0.4375 0,-0.8125 0,-1.1875 1.3125,-24.8025 10.62,-42.9825 27.86748,-54.60375 l -1.25,9.87125 c -12.80998,9.80875 -20.11998,24.05375 -21.86998,42.73375 l 0.125,66.03625 -55.54,-4.56125 0,-6.31 50.6675,6.8725 0,-58.85125"
         inkscape:connector-curvature="0" />
      <path
         id="path326"
         style="fill:#999999;fill-opacity:1;fill-rule:nonzero;stroke:none"
         d="m 980.28142,788.17915 c 0,0.375 0,0.75 0,1.1875 l 0,58.85125 -50.6675,-6.8725 0,6.31 55.54,4.56125 -0.125,-66.03625 c 1.75,-18.68 9.06,-32.925 21.86998,-42.73375 l 1.25,-9.87125 c -17.24748,11.62125 -26.55498,29.80125 -27.86748,54.60375"
         inkscape:connector-curvature="0" />
      <path
         id="path328"
         style="fill:#000000;fill-opacity:1;fill-rule:nonzero;stroke:none"
         d="m 823.96892,654.4829 c -0.25,-0.3125 -0.5,-0.5625 -0.6875,-0.875 -5.06,-6.4975 -12.4325,-11.87 -22.05375,-16.18125 -2.18625,-0.37375 -4.2475,-0.62375 -6.185,-0.81125 10.24625,4.31 13.62,8.93375 10.12125,13.74375 l -20.30375,12.12 -14.62,53.79125 c -5.2475,10.43375 -13.30625,17.555 -24.115,21.24125 4.06125,0.5 7.99625,1.625 11.9325,3.43625 1,0.4375 2,0.9375 2.93625,1.4375 5.435,2.93625 10.74625,7.06 15.93125,12.37 l 0,-6.9975 c -1.74875,-11.1825 -0.5625,-22.6775 3.56125,-34.61125 0.8125,-2.43625 1.81125,-4.8725 2.87375,-7.31 4.81125,-7.87125 8.99625,-16.805 12.62,-26.80125 1.1875,-3.31125 2.31125,-6.685 3.37375,-10.245 l 3.24875,-8.2475 c 5.185,-2.74875 11.5575,-3.74875 19.18,-2.93625 2.68625,5.185 4.31125,10.37125 4.81,15.55625 l 2.18625,-2.93625 -4.81,-15.74375"
         inkscape:connector-curvature="0" />
      <path
         id="path330"
         style="fill:#a56e44;fill-opacity:1;fill-rule:nonzero;stroke:none"
         d="m 826.53017,680.8479 c 0.3125,-2.5625 0.3125,-5.12375 0.0625,-7.685 -0.5,-5.185 -2.12375,-10.37125 -4.81,-15.55625 -7.6225,-0.8125 -13.995,0.1875 -19.18,2.93625 l -3.24875,8.2475 c -1.0625,3.56 -2.18625,6.93375 -3.37375,10.245 l 10.995,-14.68125 c 6.24875,-2.99875 10.62125,-2.625 13.1825,1.18625 2.93625,8.06 2.93625,15.68125 0,22.99125 3.18625,7.06 2.31125,14.12 -2.74875,21.11625 l -12.3075,14.745 c -5.435,1.43625 -13.61875,-2.3125 -24.615,-11.24625 l 16.43125,13.8075 2.99875,47.04375 -17.74375,5.06 c 9.3725,5.435 18.7425,5.935 28.05125,1.5 l -2.24875,-24.86625 0,-0.24875 -2.31125,-26.0525 c 1.87375,-0.4375 3.68625,-1.375 5.3725,-2.93625 1.4375,-1.3125 2.81125,-3.06125 4.18625,-5.185 l 5.4975,-8.8725 c 2.37375,-3.935 3.87375,-7.74625 4.43625,-11.4325 0.1875,-1.1875 0.25,-2.43625 0.3125,-3.62375 -0.75,-4.06 -0.375,-9.55875 1.06125,-16.4925"
         inkscape:connector-curvature="0" />
      <path
         id="path332"
         style="fill:#dca56d;fill-opacity:1;fill-rule:nonzero;stroke:none"
         d="m 820.15892,665.5404 c -2.5625,-3.81125 -6.935,-4.185 -13.18375,-1.18625 l -10.995,14.68125 c -3.62375,9.99625 -7.80875,18.93 -12.62,26.80125 -1.06125,2.4375 -2.06125,4.87375 -2.87375,7.31 10.99625,8.93375 19.18,12.6825 24.615,11.24625 l 12.3075,-14.745 c 5.06125,-6.99625 5.935,-14.05625 2.75,-21.11625 2.935,-7.31 2.935,-14.93125 0,-22.99125 z m -17.68125,7.7475 0,5.3725 -17.555,34.42375 -1.875,-1.93625 14.37,-29.48875 5.06,-8.37125"
         inkscape:connector-curvature="0" />
      <path
         id="path334"
         style="fill:#f3ddcf;fill-opacity:1;fill-rule:nonzero;stroke:none"
         d="m 802.47767,678.6604 0,-5.3725 -5.06,8.37125 -14.37,29.48875 1.875,1.93625 17.555,-34.42375"
         inkscape:connector-curvature="0" />
      <path
         id="path336"
         style="fill:#333333;fill-opacity:1;fill-rule:nonzero;stroke:none"
         d="m 765.05517,651.48415 c -6.4975,11.3075 -10.80875,22.74125 -12.995,34.36125 -1.93625,8.68375 -2.62375,16.99375 -2.06125,24.865 -0.1875,12.9325 -9.30875,23.365 -27.24,31.2375 l 16.24375,-4.7475 c 2.4375,-0.125 4.81125,0 7.1225,0.31125 10.80875,-3.68625 18.8675,-10.8075 24.115,-21.24125 l 14.62,-53.79125 20.30375,-12.12 c 3.49875,-4.81 0.125,-9.43375 -10.12125,-13.74375 -13.93125,-1.0625 -23.9275,3.87375 -29.9875,14.86875 z m -2.06125,9.87125 c 4.81,-16.86875 15.7425,-24.365 32.79875,-22.49125 -16.05625,2.99875 -26.05125,10.9325 -29.8625,23.865 -7.31,11.74625 -11.05875,27.98875 -11.24625,48.79375 -0.4375,8.12125 -3.24875,15.61875 -8.43375,22.49 l -6.31,0 6.06,-6.06 c 3.87375,-4.56 5.8725,-9.80875 5.9975,-15.68125 -0.5,-19.55375 3.18625,-36.485 10.99625,-50.91625"
         inkscape:connector-curvature="0" />
      <path
         id="path338"
         style="fill:#999999;fill-opacity:1;fill-rule:nonzero;stroke:none"
         d="m 795.79267,638.86415 c -17.05625,-1.87375 -27.98875,5.6225 -32.79875,22.49125 -7.81,14.43125 -11.49625,31.3625 -10.99625,50.91625 -0.125,5.8725 -2.12375,11.12125 -5.9975,15.68125 l -6.06,6.06 6.31,0 c 5.185,-6.87125 7.9975,-14.36875 8.43375,-22.49 0.1875,-20.805 3.93625,-37.0475 11.24625,-48.79375 3.81125,-12.9325 13.80625,-20.86625 29.8625,-23.865"
         inkscape:connector-curvature="0" />
      <path
         id="path340"
         style="fill:#bbbbbb;fill-opacity:1;fill-rule:nonzero;stroke:none"
         d="m 760.99392,742.3854 c -0.93625,-0.5 -1.93625,-1 -2.93625,-1.4375 l -4.3725,24.49 6.68375,1.5 -5.185,5.81 19.8675,48.48125 c 1.43625,-0.0625 2.81125,-0.125 4.2475,-0.1875 l -19.55375,-48.98125 6.93375,-6.2475 -8.995,-3.31125 3.31,-20.11625"
         inkscape:connector-curvature="0" />
      <path
         id="path342"
         style="fill:#dca56d;fill-opacity:1;fill-rule:nonzero;stroke:none"
         d="m 796.91767,726.95415 -16.43125,-13.8075 c -4.12375,11.9325 -5.31,23.42875 -3.56125,34.61125 l 0,6.9975 5.24875,24.3025 17.7425,-5.06 -2.99875,-47.04375 z m -15.86875,-9.74625 2.99875,2.31125 c -3.12375,11.18375 -3.56125,22.30375 -1.375,33.4875 l 5.06125,21.11625 -4.37375,1.68625 -3.99875,-22.11625 c -1.93625,-12.1825 -1.37375,-24.3025 1.6875,-36.485"
         inkscape:connector-curvature="0" />
      <path
         id="path344"
         style="fill:#f3ddcf;fill-opacity:1;fill-rule:nonzero;stroke:none"
         d="m 784.04767,719.51915 -2.99875,-2.31125 c -3.06125,12.1825 -3.62375,24.3025 -1.6875,36.485 l 3.99875,22.11625 4.37375,-1.68625 -5.06125,-21.11625 c -2.18625,-11.18375 -1.74875,-22.30375 1.375,-33.4875"
         inkscape:connector-curvature="0" />
      <path
         id="path346"
         style="fill:#e1e1e1;fill-opacity:1;fill-rule:nonzero;stroke:none"
         d="m 722.75892,741.9479 -6.68375,1.93625 c 23.4275,3.49875 28.3625,27.92625 14.68125,73.28375 l 15.80625,2.93625 c 9.62125,1.1875 19.1175,1.56125 28.48875,1.125 l -19.8675,-48.48125 5.185,-5.81 -6.68375,-1.5 4.3725,-24.49 c -3.935,-1.81125 -7.87125,-2.93625 -11.9325,-3.43625 -2.31125,-0.31125 -4.685,-0.43625 -7.1225,-0.31125 l -16.24375,4.7475"
         inkscape:connector-curvature="0" />
      <path
         id="path348"
         style="fill:#e1e1e1;fill-opacity:1;fill-rule:nonzero;stroke:none"
         d="m 716.57392,808.60915 5.81,0 c 8.435,-29.05125 6.31,-50.605 -6.30875,-64.725 -7.935,4.68625 -14.37,25.49 -19.3675,62.4125 l -1.75,42.60875 c -0.5,2.43625 -0.81125,4.7475 -0.99875,6.93375 15.68125,11.55875 31.6125,17.99375 47.85625,19.305 0.49875,-1.31125 1.93625,-4.6225 4.2475,-9.9325 -0.125,-1.6875 0.0625,-3.56125 0.5,-5.49875 l 0.375,-2.31125 -13.3075,-1.0625 -4.68625,-7.05875 c -8.87125,-1.3125 -16.805,-0.75 -23.8025,1.74875 l 9.93375,-12.12 -4.935,-20.18 6.43375,-10.12 z m -1.62375,-61.725 2.06125,3.81 c -11.8075,25.0525 -17.305,54.54125 -16.49375,88.59 0,0.1875 0,0.3125 0.0625,0.49875 l 0.5625,15.37 -4.1225,0 0,-13.5575 c 1.06125,-42.3575 7.06,-73.9075 17.93,-94.71125 z m -4.9975,107.08125 -2.37375,-1.49875 20.36625,-1.4375 2.62375,7.3725 14.68125,2.06125 -2.37375,3.24875 -14.93125,-2.37375 -2.06125,-7.3725 -15.93125,0"
         inkscape:connector-curvature="0" />
      <path
         id="path350"
         style="fill:#ffffff;fill-opacity:1;fill-rule:nonzero;stroke:none"
         d="m 717.01142,750.69415 -2.06125,-3.81 c -10.87125,20.80375 -16.86875,52.35375 -17.93,94.71125 l 0,13.5575 4.1225,0 -0.5625,-15.37 c -0.0625,-0.18625 -0.0625,-0.31125 -0.0625,-0.49875 -0.81125,-34.04875 4.68625,-63.5375 16.49375,-88.59"
         inkscape:connector-curvature="0" />
      <path
         id="path352"
         style="fill:#ffffff;fill-opacity:1;fill-rule:nonzero;stroke:none"
         d="m 707.57892,852.46665 2.37375,1.49875 15.93125,0 2.06125,7.3725 14.93125,2.37375 2.37375,-3.24875 -14.68125,-2.06125 -2.62375,-7.3725 -20.36625,1.4375"
         inkscape:connector-curvature="0" />
      <path
         id="path354"
         style="fill:#bbbbbb;fill-opacity:1;fill-rule:nonzero;stroke:none"
         d="m 722.38517,808.60915 -5.81125,0 -6.43375,10.12 4.935,20.18 -9.93375,12.12 c 6.9975,-2.49875 14.93125,-3.06125 23.8025,-1.74875 l -11.5575,-17.43125 -2.37375,-11.495 4.56125,0.375 -2.1875,-6.06 13.37,2.49875 c 13.68125,-45.3575 8.74625,-69.785 -14.68125,-73.28375 12.61875,14.12 14.74375,35.67375 6.31,64.725"
         inkscape:connector-curvature="0" />
      <path
         id="path356"
         style="fill:#e1e1e1;fill-opacity:1;fill-rule:nonzero;stroke:none"
         d="m 757.68392,762.50165 8.995,3.31125 -6.93375,6.2475 19.55375,48.98125 c 4.99875,-0.375 9.99625,-0.9375 14.9325,-1.6875 l 3.12375,-4.81 -7.56,3.185 c -0.9375,-0.56125 -1.56125,-1.12375 -1.93625,-1.74875 -1.1875,-2.12375 0.87375,-4.4975 6.31,-7.18375 -5.9975,2.37375 -9.62125,2.68625 -10.80875,0.93625 -0.625,-0.93625 -0.6875,-2.24875 -0.1875,-4.06125 l 4.18625,-2.24875 -5.185,-24.365 -5.24875,-24.3025 c -5.185,-5.31125 -10.49625,-9.43375 -15.93125,-12.37 l -3.31,20.11625 z m 13.43125,-0.3125 -4.68625,11.80875 16.80625,44.10625 -3.24875,0 -17.055,-44.98125 5.8725,-8.62125 -8.4975,-3.49875 3.125,-14.43125 2.12375,2.12375 -1.74875,9.93375 7.30875,3.56"
         inkscape:connector-curvature="0" />
      <path
         id="path358"
         style="fill:#ffffff;fill-opacity:1;fill-rule:nonzero;stroke:none"
         d="m 766.42892,773.9979 4.68625,-11.80875 -7.30875,-3.56 1.74875,-9.93375 -2.12375,-2.12375 -3.125,14.43125 8.4975,3.49875 -5.8725,8.62125 17.055,44.98125 3.24875,0 -16.80625,-44.10625"
         inkscape:connector-curvature="0" />
      <path
         id="path360"
         style="fill:#dca56d;fill-opacity:1;fill-rule:nonzero;stroke:none"
         d="m 790.98267,791.3029 c -0.1875,0.6875 -0.25,1.375 -0.25,1.9375 l 20.55375,-0.3125 -0.125,-1.625 -20.17875,0"
         inkscape:connector-curvature="0" />
      <path
         id="path362"
         style="fill:#ffffff;fill-opacity:1;fill-rule:nonzero;stroke:none"
         d="m 790.73267,793.2404 c 0,-0.5625 0.0625,-1.25 0.25,-1.9375 l 20.17875,0 -0.93625,-10.745 c -9.31,4.435 -18.68,3.935 -28.05125,-1.5 l 5.185,24.365 10.24625,-5.7475 c -4.68625,0.5625 -6.9975,-0.93625 -6.8725,-4.435"
         inkscape:connector-curvature="0" />
      <path
         id="path364"
         style="fill:#dca56d;fill-opacity:1;fill-rule:nonzero;stroke:none"
         d="m 783.17267,805.67165 c -0.5,1.8125 -0.4375,3.125 0.1875,4.06125 l 19.8675,-8.99625 -1.75,-1.62375 -0.0625,-2.24875 c -1.37375,0.37375 -2.62375,0.62375 -3.81,0.81125 l -10.24625,5.7475 -4.18625,2.24875"
         inkscape:connector-curvature="0" />
      <path
         id="path366"
         style="fill:#a56e44;fill-opacity:1;fill-rule:nonzero;stroke:none"
         d="m 801.41517,796.86415 0,-2.3125 9.99625,0 -0.125,-1.62375 -20.55375,0.3125 c -0.125,3.49875 2.18625,4.9975 6.8725,4.435 1.18625,-0.1875 2.43625,-0.4375 3.81,-0.81125"
         inkscape:connector-curvature="0" />
      <path
         id="path368"
         style="fill:#d0cdb7;fill-opacity:1;fill-rule:nonzero;stroke:none"
         d="m 801.41517,794.55165 0,2.3125 0.0625,2.24875 77.21875,-0.875 5.31125,1.125 c -1.0625,0.37375 -2.18625,0.68625 -3.37375,0.93625 l -23.24125,1.1875 5.74875,2.43625 21.36625,-1.62375 c 3.62375,-0.1875 7.06,-2.1875 10.3075,-6.1225 3.49875,-4.68625 4.68625,-9.30875 3.62375,-13.9325 l -6.55875,-7.87125 c -1.3125,0 -2.5625,0.0625 -3.62375,0.125 -10.43375,1.18625 -12.6825,7.87125 -6.6225,20.05375 l -80.21875,0 z m 94.2125,-9.05875 c -0.1875,4.685 -2.12375,8.37125 -5.81,10.99625 -2.56125,-0.375 -4.37375,-1.375 -5.4975,-2.9375 -5.37375,-8.18375 -5.18625,-13.36875 0.62375,-15.49375 4.81125,-2.49875 8.3725,0 10.68375,7.435"
         inkscape:connector-curvature="0" />
      <path
         id="path370"
         style="fill:#6c0202;fill-opacity:1;fill-rule:nonzero;stroke:none"
         d="m 889.81767,796.48915 c 3.68625,-2.625 5.6225,-6.31125 5.81,-10.99625 -2.31125,-7.435 -5.8725,-9.93375 -10.68375,-7.435 -5.81,2.125 -5.9975,7.31 -0.62375,15.49375 1.12375,1.5625 2.93625,2.5625 5.4975,2.9375"
         inkscape:connector-curvature="0" />
      <path
         id="path372"
         style="fill:#a56e44;fill-opacity:1;fill-rule:nonzero;stroke:none"
         d="m 794.16892,808.79665 c 0.93625,-0.375 1.99875,-0.8125 3.12375,-1.3125 l 7.74625,-5.06 -1.81125,-1.6875 -19.8675,8.99625 c 1.1875,1.75 4.81,1.4375 10.80875,-0.93625"
         inkscape:connector-curvature="0" />
      <path
         id="path374"
         style="fill:#dca56d;fill-opacity:1;fill-rule:nonzero;stroke:none"
         d="m 797.29267,807.48415 c -1.125,0.5 -2.1875,0.9375 -3.12375,1.3125 -5.43625,2.68625 -7.4975,5.06 -6.31,7.18375 l 20.80375,-10.24625 -3.62375,-3.31 -7.74625,5.06"
         inkscape:connector-curvature="0" />
      <path
         id="path376"
         style="fill:#000000;fill-opacity:1;fill-rule:nonzero;stroke:none"
         d="m 825.15642,700.96415 c -0.5625,3.68625 -2.0625,7.4975 -4.43625,11.4325 l -5.4975,8.8725 c -1.37375,2.12375 -2.74875,3.8725 -4.18625,5.185 -1.68625,1.56125 -3.49875,2.49875 -5.3725,2.93625 l 2.31125,26.0525 0.5625,-0.0625 c 5.435,0.1875 9.62125,-1 12.495,-3.68625 0.8125,-0.75 1.49875,-1.625 2.12375,-2.56125 0.875,-1.4375 1.5625,-3.06125 2,-4.99875 l 0,-43.17"
         inkscape:connector-curvature="0" />
      <path
         id="path378"
         style="fill:#bbbbbb;fill-opacity:1;fill-rule:nonzero;stroke:none"
         d="m 839.02517,758.00415 c -0.93625,-1.8125 -1.93625,-3.68625 -2.99875,-5.4975 l -0.6875,-0.5 -0.68625,42.545 3.43625,0 0.93625,-36.5475"
         inkscape:connector-curvature="0" />
      <path
         id="path380"
         style="fill:#e1e1e1;fill-opacity:1;fill-rule:nonzero;stroke:none"
         d="m 808.53767,755.3804 c -0.1875,0.0625 -0.375,0.18625 -0.5625,0.31125 l 2.25,24.86625 0.93625,10.745 0.125,1.625 0.125,1.62375 15.93125,0 0,-18.2425 -10.24625,-9.30875 8.1225,-2.99875 -4.18625,-12.3075 c -2.87375,2.68625 -7.05875,3.8725 -12.495,3.68625 z m 1.1875,1.81125 3.81125,0 3.4975,35.29875 -3.4975,0 -3.81125,-35.29875"
         inkscape:connector-curvature="0" />
      <path
         id="path382"
         style="fill:#ffffff;fill-opacity:1;fill-rule:nonzero;stroke:none"
         d="m 813.53642,757.19165 -3.81125,0 3.81125,35.29875 3.4975,0 -3.4975,-35.29875"
         inkscape:connector-curvature="0" />
      <path
         id="path384"
         style="fill:#bbbbbb;fill-opacity:1;fill-rule:nonzero;stroke:none"
         d="m 825.21892,764.00165 -8.1225,2.99875 10.24625,9.30875 0,18.2425 3.81125,0 0,-18.43 -8.87125,-7.685 6.1225,-1.81125 -5.24875,-17.4925 c -0.625,0.93625 -1.31125,1.81125 -2.12375,2.56125 l 4.18625,12.3075"
         inkscape:connector-curvature="0" />
      <path
         id="path386"
         style="fill:#c10202;fill-opacity:1;fill-rule:nonzero;stroke:none"
         d="m 808.66267,805.73415 2.93625,2.75 2.125,1.93625 3.9975,3.68625 3.37375,3.06125 3.18625,2.93625 3.81125,3.56125 2.74875,2.56125 1.99875,1.81125 8.685,8.1225 0.81125,0.6875 28.92625,-1.3125 -32.8,-17.18125 c -1.12375,-1.68625 -1.68625,-2.99875 -1.68625,-3.935 -0.0625,-2.0625 2.31125,-2.625 6.9975,-1.8125 l 13.80625,3.18625 -1.43625,-1.12375 c -3.62375,-4.06125 -5.18625,-6.7475 -4.74875,-8.185 0.375,-1.43625 2.81125,-1.62375 7.2475,-0.4375 1.1875,0.9375 2.43625,1.9375 3.68625,2.9375 l -2.49875,-3.81125 -2.4375,-3.68625 23.24125,-1.1875 c 1.1875,-0.25 2.31125,-0.5625 3.37375,-0.93625 l -5.31125,-1.125 -77.21875,0.875 1.75,1.62375 1.81125,1.6875 3.62375,3.31 z m 36.61,-3.935 -24.0525,5.7475 14.36875,18.68 -27.30125,-24.4275 36.985,0"
         inkscape:connector-curvature="0" />
      <path
         id="path388"
         style="fill:#fb1515;fill-opacity:1;fill-rule:nonzero;stroke:none"
         d="m 821.22017,807.54665 24.0525,-5.7475 -36.985,0 27.30125,24.4275 -14.36875,-18.68"
         inkscape:connector-curvature="0" />
      <path
         id="path390"
         style="fill:#a56e44;fill-opacity:1;fill-rule:nonzero;stroke:none"
         d="m 811.59892,808.48415 -2.93625,-2.75 -20.80375,10.24625 c 0.375,0.625 0.99875,1.1875 1.93625,1.75 l 7.56,-3.18625 14.24375,-6.06"
         inkscape:connector-curvature="0" />
      <path
         id="path392"
         style="fill:#e1e1e1;fill-opacity:1;fill-rule:nonzero;stroke:none"
         d="m 831.15392,794.55165 3.49875,0 0.68625,-42.545 -10.1825,-7.8725 c -0.4375,1.9375 -1.125,3.56125 -2,4.99875 l 5.24875,17.4925 -6.1225,1.81125 8.87125,7.685 0,18.43"
         inkscape:connector-curvature="0" />
      <path
         id="path394"
         style="fill:#e1e1e1;fill-opacity:1;fill-rule:nonzero;stroke:none"
         d="m 838.08892,794.55165 10.245,0 c -0.56125,-13.0575 -3.62375,-25.24 -9.30875,-36.5475 l -0.93625,36.5475"
         inkscape:connector-curvature="0" />
      <path
         id="path396"
         style="fill:#000000;fill-opacity:1;fill-rule:nonzero;stroke:none"
         d="m 888.25642,774.4979 c 1.06125,-0.0625 2.31125,-0.125 3.62375,-0.125 l -0.6875,-17.30625 5.9975,-8.93375 -4.24875,0 c 1.68625,-10.49625 6.6225,-19.555 14.86875,-27.23875 -11.5575,5.2475 -17.4925,14.74375 -17.8675,28.48875 l -1.68625,25.115"
         inkscape:connector-curvature="0" />
      <path
         id="path398"
         style="fill:#dca56d;fill-opacity:1;fill-rule:nonzero;stroke:none"
         d="m 862.32892,808.98415 c -1.25,-1 -2.49875,-2 -3.68625,-2.9375 -4.435,-1.18625 -6.8725,-0.99875 -7.2475,0.4375 l 22.86625,17.61875 -2.12375,2.49875 -14.5575,-10.80875 -13.80625,-3.18625 c -4.68625,-0.8125 -7.06,-0.25 -6.9975,1.8125 l 64.03625,32.54875 c 5.93625,-1.12375 9.6225,-4.6225 11.05875,-10.5575 l -4.68625,-7.935 c 4.43625,-7.87125 5.99875,-16.05625 4.74875,-24.5525 -6.685,-0.87375 -9.24625,5.06125 -7.62125,17.7425 l -14.495,2.0625 c -9.18375,-2.87375 -18.305,-7.81 -27.48875,-14.74375 z m -8.80875,-2.375 4.7475,0 21.61625,15.99375 -26.36375,-15.99375 z m 3.935,10.93375 12.30875,9.24625 -30.23875,-12.3075 17.93,3.06125 z m 48.16875,8.68375 -15.93125,0 15.11875,-2.24875 c 0.3125,-13.12 2.37375,-19.18 6.185,-18.24375 l -5.3725,20.4925"
         inkscape:connector-curvature="0" />
      <path
         id="path400"
         style="fill:#f3ddcf;fill-opacity:1;fill-rule:nonzero;stroke:none"
         d="m 858.26767,806.60915 -4.7475,0 26.36375,15.99375 -21.61625,-15.99375"
         inkscape:connector-curvature="0" />
      <path
         id="path402"
         style="fill:#f3ddcf;fill-opacity:1;fill-rule:nonzero;stroke:none"
         d="m 869.76392,826.78915 -12.30875,-9.24625 -17.93,-3.06125 30.23875,12.3075"
         inkscape:connector-curvature="0" />
      <path
         id="path404"
         style="fill:#f3ddcf;fill-opacity:1;fill-rule:nonzero;stroke:none"
         d="m 889.69267,826.22665 15.93125,0 5.3725,-20.4925 c -3.81125,-0.93625 -5.8725,5.12375 -6.185,18.24375 l -15.11875,2.24875"
         inkscape:connector-curvature="0" />
      <path
         id="path406"
         style="fill:#bbbbbb;fill-opacity:1;fill-rule:nonzero;stroke:none"
         d="m 871.82517,835.7854 -2.99875,3.68625 5.31,6.185 5.06,-5.68625 -7.37125,-4.185"
         inkscape:connector-curvature="0" />
      <path
         id="path408"
         style="fill:#a70303;fill-opacity:1;fill-rule:nonzero;stroke:none"
         d="m 868.82642,839.47165 2.99875,-3.68625 -0.5625,-0.25 -28.92625,1.3125 -0.81125,-0.6875 0.62375,1.93625 c 0.25,0.6875 0.4375,1.3125 0.5,1.87375 l 2.56125,1.1875 22.24125,0 1.375,-1.68625"
         inkscape:connector-curvature="0" />
      <path
         id="path410"
         style="fill:#a56e44;fill-opacity:1;fill-rule:nonzero;stroke:none"
         d="m 856.14392,814.66915 1.43625,1.12375 14.5575,10.80875 2.12375,-2.49875 -22.86625,-17.61875 c -0.4375,1.4375 1.125,4.12375 4.74875,8.185"
         inkscape:connector-curvature="0" />
      <path
         id="path412"
         style="fill:#e1e1e1;fill-opacity:1;fill-rule:nonzero;stroke:none"
         d="m 869.70142,850.46665 4.435,-4.81 -5.31,-6.185 -1.375,1.68625 -6.9975,4.43625 -5.435,-4.43625 -4.24875,0 4.24875,3.06125 5.18625,3.87375 c 2.74875,2.31125 5.935,3.06125 9.49625,2.37375"
         inkscape:connector-curvature="0" />
      <path
         id="path414"
         style="fill:#333333;fill-opacity:1;fill-rule:nonzero;stroke:none"
         d="m 874.13642,845.65665 -4.435,4.81 -3.81125,3.81125 8.87125,0 7.80875,-12.1825 -3.37375,-2.125 -5.06,5.68625"
         inkscape:connector-curvature="0" />
      <path
         id="path416"
         style="fill:#000000;fill-opacity:1;fill-rule:nonzero;stroke:none"
         d="m 865.89017,854.2779 3.81125,-3.81125 c -3.56125,0.6875 -6.7475,-0.0625 -9.49625,-2.37375 l -5.18625,-3.87375 3.87375,16.99375 2.18625,-0.1875 22.05375,-2.24875 c 0.875,-4.81125 1.81125,-9.68375 2.87375,-14.495 l -3.43625,-2.18625 -7.80875,12.1825 -8.87125,0"
         inkscape:connector-curvature="0" />
      <path
         id="path418"
         style="fill:#777777;fill-opacity:1;fill-rule:nonzero;stroke:none"
         d="m 855.01892,841.1579 5.435,4.43625 6.9975,-4.43625 -12.4325,0"
         inkscape:connector-curvature="0" />
      <path
         id="path420"
         style="fill:#bbbbbb;fill-opacity:1;fill-rule:nonzero;stroke:none"
         d="m 861.07892,861.0254 -2.18625,0.1875 -3.87375,-16.99375 -4.24875,-3.06125 -5.56,0 c 1.25,2.93625 0.9375,5.31 -0.87375,7.06 -0.5625,0.5625 -1.3125,1.0625 -2.18625,1.49875 l -1.6875,-5.685 c -0.4375,0.0625 -1,0.125 -1.5625,0.125 l -7.18375,-11.8075 c -0.4375,0.125 -1,0.125 -1.5625,0.0625 -0.5,-0.0625 -1.0625,-0.25 -1.68625,-0.5 l 2.37375,-5.685 -2.74875,-2.56125 -0.9375,7.55875 c 0.3125,3.18625 0.8125,6.3725 1.375,9.55875 l 15.80625,16.55625 6.74625,1.8125 c -4.435,4.6225 -10.12,6.30875 -17.18,4.9975 -1.87375,-6.2475 -3.43625,-12.5575 -4.62375,-18.9925 -1.81125,8.74625 -1.37375,17.4925 1.25,26.24 l 15.68125,35.7975 7.2475,22.17875 c 3.06125,3.68625 6.2475,7.2475 9.55875,10.5575 l -14.12,-39.35875 c -5.1225,-9.49625 -9.37125,-19.305 -12.8075,-29.425 10.05875,6.55875 18.3675,3.185 24.99,-10.12125"
         inkscape:connector-curvature="0" />
      <path
         id="path422"
         style="fill:#333333;fill-opacity:1;fill-rule:nonzero;stroke:none"
         d="m 886.00642,844.28165 c -1.0625,4.81125 -1.99875,9.68375 -2.87375,14.495 -5.185,26.67625 -8.87125,53.415 -11.12,80.0925 l 11.1825,-33.92375 6.685,-58.165 -3.87375,-2.49875"
         inkscape:connector-curvature="0" />
      <path
         id="path424"
         style="fill:#000000;fill-opacity:1;fill-rule:nonzero;stroke:none"
         d="m 894.19142,849.52915 -4.31125,-2.74875 -6.685,58.165 -11.1825,33.92375 c -0.5,5.56 -0.875,11.05788 -1.1875,16.55588 l 4.99875,0 6.68375,-28.23838 7.3725,28.23838 10.30875,0 c -7.56,-14.43213 -11.37125,-32.54963 -11.55875,-54.35338 -0.0625,-2.06125 -0.0625,-4.12375 0,-6.185 l 5.56125,-45.3575"
         inkscape:connector-curvature="0" />
      <path
         id="path426"
         style="fill:#dca56d;fill-opacity:1;fill-rule:nonzero;stroke:none"
         d="m 828.46767,831.91165 c 0.62375,0.25 1.18625,0.4375 1.68625,0.5 l 2.68625,-4.37375 -1.99875,-1.81125 -2.37375,5.685"
         inkscape:connector-curvature="0" />
      <path
         id="path428"
         style="fill:#a56e44;fill-opacity:1;fill-rule:nonzero;stroke:none"
         d="m 832.84017,828.0379 -2.68625,4.37375 c 0.5625,0.0625 1.125,0.0625 1.5625,-0.0625 0.62375,-0.1875 1.18625,-0.5 1.62375,-0.9375 l 7.1225,12.62 c 0.9375,-0.1875 1.62375,-0.68625 1.99875,-1.43625 l 1.875,5.6225 c 1.81125,-1.75 2.12375,-4.12375 0.87375,-7.06 l -2.56125,-1.1875 c -0.0625,-0.56125 -0.25,-1.18625 -0.5,-1.87375 l -0.62375,-1.93625 -8.685,-8.1225"
         inkscape:connector-curvature="0" />
      <path
         id="path430"
         style="fill:#dca56d;fill-opacity:1;fill-rule:nonzero;stroke:none"
         d="m 833.34017,831.41165 c -0.4375,0.4375 -1,0.75 -1.62375,0.9375 l 7.18375,11.8075 c 0.5625,0 1.125,-0.0625 1.5625,-0.125 l -7.1225,-12.62"
         inkscape:connector-curvature="0" />
      <path
         id="path432"
         style="fill:#e1e1e1;fill-opacity:1;fill-rule:nonzero;stroke:none"
         d="m 827.15517,831.22415 0.9375,-7.55875 -3.81125,-3.56125 -9.93375,1.49875 c 0.9375,13.4325 2.81125,26.6775 5.6225,39.61 0.6875,3.43625 1.5,6.87125 2.37375,10.3075 0.9375,3.49875 1.875,6.9975 2.875,10.43375 0.87375,1.99875 1.74875,3.93625 2.68625,5.8725 7.18375,15.80625 15.74375,29.61375 25.5525,41.54625 l -7.2475,-22.17875 -15.68125,-35.7975 c -2.62375,-8.7475 -3.06125,-17.49375 -1.25,-26.24 1.1875,6.435 2.75,12.745 4.62375,18.9925 7.06,1.31125 12.745,-0.375 17.18,-4.9975 l -6.7475,-1.8125 -15.80625,-16.55625 c -0.56125,-3.18625 -1.06125,-6.3725 -1.37375,-9.55875"
         inkscape:connector-curvature="0" />
      <path
         id="path434"
         style="fill:#dca56d;fill-opacity:1;fill-rule:nonzero;stroke:none"
         d="m 821.09517,817.1679 -3.37375,-3.06125 -14.24375,5.2475 0.4375,1.75 17.18,-3.93625"
         inkscape:connector-curvature="0" />
      <path
         id="path436"
         style="fill:#a56e44;fill-opacity:1;fill-rule:nonzero;stroke:none"
         d="m 824.28142,820.10415 -3.18625,-2.93625 -17.18,3.93625 0.43625,1.93625 9.99625,-1.4375 9.93375,-1.49875"
         inkscape:connector-curvature="0" />
      <path
         id="path438"
         style="fill:#ffffff;fill-opacity:1;fill-rule:nonzero;stroke:none"
         d="m 814.34767,821.6029 -9.99625,1.4375 4.74875,18.2425 c 0.3125,0.125 0.625,0.3125 0.8125,0.5625 0.56125,0.5625 0.74875,1.5625 0.56125,2.93625 l -0.375,0.1875 4.43625,16.9925 5.435,-0.74875 c -2.81125,-12.9325 -4.685,-26.1775 -5.6225,-39.61"
         inkscape:connector-curvature="0" />
      <path
         id="path440"
         style="fill:#970202;fill-opacity:1;fill-rule:nonzero;stroke:none"
         d="m 803.91517,821.10415 -0.4375,-1.75 -0.4375,-1.62375 0,3.56125 c -3.81125,0.18625 -7.56,0.43625 -11.3075,0.68625 l 4.685,14.1825 -6.1225,6.6225 -4.7475,0.68625 -6.56125,8.4975 18.30625,-7.185 c 5.935,-3.18625 9.87,-4.31125 11.8075,-3.49875 l -4.74875,-18.2425 -0.43625,-1.93625"
         inkscape:connector-curvature="0" />
      <path
         id="path442"
         style="fill:#a56e44;fill-opacity:1;fill-rule:nonzero;stroke:none"
         d="m 803.04017,817.72915 0.4375,1.625 14.24375,-5.2475 -3.9975,-3.68625 -13.6825,7.87125 c 0.93625,-0.1875 1.93625,-0.375 2.99875,-0.5625"
         inkscape:connector-curvature="0" />
      <path
         id="path444"
         style="fill:#9a9887;fill-opacity:1;fill-rule:nonzero;stroke:none"
         d="m 803.04017,821.29165 0,-3.56125 c -1.0625,0.18625 -2.0625,0.37375 -2.99875,0.56125 -1.93625,0.375 -3.87375,0.75 -5.81,1.0625 -4.93625,0.75 -9.93375,1.3125 -14.9325,1.6875 -1.43625,0.0625 -2.81125,0.125 -4.2475,0.1875 -9.37125,0.43625 -18.8675,0.0625 -28.48875,-1.125 l -15.80625,-2.93625 -13.37,-2.49875 2.1875,6.06 48.0425,3.37375 c 7.8725,-0.8125 15.93125,-1.5625 24.11625,-2.125 3.7475,-0.25 7.49625,-0.5 11.3075,-0.68625"
         inkscape:connector-curvature="0" />
      <path
         id="path446"
         style="fill:#970202;fill-opacity:1;fill-rule:nonzero;stroke:none"
         d="m 810.10017,844.96915 -6.4975,4.12375 c 2.81125,-1.3125 4.6225,-1.4375 5.435,-0.375 0.375,0.4375 0.5625,1.12375 0.5625,1.99875 l 1.06125,1.5 1,1.49875 -16.11875,6.6225 -5.4975,1.62375 c 0.4375,1.4375 0.75,2.875 0.9375,4.31125 l 24.6775,0 -1.125,-4.31125 -4.435,-16.9925"
         inkscape:connector-curvature="0" />
      <path
         id="path448"
         style="fill:#a56e44;fill-opacity:1;fill-rule:nonzero;stroke:none"
         d="m 803.60267,849.0929 6.4975,-4.12375 0.37375,-0.1875 c 0.1875,-1.375 0,-2.37375 -0.56125,-2.93625 l -22.61625,11.995 -2.62375,3.49875 11.995,-3.93625 6.935,-4.31"
         inkscape:connector-curvature="0" />
      <path
         id="path450"
         style="fill:#dca56d;fill-opacity:1;fill-rule:nonzero;stroke:none"
         d="m 809.03767,848.7179 c -0.8125,-1.0625 -2.62375,-0.9375 -5.435,0.375 l -6.935,4.31 -11.995,3.93625 2.62375,-3.49875 22.61625,-11.995 c -0.1875,-0.25 -0.5,-0.4375 -0.8125,-0.5625 -1.9375,-0.8125 -5.8725,0.3125 -11.8075,3.49875 l -18.30625,7.185 -1.06125,-4.62375 c 6.435,-3.81125 9.30875,-7.68375 8.55875,-11.495 -1.06125,0.125 -2.24875,0.6875 -3.62375,1.68625 l -15.30625,11.37125 c -1.0625,0.87375 -2.12375,1.43625 -3.18625,1.74875 -0.68625,0.1875 -1.37375,0.1875 -2.06125,0.0625 -3.31125,3.18625 -6.06,3.31125 -8.37125,0.25 0.68625,-6.185 -0.5625,-11.245 -3.74875,-15.11875 -1,0.0625 -2.125,0.4375 -3.31125,1 l 1.49875,12.37 -1.43625,8.18375 -0.375,2.31125 c -0.4375,1.9375 -0.625,3.81125 -0.5,5.49875 0.1875,3.81 1.75,6.87125 4.7475,9.1825 l 11.49625,-9.3075 29.17625,-4.93625 19.17875,-7.93375 -1.06125,-1.5 -12.62,6.31 -12.3075,3.31125 10.995,-4.685 13.37,-6.935 z m -24.1775,-11.18375 0.3125,1.3125 -17.55625,12.495 -2.18625,0 19.43,-13.8075 z m -37.11,0.25 1.74875,0.125 1.43625,12.745 -1.93625,20.555 -1.87375,-5.06125 2.06125,-15.61875 -1.43625,-12.745"
         inkscape:connector-curvature="0" />
      <path
         id="path452"
         style="fill:#f3ddcf;fill-opacity:1;fill-rule:nonzero;stroke:none"
         d="m 785.17267,838.84665 -0.3125,-1.3125 -19.43,13.8075 2.18625,0 17.55625,-12.495"
         inkscape:connector-curvature="0" />
      <path
         id="path454"
         style="fill:#f3ddcf;fill-opacity:1;fill-rule:nonzero;stroke:none"
         d="m 749.49892,837.90915 -1.74875,-0.125 1.43625,12.745 -2.06125,15.61875 1.87375,5.06125 1.93625,-20.555 -1.43625,-12.745"
         inkscape:connector-curvature="0" />
      <path
         id="path456"
         style="fill:#a56e44;fill-opacity:1;fill-rule:nonzero;stroke:none"
         d="m 809.60017,850.71665 c 0,-0.875 -0.1875,-1.56125 -0.5625,-1.99875 l -13.37,6.93375 -10.995,4.68625 12.3075,-3.31125 12.62,-6.31"
         inkscape:connector-curvature="0" />
      <path
         id="path458"
         style="fill:#a56e44;fill-opacity:1;fill-rule:nonzero;stroke:none"
         d="m 811.66142,853.7154 -1,-1.49875 -19.17875,7.93375 -29.17625,4.93625 -11.49625,9.3075 12.87125,0 7.80875,-7.18375 18.555,-5.24875 5.4975,-1.62375 16.11875,-6.6225"
         inkscape:connector-curvature="0" />
      <path
         id="path460"
         style="fill:#000000;fill-opacity:1;fill-rule:nonzero;stroke:none"
         d="m 822.34517,871.5204 c -0.875,-3.43625 -1.6875,-6.87125 -2.375,-10.3075 l -5.435,0.74875 1.125,4.31125 -9.24625,0 11.495,51.355 c -2.43625,12.62 -12.3075,25.24 -29.61375,37.79713 l 76.9075,0 -2.18625,-15.49463 c -3.31125,-3.31 -6.49875,-6.87125 -9.55875,-10.5575 -9.80875,-11.9325 -18.36875,-25.74 -25.5525,-41.54625 -0.9375,-1.93625 -1.8125,-3.87375 -2.68625,-5.8725 -1,-3.43625 -1.9375,-6.935 -2.87375,-10.43375"
         inkscape:connector-curvature="0" />
      <path
         id="path462"
         style="fill:#dca56d;fill-opacity:1;fill-rule:nonzero;stroke:none"
         d="m 842.15017,849.71665 c 0.87375,-0.43625 1.62375,-0.93625 2.18625,-1.49875 l -1.875,-5.6225 c -0.37375,0.74875 -1.06125,1.24875 -1.99875,1.43625 l 1.6875,5.685"
         inkscape:connector-curvature="0" />
      <path
         id="path464"
         style="fill:#333333;fill-opacity:1;fill-rule:nonzero;stroke:none"
         d="m 888.63017,894.88665 c -0.0625,2.06125 -0.0625,4.12375 0,6.185 0.1875,21.80375 3.99875,39.92125 11.55875,54.35338 l 82.77875,-23.24088 7.1225,-45.73125 -71.47125,-4.74875 -1.375,-11.1825 -6.3725,-2.375 -3.62375,-11.12 -1.74875,-0.4375 -11.3075,-7.06 -5.56125,45.3575 z m 6.56,-41.10875 2.5625,1.5 c -5.37375,42.6075 -2.4375,73.0325 8.80875,91.33813 l -5.31125,2.624 c -9.3075,-21.80338 -11.3075,-53.60338 -6.06,-95.46213"
         inkscape:connector-curvature="0" />
      <path
         id="path466"
         style="fill:#999999;fill-opacity:1;fill-rule:nonzero;stroke:none"
         d="m 897.75267,855.2779 -2.5625,-1.5 c -5.2475,41.85875 -3.2475,73.65875 6.06,95.46213 l 5.31125,-2.624 C 895.31517,928.3104 892.37892,897.8854 897.75267,855.2779"
         inkscape:connector-curvature="0" />
      <path
         id="path468"
         style="fill:#333333;fill-opacity:1;fill-rule:nonzero;stroke:none"
         d="m 817.90892,917.6279 -11.495,-51.355 -15.43125,0 c 0.8125,5.685 0,10.99625 -2.375,15.93125 -0.1875,0.4375 -0.37375,0.8125 -0.49875,1.25 -0.4375,0.93625 -0.8125,1.81125 -1.1875,2.68625 -18.8675,43.295 -37.61,65.78613 -56.165,67.34763 l 0,1.937 57.54,0 c 17.305,-12.55713 27.17625,-25.17713 29.6125,-37.79713"
         inkscape:connector-curvature="0" />
      <path
         id="path470"
         style="fill:#dca56d;fill-opacity:1;fill-rule:nonzero;stroke:none"
         d="m 797.35517,814.54415 -3.12375,4.81 c 1.93625,-0.3125 3.8725,-0.6875 5.81,-1.0625 l 13.6825,-7.87125 -2.125,-1.93625 -14.24375,6.06"
         inkscape:connector-curvature="0" />
      <path
         id="path472"
         style="fill:#c10202;fill-opacity:1;fill-rule:nonzero;stroke:none"
         d="m 782.86017,837.53415 c 1.375,-0.99875 2.5625,-1.56125 3.62375,-1.68625 1.5,-0.25 2.68625,0.3125 3.62375,1.68625 l -4.56,5.935 4.7475,-0.68625 6.1225,-6.6225 -4.685,-14.1825 c -8.185,0.5625 -16.24375,1.3125 -24.11625,2.125 -17.68,1.93625 -34.42375,4.4975 -50.23,7.74625 l 11.5575,17.43125 4.68625,7.05875 13.3075,1.0625 1.43625,-8.18375 -1.49875,-12.37 c 1.1875,-0.5625 2.31125,-0.9375 3.31125,-1 4.31,-0.5 6.8725,3.31125 7.68375,11.4325 1.375,1.9375 2.87375,3.12375 4.43625,3.43625 0.6875,0.125 1.375,0.125 2.06125,-0.0625 1.0625,-0.3125 2.12375,-0.875 3.18625,-1.74875 l 15.30625,-11.37125 z m -53.97875,-2.81125 6.935,19.68 -14.80625,-21.17875 42.35875,-5.7475 -34.4875,7.24625"
         inkscape:connector-curvature="0" />
      <path
         id="path474"
         style="fill:#fb1515;fill-opacity:1;fill-rule:nonzero;stroke:none"
         d="m 735.81767,854.4029 -6.93625,-19.68 34.4875,-7.24625 -42.35875,5.7475 14.8075,21.17875"
         inkscape:connector-curvature="0" />
      <path
         id="path476"
         style="fill:#a56e44;fill-opacity:1;fill-rule:nonzero;stroke:none"
         d="m 790.10767,837.53415 c -0.9375,-1.37375 -2.12375,-1.93625 -3.62375,-1.68625 0.75,3.81125 -2.12375,7.68375 -8.55875,11.495 l 1.06125,4.62375 6.56125,-8.4975 4.56,-5.935"
         inkscape:connector-curvature="0" />
      <path
         id="path478"
         style="fill:#a56e44;fill-opacity:1;fill-rule:nonzero;stroke:none"
         d="m 762.30642,850.71665 c -1.5625,-0.3125 -3.06125,-1.49875 -4.43625,-3.43625 -0.81125,-8.12125 -3.37375,-11.9325 -7.68375,-11.4325 3.18625,3.87375 4.435,8.93375 3.74875,15.11875 2.31125,3.06125 5.06,2.93625 8.37125,-0.25"
         inkscape:connector-curvature="0" />
      <path
         id="path480"
         style="fill:#bbbbbb;fill-opacity:1;fill-rule:nonzero;stroke:none"
         d="m 790.98267,866.2729 c -0.1875,-1.43625 -0.5,-2.87375 -0.9375,-4.31125 l -18.555,5.24875 -7.80875,7.18375 c -0.1875,3.56125 -1.875,6.68625 -5.12375,9.37125 -4.12375,5.81125 -9.93375,8.81 -17.4925,9.06 l 14.43125,0 18.68,-17.49375 10.99625,0 -27.24,42.92 c -8.18375,16.80625 -24.74,21.4925 -49.5425,13.995 l -2.99875,10.43375 c 8.43375,7.93413 16.86875,11.49513 25.365,10.80763 18.555,-1.5615 37.2975,-24.05263 56.165,-67.34763 0.375,-0.875 0.75,-1.75 1.1875,-2.68625 0.125,-0.4375 0.31125,-0.8125 0.49875,-1.25 2.375,-4.935 3.1875,-10.24625 2.375,-15.93125"
         inkscape:connector-curvature="0" />
      <path
         id="path482"
         style="fill:#d0cdb7;fill-opacity:1;fill-rule:nonzero;stroke:none"
         d="m 719.57392,820.72915 -4.56125,-0.375 2.37375,11.495 c 15.80625,-3.24875 32.55,-5.81 50.23,-7.74625 l -48.0425,-3.37375"
         inkscape:connector-curvature="0" />
      <path
         id="path484"
         style="fill:#555555;fill-opacity:1;fill-rule:nonzero;stroke:none"
         d="m 740.62767,892.8254 c 0.125,0 0.25,0 0.4375,0 7.55875,-0.25 13.36875,-3.24875 17.4925,-9.06 3.24875,-2.685 4.93625,-5.81 5.12375,-9.37125 l -12.87125,0 c -2.9975,-2.31125 -4.56,-5.3725 -4.7475,-9.1825 -2.31125,5.31 -3.74875,8.62125 -4.2475,9.9325 -2.1875,5.93625 -2.625,11.80875 -1.1875,17.68125"
         inkscape:connector-curvature="0" />
      <path
         id="path486"
         style="fill:#e1e1e1;fill-opacity:1;fill-rule:nonzero;stroke:none"
         d="m 741.06517,892.8254 c -0.1875,0 -0.3125,0 -0.4375,0 l -18.9925,-7.31 -13.245,46.73125 c 24.8025,7.4975 41.35875,2.81125 49.5425,-13.995 l 27.24,-42.92 -10.99625,0 -18.68,17.49375 -14.43125,0 z m -23.92875,37.4225 -5.685,0 12.5575,-40.235 4.18625,0.375 -11.05875,39.86"
         inkscape:connector-curvature="0" />
      <path
         id="path488"
         style="fill:#ffffff;fill-opacity:1;fill-rule:nonzero;stroke:none"
         d="m 711.45142,930.2479 5.685,0 11.05875,-39.86 -4.18625,-0.375 -12.5575,40.235"
         inkscape:connector-curvature="0" />
      <path
         id="path490"
         style="fill:#bbbbbb;fill-opacity:1;fill-rule:nonzero;stroke:none"
         d="m 740.62767,892.8254 c -1.4375,-5.8725 -1,-11.745 1.1875,-17.68125 -16.24375,-1.31125 -32.175,-7.74625 -47.85625,-19.305 -0.9375,12.5575 3.93625,20.7425 14.49375,24.61625 l 13.1825,5.06 18.9925,7.31"
         inkscape:connector-curvature="0" />
      <path
         id="path492"
         style="fill:#333333;fill-opacity:1;fill-rule:nonzero;stroke:none"
         d="m 875.82392,955.42503 14.05625,0 -7.3725,-28.23838 -6.68375,28.23838"
         inkscape:connector-curvature="0" />
      <path
         id="path494"
         style="fill:#e1e1e1;fill-opacity:1;fill-rule:nonzero;stroke:none"
         d="m 925.36642,838.65915 -4.62375,-1.37375 -3.31125,18.1175 9.80875,3.12375 c 0.6875,-5.685 0.875,-12.12125 0.5,-19.18 l -1.1875,-0.3125 -1.18625,-0.375"
         inkscape:connector-curvature="0" />
      <path
         id="path496"
         style="fill:#777777;fill-opacity:1;fill-rule:nonzero;stroke:none"
         d="m 907.24767,857.02665 3.62375,11.12 5.7475,-8.68375 -9.37125,-2.43625"
         inkscape:connector-curvature="0" />
      <path
         id="path498"
         style="fill:#bbbbbb;fill-opacity:1;fill-rule:nonzero;stroke:none"
         d="m 910.87142,868.14665 6.3725,2.375 6.435,2.31125 c 0.9375,-2.43625 1.75,-4.9975 2.4375,-7.80875 0.43625,-2.0625 0.81125,-4.18625 1.12375,-6.4975 l -9.80875,-3.12375 -0.8125,4.06 -5.7475,8.68375"
         inkscape:connector-curvature="0" />
    </g>
  </g>
</svg>
